<?xml version="1.0" encoding="UTF-8"?>
<svg xmlns="http://www.w3.org/2000/svg" width="536" height="339" fill="none">
  <path d="M60.5 3.6c0-2 1.6-3.6 3.6-3.6h388.6c2 0 3.6 1.6 3.6 3.6v231.8c0 2-1.6 3.6-3.6 3.6H64.1c-2 0-3.6-1.6-3.6-3.6V3.6z" fill="#fff"></path>
  <path d="M85.3 27.6h-.2l-.1-.3V19v-.3h4.3c1 0 1.8.2 2.3.6.6.4.8 1 .8 1.9 0 .4 0 .8-.3 1a2 2 0 01-.7.7c.3.2.6.4.8.8.3.4.4.8.4 1.2 0 .9-.3 1.5-.8 2-.6.5-1.4.7-2.5.7h-4zm3.7-5.4c.3 0 .6 0 .7-.2.2-.2.3-.5.3-.7 0-.3 0-.6-.3-.7-.1-.2-.4-.3-.7-.3h-1.7v2H89zm0 3.8c.4 0 .7-.1.9-.3.2-.2.3-.5.3-.8a1 1 0 00-.3-.7 1 1 0 00-.8-.3h-1.8v2H89zM96.4 27.8c-.7 0-1.3-.3-1.8-.8s-.7-1.2-.7-2.1v-3.6-.3h2.2v3.8c0 .8.4 1.3 1.2 1.3.3 0 .6-.2.8-.4.2-.2.3-.5.3-1v-3.4l.1-.3h2.1v6.6h-2v-.8c-.5.7-1.2 1-2.2 1zM105 27.8c-.7 0-1.3-.1-1.7-.3-.5-.2-.8-.5-1-.7-.3-.3-.4-.5-.4-.8l.1-.2h1.8l.3.2.4.3h1.2l.2-.5-.1-.3-.5-.3-1-.3c-.7-.1-1.3-.3-1.7-.7-.3-.3-.5-.7-.5-1.3 0-.4 0-.7.3-1 .2-.3.6-.6 1-.8.4-.2 1-.3 1.6-.3.6 0 1.1.1 1.6.3.4.2.8.4 1 .7l.4.7-.1.2-.2.1h-1.4-.2a2 2 0 01-.3-.2l-.4-.3h-1l-.2.5.1.3.5.3 1 .2c.9.2 1.5.4 1.9.8.3.3.5.8.5 1.3 0 .6-.2 1.1-.8 1.5-.6.4-1.4.6-2.4.6zM109.8 20l-.3-.1v-1.4-.2l.3-.1h1.7l.1.3V20h-1.8zm0 7.6h-.3v-6.3-.3h2l.1.3v6.3h-1.8zM113.5 27.6h-.2l-.1-.3v-6-.3h2l.1.3v.5l1-.7a3 3 0 011.2-.3c.7 0 1.3.3 1.8.8s.7 1.2.7 2.1v3.9h-2.2v-3.8c0-.4-.1-.7-.3-1l-.9-.2c-.4 0-.6 0-.8.3-.2.2-.3.5-.3 1v3.4l-.1.3H113.5zM124.6 27.8c-1 0-1.8-.3-2.4-.9-.6-.5-1-1.3-1-2.4v-.4c.1-1 .4-1.8 1-2.4.6-.6 1.4-.9 2.4-.9.7 0 1.4.2 1.8.5.6.3 1 .7 1.2 1.2.2.5.4 1 .4 1.8v.3l-.1.2h-4.3v.2c0 .4 0 .7.2 1 .2.2.5.3.8.3l.5-.1c.2 0 .3-.2.4-.3l.2-.2h2l.1.2c0 .2-.1.5-.4.8a3 3 0 01-1 .8c-.6.2-1.1.3-1.8.3zm1.1-4.2c0-.4-.1-.8-.3-1a1 1 0 00-.8-.4 1 1 0 00-.8.4c-.2.2-.3.6-.3 1h2.2zM132 27.8c-.7 0-1.3-.1-1.8-.3l-1-.7c-.2-.3-.3-.5-.3-.8v-.2H130.9l.2.2.5.3h1.2l.2-.5-.1-.3-.5-.3-1-.3c-.8-.1-1.3-.3-1.7-.7-.4-.3-.6-.7-.6-1.3 0-.4.1-.7.4-1 .2-.3.5-.6 1-.8.4-.2 1-.3 1.5-.3.7 0 1.2.1 1.6.3.5.2.8.4 1 .7.3.3.4.5.4.7v.2l-.3.1h-1.3-.2a2 2 0 01-.3-.2l-.4-.3h-1l-.2.5.1.3.5.3 1 .2c.8.2 1.5.4 1.8.8.4.3.6.8.6 1.3 0 .6-.3 1.1-.8 1.5-.6.4-1.4.6-2.4.6zM139.2 27.8c-.7 0-1.3-.1-1.8-.3l-1-.7c-.2-.3-.3-.5-.3-.8v-.2h1.9l.2.2.5.3h1.1c.2-.2.3-.3.3-.5 0-.1 0-.3-.2-.3l-.4-.3-1-.3c-.8-.1-1.3-.3-1.7-.7-.4-.3-.6-.7-.6-1.3 0-.4.1-.7.4-1 .2-.3.5-.6 1-.8.4-.2 1-.3 1.5-.3.6 0 1.2.1 1.6.3.5.2.8.4 1 .7.3.3.4.5.4.7v.2l-.3.1h-1.3-.2a2 2 0 01-.3-.2l-.4-.3h-1c-.2.2-.2.3-.2.5v.3c.2 0 .3.2.5.3l1.1.2c.8.2 1.4.4 1.8.8.4.3.6.8.6 1.3 0 .6-.3 1.1-.9 1.5-.5.4-1.3.6-2.3.6zM149.2 27.8c-.7 0-1.3-.1-1.8-.3-.5-.2-.8-.5-1-.7-.2-.3-.4-.5-.4-.8l.1-.2h1.9l.2.2.5.3h1.1c.2-.2.3-.3.3-.5 0-.1 0-.3-.2-.3l-.4-.3-1-.3c-.8-.1-1.3-.3-1.7-.7-.4-.3-.6-.7-.6-1.3 0-.4.1-.7.3-1l1-.8c.5-.2 1-.3 1.6-.3.6 0 1.2.1 1.6.3.5.2.8.4 1 .7.3.3.4.5.4.7l-.1.2-.2.1h-1.5a2 2 0 01-.3-.2l-.4-.3h-1c-.2.2-.2.3-.2.5v.3l.5.3 1 .2c1 .2 1.5.4 1.9.8.4.3.6.8.6 1.3 0 .6-.3 1.1-.9 1.5-.5.4-1.3.6-2.3.6zM157 27.6c-1.8 0-2.7-.8-2.7-2.5v-2.5h-1-.2l-.1-.3v-1-.3h1.3v-2.2l.1-.2h2V21h1.9v1.6h-1.9V25c0 .7.3 1 .8 1h1.2V27.7H157zM161.6 27.8a3 3 0 01-1.2-.3c-.4-.2-.7-.4-.9-.7-.2-.3-.3-.7-.3-1 0-.6.2-1 .7-1.4.5-.4 1.2-.7 2-.8l1.6-.2v-.2c0-.3 0-.6-.2-.7-.1-.2-.3-.3-.7-.3a1 1 0 00-.5.1l-.4.3a2 2 0 01-.2.2l-.2.1H160h-.2v-.3c0-.2 0-.4.3-.7.2-.3.5-.6 1-.8a4 4 0 011.7-.3c1 0 1.8.3 2.3.7.5.5.8 1.1.8 2v3.8l-.1.3h-1.8-.2v-.7c-.3.2-.5.5-.9.6-.3.2-.7.3-1.2.3zm.6-1.5c.4 0 .7-.1 1-.4.2-.2.4-.6.4-1.1v-.2l-1.1.2c-.8.1-1.2.4-1.2.8 0 .2.1.4.3.5l.6.2zM170.7 27.6c-1.8 0-2.7-.8-2.7-2.5v-2.5h-1.3v-1.3-.3h1.3v-2.2-.2h2l.1.2V21H172v1.6H170V25c0 .7.3 1 .8 1h1.2V27.7H170.7zM173.6 20l-.2-.1-.1-.2v-1.2-.2l.3-.1h1.8V20h-1.8zm0 7.6h-.2v-6.3-.3h2v6.6h-1.8zM179.8 27.8c-.7 0-1.3-.1-1.7-.3-.5-.2-.8-.5-1-.7-.3-.3-.4-.5-.4-.8v-.2H178.7l.2.2.5.3h1.2l.2-.5-.1-.3-.5-.3-1-.3c-.8-.1-1.3-.3-1.7-.7-.4-.3-.6-.7-.6-1.3 0-.4.2-.7.4-1 .2-.3.5-.6 1-.8.4-.2 1-.3 1.6-.3.6 0 1.1.1 1.5.3.5.2.8.4 1 .7.3.3.4.5.4.7v.2l-.2.1H181h-.2a2 2 0 01-.3-.2l-.4-.3h-1l-.2.5.1.3.5.3 1 .2c.9.2 1.5.4 1.8.8.4.3.6.8.6 1.3 0 .6-.3 1.1-.8 1.5-.6.4-1.4.6-2.4.6zM187.6 27.6c-1.8 0-2.6-.8-2.6-2.5v-2.5h-1.3v-1.3-.3h1.3v-2.2-.2h2V21h1.9l.1.3v1.3H187V25c0 .7.2 1 .7 1h1.2l.1.3V27.6h-1.5zM190.6 20l-.3-.1v-1.4-.2l.3-.1h1.8V20h-1.8zm0 7.6h-.2l-.1-.3v-6-.3h2l.1.3v6.3h-1.8zM197 27.8c-.9 0-1.7-.3-2.3-.8a3 3 0 01-1-2.2v-1c.1-1 .4-1.7 1-2.2.6-.5 1.4-.8 2.4-.8.7 0 1.3.2 1.8.4.5.3 1 .6 1.2 1l.4 1-.1.2h-2.1l-.2-.2c0-.2-.2-.4-.4-.5a1 1 0 00-.6-.2c-.7 0-1 .4-1 1.4v.9c0 .4 0 .8.2 1 .2.2.5.3.8.3.3 0 .5 0 .7-.2l.3-.5.2-.2h2l.2.2c0 .3-.2.6-.4 1a3 3 0 01-1.1 1 4 4 0 01-2 .4zM204.4 27.8c-.7 0-1.2-.1-1.7-.3-.5-.2-.8-.5-1-.7-.3-.3-.4-.5-.4-.8l.1-.2h1.8l.3.2.5.3h1.1l.2-.5-.1-.3-.5-.3-1-.3c-.7-.1-1.3-.3-1.7-.7-.3-.3-.5-.7-.5-1.3 0-.4 0-.7.3-1 .2-.3.6-.6 1-.8.4-.2 1-.3 1.6-.3.6 0 1.1.1 1.6.3.4.2.8.4 1 .7l.4.7-.1.2-.2.1h-1.4-.2a2 2 0 01-.2-.2l-.5-.3h-1l-.2.5.1.3.5.3 1 .2c.9.2 1.5.4 1.9.8.4.3.5.8.5 1.3 0 .6-.2 1.1-.8 1.5-.6.4-1.4.6-2.4.6zM86.9 41c-.5 0-.9 0-1.3-.2a2 2 0 01-.8-.6l-.3-.8v-.2h.4c.1 0 .2 0 .2.2 0 .3.2.5.5.7.3.3.7.4 1.3.4.6 0 1-.1 1.3-.3.3-.3.4-.6.4-1 0-.2 0-.4-.2-.5-.1-.2-.3-.3-.6-.4l-1.2-.5-1.1-.4c-.3-.2-.5-.3-.6-.6l-.2-.8a1.5 1.5 0 011-1.4c.3-.2.7-.3 1.2-.3.4 0 .8.1 1.1.3l.8.6.2.8-.1.1h-.2-.2V36a1 1 0 00-.5-.8c-.3-.2-.7-.3-1.1-.3a2 2 0 00-1.2.3 1 1 0 00-.4.8c0 .3 0 .5.2.6.1.2.3.3.6.4l1 .4 1.3.5c.3.1.5.3.6.5.2.2.2.5.2.9 0 .5-.2 1-.6 1.3-.4.3-1 .4-1.7.4zM92.3 41c-.6 0-1-.2-1.4-.6-.4-.3-.6-.9-.6-1.5V38c0-.6.2-1.1.6-1.5.3-.4.8-.6 1.4-.6.7 0 1.2.2 1.5.7.4.4.6 1 .6 1.7V38.7h-3.5v.1l.1.9.6.6.7.2c.4 0 .6 0 .8-.2.3-.1.4-.3.5-.4l.1-.2h.5v.2c0 .1 0 .3-.2.5a2 2 0 01-.7.4c-.3.2-.6.2-1 .2zm1.5-2.8c0-.5-.1-.9-.4-1.2-.3-.3-.6-.5-1-.5-.5 0-.9.2-1.2.5-.2.3-.3.7-.3 1.2h2.9zM97.5 41c-.6 0-1.1-.2-1.5-.6-.3-.3-.5-.9-.6-1.5V38c0-.6.3-1.1.6-1.5.4-.4.9-.6 1.5-.6s1.1.2 1.5.7c.3.4.5 1 .5 1.7V38.7H96v.1c0 .3 0 .6.2.9l.5.6.8.2c.3 0 .6 0 .8-.2l.5-.4v-.2h.5v.2c0 .1 0 .3-.2.5a2 2 0 01-.7.4c-.2.2-.6.2-1 .2zm1.4-2.8c0-.5 0-.9-.4-1.2-.2-.3-.6-.5-1-.5-.5 0-.9.2-1.1.5-.3.3-.4.7-.4 1.2h3zM103.4 35.1h-.2v-.5-.2h.7v.7h-.5zm0 5.8l-.1-.2v-4.4-.1l.2-.1H103.8V41H103.5zM105.6 41l-.1-.1V36.3v-.1l.1-.1H106V36.8l.7-.5a2 2 0 011-.2c.5 0 1 .2 1.3.6.4.4.5.9.5 1.5V40.9H109h-.2V38c0-.5-.2-.9-.4-1.1-.2-.3-.6-.5-1-.5-.5 0-.9.2-1.1.5-.3.3-.4.6-.4 1.1V41h-.4zM112.5 41c-.4 0-.7 0-1-.2l-.6-.4-.3-.5h.1l.2-.1h.2c.2.3.4.4.6.5l.8.2c.4 0 .7 0 1-.2.2-.2.3-.4.3-.7 0-.1 0-.3-.2-.4a1 1 0 00-.4-.2 8 8 0 00-1-.3c-.5-.1-1-.3-1.1-.5-.2-.2-.3-.5-.3-.8 0-.3 0-.5.2-.7l.5-.5a2 2 0 011-.2c.3 0 .6 0 .9.2l.6.4.2.5h-.1l-.1.1h-.2-.2c-.1-.3-.3-.4-.4-.5l-.8-.2c-.3 0-.6.1-.8.3-.2.1-.2.3-.2.6v.3l.5.3.9.3c.5 0 1 .3 1.2.5.2.2.3.5.3.8 0 .3 0 .5-.2.7-.1.2-.3.4-.6.5-.3.2-.6.2-1 .2zM115.7 35.1h-.1l-.1-.2v-.3-.2H116.3v.7h-.5zm.1 5.8h-.1V36.3v-.1l.1-.1H116.1V41H115.8zM119.5 43c-.4 0-.8-.1-1.1-.3-.3-.1-.5-.3-.6-.6l-.2-.5v-.1l.2-.1H118.1v.2c.3.6.7.8 1.4.8.5 0 1 0 1.2-.3.2-.2.4-.6.4-1.2v-.6c-.4.5-1 .7-1.6.7-.7 0-1.2-.2-1.5-.6-.3-.5-.5-1-.5-1.6v-.5c0-.7.2-1.2.5-1.6.3-.5.8-.7 1.5-.7s1.2.3 1.6.7v-.4-.1l.2-.1H121.6v4.7c0 .7-.1 1.2-.4 1.6-.3.4-.9.6-1.7.6zm0-2.5c.5 0 1-.2 1.2-.5l.4-1.1a4 4 0 000-.7 2 2 0 00-.4-1.2c-.3-.3-.7-.5-1.1-.5-.5 0-1 .2-1.1.5-.3.3-.4.8-.4 1.3v.5c0 .5.1.9.4 1.2.2.3.6.5 1 .5zM123.4 41l-.1-.1v-6.4-.1h.4V36.7l.7-.5a2 2 0 011-.2c.6 0 1 .2 1.4.6.3.4.4.9.4 1.5V40.9H126.9h-.2V38c0-.5-.1-.9-.4-1.1-.2-.3-.6-.5-1-.5-.5 0-.8.2-1.1.5-.3.3-.4.6-.4 1.1V41h-.4zM130.3 41c-.4 0-.8-.2-1-.5a2 2 0 01-.2-1.1v-2.8h-.8-.1v-.2-.2l.1-.1h.8v-1.6-.1h.5V36h1.3v.5h-1.3v2.7c0 .4 0 .7.2.8.1.2.3.3.6.3h.6v.5h-.7zM133.6 41c-.4 0-.7 0-1-.2l-.6-.4-.2-.5.2-.1H132.3l.5.5.8.2c.4 0 .7 0 1-.2.2-.2.3-.4.3-.7l-.1-.4a1 1 0 00-.5-.2 8 8 0 00-1-.3c-.5-.1-.9-.3-1-.5-.3-.2-.4-.5-.4-.8 0-.3 0-.5.2-.7.1-.2.3-.4.6-.5a2 2 0 01.9-.2c.4 0 .7 0 1 .2l.5.4.2.5-.2.1H134.8l-.5-.5-.7-.2c-.4 0-.6.1-.8.3-.2.1-.3.3-.3.6l.1.3.4.3 1 .3c.5 0 .9.3 1.1.5.3.2.4.5.4.8 0 .3 0 .5-.2.7l-.7.5c-.2.2-.6.2-1 .2zM141 41a2 2 0 01-1.4-.6c-.4-.4-.6-.9-.6-1.5v-.8c0-.6.2-1.1.6-1.5a2 2 0 011.5-.6c.6 0 1.1.2 1.4.6.4.4.6.9.6 1.5a5.2 5.2 0 010 .8c0 .6-.2 1.1-.6 1.5a2 2 0 01-1.4.6zm0-.5c.5 0 .8-.2 1.1-.4.3-.3.4-.7.4-1.2a3.7 3.7 0 000-.7c0-.5-.1-1-.4-1.2-.3-.3-.6-.5-1-.5-.5 0-.8.2-1.1.5-.3.3-.4.7-.4 1.2v.7c0 .5.1.9.4 1.2.3.2.6.4 1 .4zM144.7 41l-.2-.1V36.3v-.1l.2-.1H145V36.8l.7-.5a2 2 0 01.9-.2c.6 0 1 .2 1.4.6.3.4.5.9.5 1.5V40.9h-.4-.1V38c0-.5-.2-.9-.5-1.1-.2-.3-.5-.5-1-.5-.4 0-.8.2-1 .5-.3.3-.5.6-.5 1.1V41H144.7zM152.7 41l-.2-.1v-6.4-.1h.5V36.7l.7-.5a2 2 0 011-.2c.5 0 1 .2 1.3.6.3.4.5.9.5 1.5V40.9h-.4-.1V38c0-.5-.2-.9-.4-1.1-.3-.3-.6-.5-1-.5-.5 0-.9.2-1.1.5-.3.3-.4.6-.4 1.1v2.6l-.1.2H152.7zM159.9 41a2 2 0 01-1.5-.6c-.4-.4-.6-.9-.6-1.5v-.8c0-.6.2-1.1.6-1.5a2 2 0 011.5-.6c.6 0 1.1.2 1.5.6.3.4.5.9.5 1.5a4.5 4.5 0 010 .8c0 .6-.2 1.1-.5 1.5a2 2 0 01-1.5.6zm0-.5c.4 0 .8-.2 1-.4.3-.3.5-.7.5-1.2a4.3 4.3 0 000-.7c0-.5-.2-1-.5-1.2-.2-.3-.6-.5-1-.5-.5 0-.8.2-1 .5-.4.3-.5.7-.5 1.2v.7c0 .5.1.9.4 1.2.3.2.6.4 1 .4zM164.4 41l-.2-.1v-.2l-1.4-4.3v-.1-.1l.2-.1H163.3v.1l1.2 4 1.2-4h.1l.2-.1h.2a.2.2 0 01.2.2l1.2 3.8 1.2-3.9.2-.1h.2l.1.2-1.3 4.4-.1.2H167.6c-.2 0-.3 0-.4-.2l-1.1-3.7-1.2 3.7c0 .2-.2.2-.3.2h-.2zM173.4 42.7h-.2v-.2-.2l.7-1.6-1.7-4.2v-.2-.1l.1-.1h.2l.2.1 1.6 3.7 1.6-3.7.2-.1h.2l.1.2v.2l-2.6 6c0 .2-.2.2-.3.2h-.1zM179.2 41a2 2 0 01-1.5-.6c-.3-.4-.5-.9-.5-1.5v-.8c0-.6.2-1.1.5-1.5a2 2 0 011.5-.6c.7 0 1.2.2 1.5.6.4.4.6.9.6 1.5a5.2 5.2 0 010 .8c0 .6-.2 1.1-.6 1.5a2 2 0 01-1.5.6zm0-.5c.5 0 .8-.2 1-.4.4-.3.5-.7.5-1.2a4.3 4.3 0 000-.7c0-.5-.1-1-.4-1.2-.3-.3-.6-.5-1-.5-.5 0-.9.2-1.1.5-.3.3-.4.7-.5 1.2v.7c0 .5.2.9.5 1.2.2.2.6.4 1 .4zM184.5 41c-.6 0-1.1-.2-1.4-.6-.3-.3-.5-.8-.5-1.5v-2.6-.1l.2-.1H183.1V39c0 1 .5 1.6 1.5 1.6.4 0 .8-.2 1-.4.3-.3.4-.7.4-1.2v-2.6-.1l.2-.1H186.5V41H186.2h-.1V40.3a2 2 0 01-.7.5 2 2 0 01-1 .2zM188.4 41l-.2-.1V36.3v-.1l.2-.1H188.7V36.8c.2-.4.7-.6 1.3-.6h.5v.5H189.9c-.3 0-.6.2-.9.4-.2.2-.3.5-.3.8v3l-.2.1h-.1zM195.8 41c-.7 0-1.2-.2-1.5-.7V40.9h-.4-.1l-.1-.2v-6.2-.1h.5V36.7c.4-.4 1-.7 1.6-.7.7 0 1.2.2 1.5.7.3.4.5 1 .5 1.6a2.8 2.8 0 010 .5c0 .6-.2 1.1-.5 1.6-.3.4-.8.6-1.5.6zm0-.5c.5 0 .8-.2 1-.5.3-.3.4-.7.4-1.2v-.3c0-.6 0-1-.3-1.4-.2-.4-.6-.6-1.1-.6a1.4 1.4 0 00-1.4.9l-.1.7v.8c0 .4.1.8.4 1.1.2.3.6.5 1 .5zM201 41c-.6 0-1.1-.2-1.4-.6-.3-.3-.5-.8-.5-1.5v-2.6-.1l.2-.1H199.6V39c0 1 .5 1.6 1.5 1.6.4 0 .8-.2 1-.4.3-.3.4-.7.4-1.2v-2.6-.1l.2-.1H203V41H202.7h-.1V40.3l-.7.5a2 2 0 01-1 .2zM206.2 41c-.4 0-.8 0-1-.2l-.7-.4-.2-.5h.1l.1-.1h.4c.1.3.3.4.5.5l.8.2c.4 0 .7 0 1-.2.2-.2.3-.4.3-.7 0-.1 0-.3-.2-.4a1 1 0 00-.4-.2 8 8 0 00-1-.3c-.5-.1-1-.3-1.1-.5a1.2 1.2 0 01-.1-1.5c0-.2.3-.4.5-.5a2 2 0 011-.2c.3 0 .6 0 .9.2l.6.4.1.5-.2.1h-.3c-.1-.3-.3-.4-.4-.5l-.8-.2c-.3 0-.6.1-.8.3-.2.1-.3.3-.3.6 0 .1 0 .2.2.3l.4.3.9.3c.5 0 1 .3 1.2.5.2.2.3.5.3.8 0 .3 0 .5-.2.7-.1.2-.3.4-.6.5-.3.2-.6.2-1 .2zM209.4 35.1h-.2v-.5-.2H210v.7h-.5zm.1 5.8h-.1l-.1-.2v-4.4-.1l.2-.1H209.8V41H209.5zM211.6 41l-.1-.1V36.3v-.1l.1-.1H212l.1.2v.4l.6-.5a2 2 0 011-.2c.6 0 1 .2 1.4.6.3.4.5.9.5 1.5v2.6l-.1.2H215.1h-.2V38c0-.5-.1-.9-.4-1.1-.2-.3-.6-.5-1-.5-.5 0-.8.2-1.1.5-.3.3-.4.6-.4 1.1V41h-.4zM218.8 41c-.6 0-1-.2-1.4-.6-.4-.3-.6-.9-.7-1.5V38c0-.6.3-1.1.6-1.5.4-.4.9-.6 1.5-.6s1.1.2 1.5.7c.3.4.5 1 .5 1.7V38.7h-3.5v.1c0 .3 0 .6.2.9l.5.6.8.2a1.6 1.6 0 001.3-.6v-.2h.5v.2c0 .1 0 .3-.2.5a2 2 0 01-.6.4c-.3.2-.7.2-1 .2zm1.5-2.8c0-.5-.2-.9-.4-1.2-.3-.3-.7-.5-1.1-.5-.5 0-.8.2-1.1.5-.3.3-.4.7-.4 1.2h3zM223.7 41c-.4 0-.8 0-1-.2l-.7-.4-.2-.5.2-.1h.4c0 .3.3.4.4.5l.9.2c.3 0 .7 0 .9-.2.2-.2.3-.4.3-.7l-.1-.4a1 1 0 00-.5-.2 8 8 0 00-1-.3c-.5-.1-.8-.3-1-.5-.3-.2-.4-.5-.4-.8l.2-.7.6-.5a2 2 0 011-.2c.3 0 .6 0 .9.2l.5.4c.2.2.2.3.2.5l-.2.1H224.8l-.5-.5-.7-.2c-.3 0-.6.1-.8.3-.2.1-.3.3-.3.6l.1.3.4.3 1 .3c.5 0 1 .3 1.2.5.2.2.3.5.3.8 0 .3 0 .5-.2.7l-.6.5c-.3.2-.7.2-1 .2zM228.3 41c-.4 0-.7 0-1-.2l-.6-.4c-.2-.2-.2-.4-.2-.5l.2-.1H227c.1.3.3.4.5.5l.8.2c.4 0 .7 0 1-.2.2-.2.3-.4.3-.7 0-.1 0-.3-.2-.4a1 1 0 00-.4-.2 8 8 0 00-1-.3c-.5-.1-1-.3-1.1-.5a1.2 1.2 0 01-.1-1.5l.5-.5a2 2 0 011-.2c.3 0 .6 0 .9.2l.6.4.2.5h-.1l-.1.1h-.2-.2c-.1-.3-.3-.4-.4-.5l-.7-.2c-.4 0-.7.1-.9.3l-.2.6v.3l.5.3.9.3c.6 0 1 .3 1.2.5.2.2.3.5.3.8 0 .3 0 .5-.2.7-.1.2-.3.4-.6.5-.3.2-.6.2-1 .2zM234 41v-.1l-.1-.2v-6.2-.1h.5V36.7l.7-.5a2 2 0 011-.2c.5 0 1 .2 1.3.6.3.4.5.9.5 1.5V40.9h-.4-.1V38c0-.5-.2-.9-.4-1.1-.3-.3-.6-.5-1-.5-.5 0-.9.2-1.1.5-.3.3-.4.6-.4 1.1v2.6l-.1.2H234.1zM240.7 41c-.3 0-.5 0-.8-.2-.2 0-.5-.3-.6-.5-.2-.2-.2-.4-.2-.7 0-.4.1-.7.5-1 .3-.2.7-.4 1.3-.5l1.5-.2v-.3c0-.3-.1-.6-.3-.8-.2-.2-.6-.3-1-.3l-.8.2c-.2.2-.3.3-.3.5l-.1.1H239.6h-.1l-.1-.1c0-.2 0-.3.2-.5l.6-.5a2 2 0 011-.2c.6 0 1 .2 1.3.5.3.3.4.7.4 1.1V41H242.6h-.2V40.3l-.6.5c-.3.2-.6.2-1 .2zm.1-.5c.5 0 .9-.2 1.1-.5.3-.3.5-.7.5-1.2v-.4l-1.2.2c-.5 0-1 .2-1.2.4-.2.1-.4.3-.4.6s.2.5.4.7l.8.2zM246 41c-.4 0-.7 0-1-.2l-.6-.4c-.2-.2-.2-.4-.2-.5l.2-.1H244.7l.5.5.8.2c.4 0 .7 0 1-.2.2-.2.3-.4.3-.7 0-.1 0-.3-.2-.4a1 1 0 00-.4-.2 8 8 0 00-1-.3c-.5-.1-.9-.3-1-.5-.3-.2-.4-.5-.4-.8 0-.3 0-.5.2-.7.1-.2.3-.4.6-.5a2 2 0 01.9-.2c.3 0 .7 0 1 .2l.5.4.2.5-.2.1h-.2-.2c0-.3-.2-.4-.4-.5l-.7-.2c-.4 0-.7.1-.8.3-.2.1-.3.3-.3.6v.3l.5.3.9.3c.6 0 1 .3 1.2.5.2.2.4.5.4.8l-.2.7-.7.5c-.3.2-.6.2-1 .2zM253.4 41a2 2 0 01-1.5-.5c-.3-.4-.5-1-.5-1.6V38c0-.6.2-1.2.5-1.5a2 2 0 011.5-.6c.4 0 .8 0 1 .2.4.2.6.4.7.6.2.2.2.4.2.7v.1h-.4l-.1-.1c-.1-.3-.3-.6-.5-.7-.3-.2-.5-.3-.9-.3s-.8.2-1 .5c-.3.2-.4.6-.5 1.2v.6c0 .6.2 1 .5 1.3.2.3.6.4 1 .4s.6 0 .9-.2c.2-.2.4-.4.5-.8v-.1h.5v.1a1.5 1.5 0 01-.8 1.3c-.3.2-.7.2-1 .2zM256.9 41l-.2-.1v-6.4-.1h.5V36.7l.7-.5a2 2 0 01.9-.2c.6 0 1 .2 1.4.6.3.4.5.9.5 1.5V40.9h-.4-.1V38c0-.5-.2-.9-.5-1.1-.2-.3-.6-.5-1-.5-.5 0-.8.2-1 .5-.3.3-.5.6-.5 1.1V41H256.9zM263.5 41c-.3 0-.6 0-.8-.2-.3 0-.5-.3-.6-.5-.2-.2-.3-.4-.3-.7 0-.4.2-.7.5-1 .4-.2.8-.4 1.4-.5l1.4-.2v-.3c0-.3 0-.6-.3-.8-.2-.2-.5-.3-1-.3l-.7.2-.4.5v.1H262.3h-.2v-.1c0-.2 0-.3.2-.5 0-.2.3-.3.5-.5a2 2 0 011-.2c.6 0 1.1.2 1.4.5.3.3.4.7.4 1.1V41h-.5V40.3l-.7.5c-.2.2-.6.2-1 .2zm.1-.5c.4 0 .8-.2 1.1-.5.3-.3.4-.7.4-1.2v-.4l-1.2.2c-.5 0-.8.2-1.1.4-.3.1-.4.3-.4.6s.1.5.4.7l.8.2zM267.5 41l-.2-.1V36.3v-.1l.2-.1H267.8V36.8l.7-.5a2 2 0 01.9-.2c.6 0 1 .2 1.4.6.3.4.5.9.5 1.5V40.9h-.4-.1V38c0-.5-.2-.9-.5-1.1-.2-.3-.6-.5-1-.5-.5 0-.8.2-1 .5-.3.3-.5.6-.5 1.1V41H267.5zM274.6 43c-.5 0-.9-.1-1.2-.3-.2-.1-.5-.3-.6-.6l-.1-.5v-.1l.2-.1h.2l.1.2c.2.6.7.8 1.4.8.5 0 .9 0 1.1-.3.3-.2.4-.6.4-1.2v-.6c-.3.5-.9.7-1.5.7-.7 0-1.2-.2-1.5-.6-.3-.5-.5-1-.5-1.6v-.5c0-.7.2-1.2.5-1.6.3-.5.8-.7 1.5-.7.6 0 1.2.3 1.5.7v-.4-.1l.2-.1H276.6v4.7c0 .7 0 1.2-.4 1.6-.3.4-.8.6-1.6.6zm0-2.5c.5 0 .9-.2 1.1-.5.3-.3.4-.7.4-1.1a3.6 3.6 0 000-.7 2 2 0 00-.4-1.2c-.2-.3-.6-.5-1-.5-.6 0-1 .2-1.2.5-.2.3-.3.8-.4 1.3v.5c0 .5.2.9.4 1.2.2.3.6.5 1.1.5zM280 41c-.5 0-1-.2-1.4-.6-.3-.3-.5-.9-.6-1.5V38c0-.6.3-1.1.6-1.5.4-.4.9-.6 1.5-.6s1.1.2 1.5.7c.3.4.5 1 .5 1.7V38.7h-3.5v.1c0 .3 0 .6.2.9l.5.6.8.2c.3 0 .6 0 .8-.2l.5-.4v-.2h.5v.2c0 .1 0 .3-.2.5a2 2 0 01-.7.4c-.2.2-.6.2-1 .2zm1.5-2.8c0-.5 0-.9-.4-1.2-.2-.3-.6-.5-1-.5-.5 0-.8.2-1.1.5-.3.3-.4.7-.4 1.2h3zM285.2 41c-.7 0-1.2-.2-1.5-.6-.3-.5-.5-1-.5-1.6v-.5c0-.7.2-1.2.5-1.6.3-.5.8-.7 1.5-.7.6 0 1.2.3 1.5.7v-2.2-.1h.5v6.5H287h-.1V40.3c-.4.5-1 .7-1.6.7zm0-.5c.5 0 .9-.2 1.1-.5.3-.3.4-.7.4-1.1a4.6 4.6 0 000-.8c0-.2 0-.5-.2-.7 0-.3-.2-.5-.5-.6-.2-.2-.5-.3-.8-.3-.5 0-.9.2-1 .5-.3.3-.4.8-.5 1.3v.2c0 .6.1 1 .4 1.4.2.4.6.6 1.1.6zM293.2 41a2 2 0 01-1.5-.6c-.4-.4-.6-.9-.6-1.5v-.8c0-.6.2-1.1.6-1.5a2 2 0 011.5-.6c.6 0 1.1.2 1.5.6.3.4.5.9.5 1.5a5.2 5.2 0 010 .8c0 .6-.2 1.1-.5 1.5a2 2 0 01-1.5.6zm0-.5c.4 0 .8-.2 1-.4.3-.3.5-.7.5-1.2a3.7 3.7 0 000-.7c0-.5-.2-1-.5-1.2-.2-.3-.6-.5-1-.5-.5 0-.8.2-1 .5-.4.3-.5.7-.5 1.2v.7c0 .5.1.9.4 1.2.3.2.6.4 1 .4zM298 41l-.3-.3-1.7-4.3v-.1-.1l.2-.1H296.5v.1l1.7 4 1.5-4 .2-.1h.4v.2l-1.7 4.4c0 .2-.2.2-.4.2h-.1zM303.1 41c-.6 0-1-.2-1.4-.6-.4-.3-.6-.9-.6-1.5V38c0-.6.2-1.1.6-1.5.3-.4.8-.6 1.4-.6.6 0 1.1.2 1.5.7.4.4.6 1 .6 1.7v.1l-.1.2h-3.5v.1l.2.9.5.6.8.2a1.6 1.6 0 001.3-.6l.1-.2h.5v.2c0 .1 0 .3-.2.5a2 2 0 01-.7.4c-.3.2-.6.2-1 .2zm1.5-2.8c0-.5-.1-.9-.4-1.2-.3-.3-.6-.5-1.1-.5-.5 0-.8.2-1 .5-.3.3-.5.7-.5 1.2h3zM306.7 41l-.2-.1V36.3v-.1l.2-.1H307V36.8c.2-.4.7-.6 1.3-.6h.5v.5H308.2c-.3 0-.6.2-.9.4-.2.2-.3.5-.3.8v3l-.2.1h-.1zM313.4 41c-.5 0-.8-.2-1-.5a2 2 0 01-.3-1.1v-2.8h-.7-.1v-.2-.2l.1-.1h.7v-1.6l.1-.1h.5V36h1.3v.5h-1.3v2.7c0 .4 0 .7.2.8.1.2.3.3.6.3h.6v.5h-.7zM315.3 35.1h-.2v-.5-.2h.7v.7h-.5zm0 5.8l-.1-.2v-4.4-.1l.2-.1H315.7V41H315.4zM317.5 41l-.1-.1V36.3v-.1l.1-.1H317.8l.1.2v.3l.6-.4.7-.2c.7 0 1.2.3 1.5.9l.6-.6c.3-.2.6-.3 1-.3.5 0 1 .2 1.2.5.4.4.5.9.5 1.5V41h-.5V38c0-.5-.2-1-.4-1.2-.2-.2-.5-.4-.9-.4-.3 0-.6.2-.9.4-.2.3-.3.7-.3 1.2v2.6l-.1.2H320.6h-.2V38c0-.5-.1-1-.4-1.2-.2-.2-.5-.4-.9-.4-.3 0-.6.2-.8.4-.3.3-.4.7-.4 1.2V41h-.4zM327.3 41c-.5 0-1-.2-1.4-.6-.3-.3-.5-.9-.6-1.5V38c0-.6.3-1.1.6-1.5.4-.4.9-.6 1.4-.6.7 0 1.2.2 1.6.7.3.4.5 1 .5 1.7V38.7h-3.5v.1c0 .3 0 .6.2.9l.5.6.7.2c.4 0 .7 0 .9-.2l.4-.4.2-.2h.4v.2c0 .1 0 .3-.2.5a2 2 0 01-.7.4c-.3.2-.6.2-1 .2zm1.5-2.8c0-.5-.1-.9-.4-1.2-.2-.3-.6-.5-1-.5-.5 0-.9.2-1.1.5-.3.3-.4.7-.4 1.2h3zM87 87.4h-.2V81v-.2H90.7v.5H87.3V84h3.2v.5h-3.2v2.9h-.4zM92 87.4H92V82.7v-.2h.4l.1.2v.4c.2-.4.7-.7 1.3-.7h.5v.5H93.6c-.4 0-.6.2-.9.4-.2.2-.3.5-.3.9v3H92zM96.9 87.5a2 2 0 01-1.5-.6c-.4-.4-.6-1-.6-1.6v-.7c0-.7.2-1.2.6-1.6a2 2 0 011.5-.6c.6 0 1.1.2 1.5.6.3.4.5 1 .5 1.6a5 5 0 010 .7c0 .7-.2 1.2-.5 1.6a2 2 0 01-1.5.6zm0-.6c.4 0 .8-.1 1-.4.3-.3.4-.7.5-1.2a4.1 4.1 0 000-.7c0-.5-.2-1-.5-1.2-.2-.3-.6-.4-1-.4-.5 0-.8.1-1.1.4-.3.3-.4.7-.4 1.2v.7c0 .5.1 1 .4 1.2.3.3.6.4 1 .4zM100.5 87.4h-.2v-4.7-.1h.5v.5l.6-.5.8-.2c.7 0 1.2.3 1.5 1 .1-.3.3-.6.6-.7.3-.2.6-.3 1-.3.5 0 .9.2 1.2.6.3.3.5.8.5 1.5V87.3h-.4-.1v-2.7c0-.6-.2-1-.4-1.3-.3-.2-.6-.3-1-.3-.3 0-.6.1-.8.4-.3.2-.4.6-.4 1.2v2.7h-.5v-2.7c0-.6-.2-1-.4-1.2-.3-.3-.6-.4-1-.4-.2 0-.5.1-.8.4-.2.2-.4.6-.4 1.1V87.3H100.5zM111.2 89.1h-.2v-6.4-.1h.5v.6c.4-.5 1-.8 1.6-.8.7 0 1.2.3 1.5.7.3.4.5 1 .5 1.5a3.6 3.6 0 010 .7c0 .6-.2 1.1-.5 1.5-.3.5-.8.7-1.5.7s-1.2-.3-1.5-.8V89l-.1.2H111.2zM113 87c.5 0 .8-.1 1-.5.3-.3.4-.7.4-1.2V85c0-.6 0-1-.3-1.5-.2-.3-.6-.5-1.1-.5-.5 0-.9.1-1.2.5a2 2 0 00-.4 1.1v.7l.2.8.5.6.9.2zM116.6 87.4h-.1V82.7v-.2h.4l.1.2v.4c.2-.4.7-.7 1.3-.7h.5v.5H118.2c-.4 0-.7.2-.9.4-.2.2-.3.5-.3.9v3h-.4zM121.4 87.5c-.6 0-1-.2-1.4-.6-.4-.4-.6-1-.6-1.6v-.7c0-.7.2-1.2.6-1.6.4-.4.8-.6 1.4-.6.7 0 1.2.3 1.5.7.4.4.6 1 .6 1.7V85.1H120v.2c0 .3 0 .5.2.8 0 .2.2.4.5.6l.7.2a1.6 1.6 0 001.3-.6l.1-.1h.5v.1c0 .1 0 .3-.2.5a2 2 0 01-.7.5l-1 .2zm1.5-2.8c0-.5-.1-1-.4-1.3-.3-.3-.6-.4-1-.4-.5 0-.9.1-1.2.4l-.3 1.2h3zM126.3 87.4c-.2 0-.3-.1-.4-.3l-1.7-4.3v-.2h.5l1.7 4 1.5-4H128.6v.2l-1.7 4.3c0 .2-.2.3-.4.3h-.1zM129.3 87.4h-.2v-.7-.1l.2-.1H129.9V87.4H129.3zM134.1 87.4h-.1l-.1-.2v-4.5-.1h.5v.5l.6-.5.8-.2c.7 0 1.2.3 1.5 1 .1-.3.3-.6.6-.7.3-.2.6-.3 1-.3.5 0 .9.2 1.2.6.3.3.5.8.5 1.5V87.3h-.4-.1v-2.7c0-.6-.2-1-.4-1.3-.3-.2-.6-.3-1-.3-.3 0-.6.1-.8.4-.3.2-.4.6-.4 1.2v2.7h-.5v-2.7c0-.6-.2-1-.4-1.2-.2-.3-.5-.4-.9-.4-.3 0-.6.1-.9.4-.2.2-.3.6-.3 1.1V87.3h-.4zM144 87.5a2 2 0 01-1.5-.6c-.4-.4-.6-1-.6-1.6v-.7c0-.7.2-1.2.6-1.6a2 2 0 011.5-.6c.6 0 1.1.2 1.5.6.3.4.5 1 .5 1.6a5 5 0 010 .7c0 .7-.2 1.2-.5 1.6a2 2 0 01-1.5.6zm0-.6c.4 0 .8-.1 1-.4.3-.3.4-.7.5-1.2a4.3 4.3 0 000-.7c0-.5-.2-1-.5-1.2-.2-.3-.6-.4-1-.4-.5 0-.8.1-1.1.4-.3.3-.4.7-.4 1.2v.7c0 .5.1 1 .4 1.2.3.3.6.4 1 .4zM147.6 87.4h-.2v-4.7-.1h.5v.6l.7-.6a2 2 0 01.9-.2c.6 0 1 .2 1.4.6.3.4.5 1 .5 1.5V87.3h-.4-.1v-2.7c0-.5-.2-1-.4-1.2-.3-.3-.6-.4-1.1-.4-.4 0-.8.1-1 .4-.3.3-.5.7-.5 1.2v2.7H147.6zM154.5 87.4c-.5 0-.8-.2-1-.4a2 2 0 01-.3-1.2v-2.7h-.7-.2v-.4-.1H153.2V81v-.2h.5v1.7h1.4v.5h-1.3v2.8l.1.8.6.2h.7v.5h-.7zM156.5 87.4h-.2V81v-.2h.5V83.2l.7-.6a2 2 0 01.9-.2c.6 0 1 .2 1.4.6.3.4.5 1 .5 1.5V87.3h-.4-.1v-2.7c0-.5-.2-1-.5-1.2-.2-.3-.5-.4-1-.4-.4 0-.8.1-1 .4-.3.3-.5.7-.5 1.2v2.7H156.5zM86.3 120.6h-.1v-.2-.2l1.5-1.4.4-.5v-.4l-.1-.6-.6-.2c-.3 0-.5 0-.6.2a1 1 0 00-.3.6v.1h-.2l-.1-.1.1-.5.4-.4c.2-.2.4-.2.7-.2.4 0 .6 0 .8.3.2.2.3.5.3.8l-.1.5-.5.6-1.2 1.3h1.8v.2h-2.2zM89.3 121V120.2l.2-.1H89.8v.2l-.2.6H89.3zM91.8 120.6l-.7-.1-.4-.4a1 1 0 01-.2-.5H90.9l.4.6.6.1c.3 0 .5 0 .7-.2l.2-.7a.8.8 0 00-.4-.8 1 1 0 00-.5 0h-.4l-.2.1-.2.1h-.2V117l.1-.1H92.9v.2h-1.6l-.1 1.3c.2-.2.4-.2.7-.2l.6.1.5.4.2.7c0 .3 0 .5-.2.7l-.5.4-.6.1zM95 120.6c-.4 0-.7-.1-1-.4l-.2-1v-.9c0-.5.1-.8.3-1.1.2-.3.5-.4 1-.4.4 0 .7.1 1 .4l.3 1a14 14 0 010 1c0 .4-.2.8-.4 1-.2.3-.5.4-1 .4zm0-.3c.4 0 .6 0 .8-.3l.2-.9a13.2 13.2 0 000-.8c0-.4 0-.7-.2-.9-.2-.2-.4-.3-.7-.3-.3 0-.6.1-.7.3-.2.2-.3.5-.3.9v.8c0 .4.1.7.3 1l.7.2zM98.4 120.6c-.4 0-.7-.1-1-.4l-.2-1v-.9c0-.5 0-.8.3-1.1.2-.3.5-.4 1-.4.4 0 .7.1 1 .4l.2 1a14.3 14.3 0 010 1c0 .4 0 .8-.3 1-.2.3-.5.4-1 .4zm0-.3c.3 0 .6 0 .7-.3.2-.2.3-.5.3-.9a13.1 13.1 0 000-.8c0-.4-.1-.7-.3-.9-.1-.2-.4-.3-.7-.3-.3 0-.5.1-.7.3l-.2.9v.8c0 .4 0 .7.2 1l.7.2zM86.3 141.6h-.1v-.2-.2l1.5-1.4.4-.5v-.4l-.1-.6-.6-.2c-.3 0-.5 0-.6.2a1 1 0 00-.3.6v.1h-.2l-.1-.1.1-.5.4-.4c.2-.2.4-.2.7-.2.4 0 .6 0 .8.3.2.2.3.5.3.8l-.1.5-.5.6-1.2 1.3h1.8v.2h-2.2zM89.3 142V141.2l.2-.1H89.8v.2l-.2.6H89.3zM91.8 141.6c-.4 0-.7-.1-1-.4l-.3-1v-.9c0-.5.2-.8.4-1.1.2-.3.5-.4 1-.4.4 0 .7.1.9.4.2.3.3.6.3 1a14 14 0 010 1c0 .4-.1.8-.3 1-.2.3-.5.4-1 .4zm0-.3c.3 0 .6 0 .7-.3.2-.2.3-.5.3-.9a13.2 13.2 0 000-.8c0-.4-.1-.7-.3-.9-.1-.2-.4-.3-.7-.3-.3 0-.5.1-.7.3l-.2.9v.8c0 .4 0 .7.2 1l.7.2zM95.2 141.6c-.4 0-.8-.1-1-.4-.2-.2-.3-.6-.3-1v-.9c0-.5.1-.8.3-1.1.2-.3.6-.4 1-.4.5 0 .8.1 1 .4.2.3.3.6.3 1a14.3 14.3 0 010 1c0 .4-.1.8-.3 1-.2.3-.5.4-1 .4zm0-.3c.3 0 .5 0 .7-.3.2-.2.2-.5.3-.9a13.1 13.1 0 000-.8c0-.4-.1-.7-.3-.9-.2-.2-.4-.3-.7-.3-.3 0-.5.1-.7.3-.2.2-.2.5-.2.9v.8c0 .4 0 .7.2 1l.7.2zM98.6 141.6c-.5 0-.8-.1-1-.4-.2-.2-.3-.6-.3-1v-.9c0-.5.1-.8.3-1.1.2-.3.5-.4 1-.4.4 0 .8.1 1 .4.1.3.3.6.3 1a14 14 0 010 1c0 .4-.2.8-.4 1-.1.3-.5.4-1 .4zm0-.3c.3 0 .5 0 .7-.3l.2-.9a13.5 13.5 0 000-.8c0-.4 0-.7-.2-.9-.2-.2-.4-.3-.7-.3-.3 0-.6.1-.7.3-.2.2-.3.5-.3.9v.8c0 .4.1.7.3 1l.7.2zM87.3 162.6V159.3l-1 .7h-.1-.1v-.2l1.1-1H87.5v3.7h-.2zM88.5 163h-.1V162.2l.2-.1h.3v.2l-.2.6h-.2zM91 162.6l-.7-.1-.5-.4a1 1 0 01-.1-.5H90c0 .3.2.5.4.6l.5.1c.3 0 .5 0 .7-.2.2-.2.3-.4.3-.7a.8.8 0 00-.5-.8 1 1 0 00-.5 0h-.3l-.3.1-.1.1H90h-.1l.1-1.8v-.1H92v.2h-1.6v1.3c.1-.2.3-.2.6-.2l.7.1.4.4c.2.2.2.4.2.7 0 .3 0 .5-.2.7 0 .2-.2.3-.4.4l-.7.1zM94.2 162.6c-.4 0-.8-.1-1-.4-.2-.2-.3-.6-.3-1v-.9c0-.5.1-.8.3-1.1.2-.3.6-.4 1-.4.5 0 .8.1 1 .4.2.3.3.6.3 1a14 14 0 010 1c0 .4-.1.8-.3 1-.2.3-.5.4-1 .4zm0-.3c.3 0 .5 0 .7-.3.2-.2.2-.5.3-.9a13.1 13.1 0 000-.8c0-.4-.1-.7-.3-.9-.2-.2-.4-.3-.7-.3-.3 0-.5.1-.7.3-.2.2-.2.5-.2.9v.8c0 .4 0 .7.2 1l.7.2zM97.6 162.6c-.5 0-.8-.1-1-.4-.2-.2-.3-.6-.3-1v-.9c0-.5.1-.8.3-1.1.2-.3.5-.4 1-.4.4 0 .8.1 1 .4.1.3.3.6.3 1a14 14 0 010 1c0 .4-.2.8-.4 1-.1.3-.5.4-1 .4zm0-.3c.3 0 .5 0 .7-.3l.2-.9a13.2 13.2 0 000-.8c0-.4 0-.7-.2-.9-.2-.2-.4-.3-.7-.3-.3 0-.6.1-.7.3-.2.2-.3.5-.3.9v.8c0 .4.1.7.3 1l.7.2zM87.3 182.6V179.3l-1 .7h-.1-.1v-.2l1.1-1H87.5v3.7h-.2zM88.5 183h-.1V182.2l.2-.1h.3v.2l-.2.6h-.2zM91 182.6c-.5 0-.8-.1-1-.4-.2-.2-.3-.6-.3-1v-.9c0-.5.1-.8.3-1.1.2-.3.5-.4 1-.4.4 0 .7.1 1 .4l.3 1a14 14 0 010 1c0 .4-.2.8-.4 1-.2.3-.5.4-1 .4zm0-.3c.3 0 .5 0 .7-.3l.2-.9a13.1 13.1 0 000-.8c0-.4 0-.7-.2-.9-.2-.2-.4-.3-.7-.3-.3 0-.6.1-.7.3-.2.2-.3.5-.3.9v.8c0 .4.1.7.3 1l.7.2zM94.3 182.6c-.4 0-.7-.1-1-.4l-.2-1v-.9c0-.5 0-.8.3-1.1.2-.3.5-.4 1-.4.4 0 .7.1 1 .4l.2 1a14 14 0 010 1c0 .4 0 .8-.3 1-.2.3-.5.4-1 .4zm0-.3c.3 0 .6 0 .7-.3.2-.2.3-.5.3-.9a13.2 13.2 0 000-.8c0-.4-.1-.7-.3-.9-.1-.2-.4-.3-.7-.3-.3 0-.5.1-.7.3l-.2.9v.8c0 .4 0 .7.2 1l.7.2zM97.7 182.6c-.4 0-.8-.1-1-.4-.2-.2-.3-.6-.3-1v-.9c0-.5.1-.8.3-1.1.2-.3.6-.4 1-.4.5 0 .8.1 1 .4.2.3.3.6.3 1a14.3 14.3 0 010 1c0 .4-.1.8-.3 1-.2.3-.5.4-1 .4zm0-.3c.3 0 .6 0 .7-.3.2-.2.3-.5.3-.9a13.1 13.1 0 000-.8c0-.4-.1-.7-.3-.9-.1-.2-.4-.3-.7-.3-.3 0-.5.1-.7.3l-.2.9v.8c0 .4 0 .7.2 1l.7.2zM87.5 203.6c-.4 0-.8-.1-1-.4-.2-.2-.3-.6-.3-1v-.9c0-.5.1-.8.3-1.1.2-.3.6-.4 1-.4.5 0 .8.1 1 .4.2.3.3.6.3 1a14 14 0 010 1c0 .4-.1.8-.3 1-.2.3-.5.4-1 .4zm0-.3c.3 0 .6 0 .7-.3.2-.2.3-.5.3-.9a13.1 13.1 0 000-.8c0-.4-.1-.7-.3-.9-.1-.2-.4-.3-.7-.3-.3 0-.5.1-.7.3l-.2.9v.8c0 .4 0 .7.2 1l.7.2zM113 224.2c-1 0-1.4-.5-1.4-1.5a16.9 16.9 0 010-.9c0-.4.1-.8.4-1 .2-.3.6-.4 1-.4s.8 0 1 .3c.3.3.4.7.4 1.1a13.4 13.4 0 010 1c0 1-.5 1.4-1.4 1.4zm0-.3c.3 0 .6 0 .8-.3.2-.2.3-.5.3-.9a17.6 17.6 0 000-.8c0-.4-.1-.7-.3-1a1 1 0 00-.8-.2 1 1 0 00-.8.3c-.2.2-.3.5-.3.9a12.2 12.2 0 000 .8c0 .4.1.7.3 1l.8.2zM116.3 224.2c-.3 0-.6 0-.8-.3-.2-.2-.3-.5-.3-1V222.7c0-.4 0-.7.3-1 .2-.2.5-.3.8-.3.3 0 .5 0 .6.2.2 0 .3.2.4.3l.1.4v.1h-.1-.1v-.1l-.4-.4a.9.9 0 00-.5-.2l-.6.3-.2.7v.4c0 .3 0 .5.2.7l.6.2.5-.1c.2 0 .3-.2.3-.4v-.1H117.5a.9.9 0 01-.5.8l-.6.1zM119.2 224.2c-.3 0-.5-.1-.6-.3l-.2-.6v-1.6h-.4l-.1-.1v-.2h.5v-1H118.8v1H119.6V221.7h-.7v2l.4.2h.3v.2h-.3zM149 224.2l-.1-.1v-3.6H149.2l2 3v-3H151.5v3.6h-.2-.1l-2-3v3h-.2zM153.6 224.2c-.4 0-.7 0-.9-.3-.2-.2-.3-.5-.3-.9v-.4c0-.4.1-.7.3-1 .2-.2.5-.3.9-.3s.7.1.9.4c.2.2.3.5.3.9a3.3 3.3 0 010 .4c0 .4-.1.7-.3.9-.2.2-.5.3-.9.3zm0-.3c.3 0 .5 0 .6-.2.2-.2.3-.4.3-.7a2.7 2.7 0 000-.4c0-.3-.1-.5-.3-.7a.8.8 0 00-.6-.3c-.2 0-.5.1-.6.3a1 1 0 00-.3.7v.4c0 .3.1.5.3.7l.6.2zM156.5 224.2c-.1 0-.2 0-.2-.2l-1-2.4v-.1-.1H155.7l1 2.4.8-2.3.1-.1h.2v.2l-1 2.4-.1.2h-.1zM186.1 224.2v-3.7h2.1l.4.6.2.8a12.2 12.2 0 010 .8c0 .4 0 .6-.2.9 0 .2-.2.3-.4.4a2 2 0 01-.9.2h-1.2zm1.2-.3c.3 0 .5 0 .7-.2l.3-.3.1-.7a11.1 11.1 0 000-.8c0-.4 0-.7-.2-.9-.2-.2-.5-.3-1-.3h-.8v3.2h.9zM190.7 224.2a1 1 0 01-.8-.3c-.2-.2-.4-.5-.4-1V222.7c0-.4.2-.7.4-1 .2-.2.4-.3.8-.3s.7.2.9.4c.2.2.3.6.3 1v.1l-.2.1h-1.9c0 .2 0 .4.2.5 0 .2.1.3.3.4l.4.1a.9.9 0 00.7-.3l.1-.1h.2v.3l-.4.3-.6.1zm.8-1.6c0-.3 0-.5-.2-.7a.8.8 0 00-.6-.3c-.3 0-.5.1-.6.3a1 1 0 00-.3.7h1.7zM193.7 224.2c-.4 0-.7 0-.9-.3-.2-.2-.3-.5-.3-1V222.7c0-.4.1-.7.3-1 .2-.2.5-.3 1-.3.1 0 .3 0 .5.2.2 0 .3.2.4.3l.1.4-.1.1h-.2v-.1c0-.2-.2-.3-.3-.4a.9.9 0 00-.5-.2c-.3 0-.5.1-.6.3-.2.1-.2.4-.3.7v.4c0 .3.1.5.3.7l.6.2.5-.1.3-.4v-.1H194.8a.8.8 0 01-.5.8l-.6.1zM224.2 224.2c-.4 0-.7 0-1-.2a1 1 0 01-.3-.9H223.2c0 .3.2.5.3.6l.7.2c.3 0 .6 0 .7-.3.2-.2.3-.5.3-.8v-2h-2l-.1-.2v-.1H225.5v2.3c0 .4-.1.8-.3 1-.3.3-.6.4-1 .4zM227.2 224.2a1 1 0 01-.5 0 1 1 0 01-.3-.4l-.1-.4c0-.2 0-.4.2-.6l.8-.2.9-.2v-.1l-.2-.5-.6-.2c-.2 0-.3 0-.4.2l-.2.2v.1h-.2-.1v-.1-.3l.4-.2.5-.2c.4 0 .7.1.8.3.2.2.3.4.3.7v1.8h-.2-.1v-.3l-.4.3-.6.1zm0-.3c.3 0 .5 0 .7-.2.2-.2.3-.5.3-.8v-.2l-.7.1-.7.2-.2.4c0 .2 0 .3.2.4l.5.1zM229.5 224.2v-2.7-.1h.2v.4l.4-.4h.5c.4 0 .7 0 .8.3.2.2.3.5.3.8v1.6h-.2-.1v-1.5c0-.3 0-.6-.2-.7l-.6-.3c-.3 0-.5.1-.6.3a1 1 0 00-.3.7v1.5h-.2zM260.4 224.2v-3.7h2.2v.2h-2v1.5h1.8l.1.1v.2h-1.8v1.6h-.2zM264.4 224.2a1 1 0 01-.9-.3c-.2-.2-.3-.5-.3-1V222.7c0-.4.1-.7.3-1 .2-.2.5-.3.9-.3.3 0 .6.2.8.4.2.2.3.6.3 1v.2h-2l.1.5c0 .2.2.3.3.4l.5.1.4-.1c.2 0 .2-.2.3-.2v-.1H265.5v.3l-.5.3-.5.1zm.8-1.6c0-.3 0-.5-.2-.7a.8.8 0 00-.6-.3c-.3 0-.5.1-.7.3a1 1 0 00-.2.7h1.7zM267.5 224.2a1 1 0 01-.9-.4v.3h-.2v-3.6-.1h.2v1.4c.3-.3.6-.5 1-.5.3 0 .6.2.8.4.2.3.3.6.3 1a1.4 1.4 0 010 .2c0 .4-.1.7-.3 1-.2.2-.5.3-.9.3zm0-.3c.3 0 .5 0 .6-.3.2-.1.3-.4.3-.7v-.1c0-.4 0-.6-.2-.8-.2-.2-.4-.4-.7-.4a.8.8 0 00-.8.5V223c0 .2 0 .4.2.6.1.2.3.3.6.3zM297.6 224.2h-.1v-3.7H297.9l1.3 2.4 1.2-2.4H300.7v3.6h-.2v-3l-1.1 2-.2.2h-.1l-.2-.1-1-2v2.9h-.2zM302.4 224.2a1 1 0 01-.5 0 1 1 0 01-.3-.4l-.2-.4.3-.6.8-.2.9-.2v-.1l-.2-.5-.6-.2c-.2 0-.3 0-.4.2l-.2.2-.1.1h-.1-.1v-.1-.3l.4-.2.5-.2c.4 0 .7.1.8.3.2.2.3.4.3.7v1.8h-.2-.1v-.3l-.4.3-.6.1zm0-.3c.3 0 .5 0 .7-.2.2-.2.3-.5.3-.8v-.2l-.7.1-.7.2c-.2.1-.2.3-.2.4 0 .2 0 .3.2.4l.5.1zM304.7 224.2l-.1-.1v-2.6l.1-.1h.1l.1.1v.3c.2-.3.4-.4.8-.4h.2V221.7h-.3c-.2 0-.4 0-.5.2l-.2.5v1.7h-.1zM334.4 224.2h-.1v-.1l1.3-3.6h.5l1.4 3.5v.1h-.2-.1l-.4-.9H335l-.3.9h-.2zm.6-1.3h1.7l-.8-2.1-.9 2.1zM338.2 225.2v-3.7-.1h.2v.4c.2-.3.5-.5 1-.5.3 0 .6.2.8.4.2.2.3.5.3.9a2.3 2.3 0 010 .4l-.3.9c-.2.2-.5.3-.9.3a1 1 0 01-.9-.4v1.3h-.2zm1.1-1.3c.3 0 .5 0 .6-.3.2-.1.2-.4.3-.7v-.1l-.2-.8c-.2-.2-.4-.4-.7-.4-.3 0-.5.1-.6.3-.2.2-.3.4-.3.7v.4l.1.4.3.4.5.1zM341.4 224.2l-.1-.1v-2.6l.1-.1h.2v.4c.1-.3.4-.4.7-.4H342.6V221.7h-.3c-.2 0-.4 0-.5.2l-.2.5v1.7h-.1zM371.9 224.2h-.1v-3.7H372.2l1.3 2.4 1.2-2.4H375v3.6h-.2-.1v-3l-1 2-.2.2h-.1l-.2-.1-1-2v2.9h-.2zM376.7 224.2a1 1 0 01-.5 0 1 1 0 01-.3-.4l-.2-.4.3-.6.8-.2.8-.2v-.1l-.1-.5-.6-.2c-.2 0-.3 0-.4.2l-.3.2v.1h-.2v-.1-.3l.4-.2.5-.2c.4 0 .7.1.8.3.2.2.3.4.3.7v1.8h-.2-.1v-.3l-.4.3-.6.1zm0-.3c.3 0 .5 0 .7-.2.2-.2.2-.5.2-.8v-.2l-.6.1-.7.2c-.2.1-.2.3-.2.4 0 .2 0 .3.2.4l.5.1zM379.3 225.2v-.1-.1l.4-1-1-2.4-.1-.1.1-.1h.2l1 2.2.9-2.1v-.1H381.2v.2l-1.6 3.5h-.2zM410 224.2c-.4 0-.7 0-1-.2a1 1 0 01-.3-.9h.2c.1.3.2.5.4.6l.7.2c.3 0 .5 0 .7-.3l.2-.8v-2h-2v-.2-.1H411.2v2.3c0 .4 0 .8-.3 1-.2.3-.5.4-1 .4zM413.2 224.2c-.3 0-.6 0-.8-.3l-.2-.9v-1.5-.1h.2l.1.1v1.5c0 .6.3 1 .8 1 .3 0 .5-.2.6-.3.2-.2.2-.4.2-.7v-1.5l.2-.1h.1v2.7h-.1-.1v-.3a1 1 0 01-.4.3l-.6.1zM415.5 224.2v-3.7-.1h.2v3.7h-.2zM235.2 87.4h-.2V81v-.2H235.6l3.4 5.3v-5.1-.2h.5v6.4h-.5l-3.4-5.3v5.2l-.1.1H235.2zM243 87.5c-.5 0-1-.2-1.4-.6-.3-.4-.5-1-.6-1.6v-.7c0-.7.3-1.2.6-1.6.4-.4.9-.6 1.5-.6s1.1.3 1.5.7c.3.4.5 1 .5 1.7V85.1h-3.5v.2c0 .3 0 .5.2.8l.5.6.8.2c.3 0 .6 0 .8-.2l.5-.4v-.1h.5v.1c0 .1 0 .3-.2.5a2 2 0 01-.7.5l-1 .2zm1.6-2.8c0-.5-.2-1-.5-1.3-.2-.3-.6-.4-1-.4-.5 0-.8.1-1.1.4-.3.4-.4.8-.4 1.2h3zM247.5 87.4h-.1l-.1-.3-1.4-4.3v-.2h.5l1.2 4 1.2-3.9a.2.2 0 01.3-.2h.2a.2.2 0 01.2.2l1.3 3.8 1-3.8.2-.1h.4v.2l-1.3 4.3v.2h-.4c-.2 0-.3 0-.3-.2l-1.2-3.6L248 87c0 .2-.1.3-.3.3h-.2zM257.7 87.4l-.3-.3-2.1-6v-.2h.5v.1l2 5.7L260 81l.2-.1H260.4v.2l-2 6c-.1.2-.3.3-.4.3h-.3zM261.7 81.5h-.1V81v-.2h.6l.1.2v.5H261.6zm.2 5.9h-.2v-4.7-.1h.5V87.3H261.9zM265.3 87.5l-1-.2-.6-.5-.2-.4v-.2h.4l.1.1.5.5.8.1c.4 0 .7 0 1-.2.2-.1.3-.4.3-.6l-.1-.4a1 1 0 00-.5-.3 8 8 0 00-1-.3c-.5 0-.9-.3-1-.5-.3-.2-.4-.5-.4-.8 0-.2 0-.5.2-.7l.6-.5a2 2 0 01.9-.2l1 .2.5.5.2.4v.1h-.4-.2c0-.2-.2-.4-.4-.5l-.7-.1c-.4 0-.7 0-.8.2l-.3.6v.4l.5.2.9.3c.6.1 1 .3 1.2.5.2.2.4.5.4.9l-.2.7-.7.5-1 .2zM268.5 81.5h-.1V81v-.2h.6l.1.2v.5H268.4zm.1 5.9h-.1v-4.7-.1h.4V87.3H268.6zM272.2 87.4c-.5 0-.8-.2-1-.4a2 2 0 01-.3-1.2v-2.7h-.7-.1l-.1-.2v-.2-.1H271V81v-.2h.5l.1.2v1.5h1.3v.5h-1.3v2.8c0 .3 0 .6.2.8l.5.2h.7v.5h-.7zM275.8 87.5a2 2 0 01-1.5-.6c-.3-.4-.5-1-.5-1.6v-.7c0-.7.2-1.2.5-1.6a2 2 0 011.5-.6c.7 0 1.2.2 1.5.6.4.4.6 1 .6 1.6a5.2 5.2 0 010 .7c0 .7-.2 1.2-.6 1.6a2 2 0 01-1.5.6zm0-.6c.5 0 .8-.1 1-.4.3-.3.5-.7.5-1.2a4.1 4.1 0 000-.7c0-.5-.2-1-.4-1.2-.3-.3-.6-.4-1-.4-.5 0-.9.1-1.2.4-.2.3-.4.7-.4 1.2v.7c0 .5.2 1 .4 1.2.3.3.7.4 1.1.4zM279.4 87.4h-.1V82.7v-.2h.4V83.2c.3-.4.7-.7 1.4-.7h.4l.1.2V83H281c-.4 0-.7.2-.9.4-.2.2-.3.5-.3.9v3h-.4zM295.2 87.4h-.2V81v-.2H297.4c.6 0 1.1.1 1.5.4.4.4.6.8.6 1.4 0 .5-.1 1-.4 1.2-.2.3-.6.5-1 .6l1.5 2.6v.2h-.5l-.1-.2-1.5-2.5h-2v2.7H295.2zm2.1-3.3c.5 0 1-.1 1.2-.4.3-.2.4-.5.4-1 0-.4-.1-.7-.4-1-.3-.2-.7-.3-1.2-.3h-1.7v2.7h1.7zM302.6 87.5c-.6 0-1-.2-1.4-.6-.4-.4-.6-1-.6-1.6v-.7c0-.7.2-1.2.6-1.6.3-.4.8-.6 1.4-.6.7 0 1.2.3 1.5.7.4.4.6 1 .6 1.7v.2l-.1.1h-3.5v.2l.2.8.6.6.7.2c.4 0 .6 0 .8-.2.3-.1.4-.2.5-.4l.1-.1h.5v.1c0 .1 0 .3-.2.5a2 2 0 01-.7.5l-1 .2zm1.5-2.8c0-.5-.1-1-.4-1.3-.3-.3-.6-.4-1-.4-.5 0-.9.1-1.2.4-.2.4-.4.8-.4 1.2h3zM307.5 87.4c-.4 0-.7-.2-1-.4a2 2 0 01-.2-1.2v-2.7H305.4v-.4-.1H306.3V81v-.2h.5v1.7h1.4v.5h-1.3v2.8l.1.8.6.2h.6l.1.2V87.3h-.8zM311.1 87.5c-.6 0-1-.2-1.3-.6-.4-.4-.5-.9-.5-1.5v-2.7-.1h.5v2.7c0 1 .5 1.6 1.4 1.6.5 0 .8-.1 1.1-.4.3-.3.4-.7.4-1.2v-2.6-.1h.5V87.3H313h-.1l-.1-.1v-.5a2 2 0 01-.6.6 2 2 0 01-1 .2zM315 87.4h-.1V82.7v-.2h.4l.1.2v.4c.2-.4.6-.7 1.3-.7h.5v.5H316.6c-.4 0-.7.2-.9.4-.2.2-.3.5-.3.9v3h-.4zM318.3 87.4h-.1v-4.7-.1h.4l.1.1v.5l.6-.6a2 2 0 011-.2c.6 0 1 .2 1.4.6.3.4.5 1 .5 1.5v2.7l-.1.1H321.8h-.2v-2.7c0-.5-.1-1-.4-1.2-.2-.3-.6-.4-1-.4-.5 0-.8.1-1.1.4-.3.3-.4.7-.4 1.2v2.7h-.4zM323.8 81.5h-.2V81v-.2h.7v.7h-.5zm0 5.9l-.1-.2v-4.5-.1h.5V87.3H323.9zM326 87.4h-.1v-4.7-.1h.4v.6l.7-.6a2 2 0 011-.2c.6 0 1 .2 1.4.6.3.4.4 1 .4 1.5V87.3H329.5h-.2v-2.7c0-.5-.1-1-.4-1.2-.2-.3-.6-.4-1-.4-.5 0-.8.1-1.1.4-.3.3-.4.7-.4 1.2v2.7h-.4zM333.2 89.4c-.5 0-.9 0-1.2-.2l-.6-.6-.2-.6V88h.5v.1c.3.6.7.9 1.4.9.6 0 1-.1 1.2-.4.3-.2.4-.6.4-1.1v-.7c-.4.5-.9.8-1.6.8-.6 0-1.1-.3-1.5-.7-.3-.4-.4-1-.5-1.6v-.5c0-.6.2-1.2.5-1.6.4-.4.9-.7 1.5-.7.7 0 1.2.3 1.6.8v-.4-.2h.5v4.7c0 .6-.1 1.2-.4 1.5-.3.4-.9.6-1.6.6zm0-2.5c.5 0 .8-.1 1-.5.3-.3.5-.7.5-1.1a4 4 0 000-.7 2 2 0 00-.4-1.1c-.3-.4-.6-.5-1.1-.5-.5 0-.9.1-1.1.5-.2.3-.4.7-.4 1.2v.5c0 .5.2 1 .4 1.2.2.4.6.5 1 .5zM341.1 87.4l-.3-.3-2.1-6v-.2h.4l.1.1 2 5.7 2-5.7h.2v-.1h.4v.2l-2.1 6c0 .2-.2.3-.3.3h-.3zM345.1 81.5h-.1V81v-.2h.6l.1.2v.5H345zm.1 5.9h-.1v-4.7-.1h.5V87.3h-.4zM348.7 87.5l-1-.2-.6-.5-.2-.4v-.2h.4l.1.1.5.5.8.1c.4 0 .7 0 1-.2.2-.1.3-.4.3-.6 0-.2 0-.3-.2-.4a1 1 0 00-.4-.3 8 8 0 00-1-.3c-.5 0-.9-.3-1.1-.5a1.2 1.2 0 01-.1-1.5l.6-.5a2 2 0 01.9-.2l.9.2.6.5.2.4v.1h-.4-.2l-.4-.5-.7-.1c-.4 0-.7 0-.9.2l-.2.6v.4l.5.2.9.3c.6.1 1 .3 1.2.5.2.2.4.5.4.9 0 .2-.1.5-.3.7-.1.2-.3.4-.6.5l-1 .2zM352 81.5h-.2V81v-.2h.6v.7h-.5zm0 5.9h-.1v-4.7-.1h.4V87.3H352zM355.6 87.4c-.5 0-.8-.2-1-.4a2 2 0 01-.3-1.2v-2.7h-.7-.2v-.4-.1H354.3V81v-.2h.5v1.7h1.4v.5h-1.3v2.8c0 .3 0 .6.2.8l.5.2h.7v.5h-.7zM359.2 87.5a2 2 0 01-1.5-.6c-.3-.4-.5-1-.6-1.6v-.7c0-.7.3-1.2.6-1.6a2 2 0 011.5-.6c.7 0 1.2.2 1.5.6.4.4.6 1 .6 1.6a5.2 5.2 0 010 .7c0 .7-.2 1.2-.6 1.6a2 2 0 01-1.5.6zm0-.6c.4 0 .8-.1 1-.4.3-.3.5-.7.5-1.2a4.3 4.3 0 000-.7c0-.5-.2-1-.4-1.2-.3-.3-.7-.4-1-.4-.5 0-.9.1-1.2.4-.2.3-.4.7-.4 1.2v.7c0 .5.2 1 .4 1.2.3.3.7.4 1.1.4zM362.8 87.4h-.1V82.7v-.2h.4V83.2c.3-.4.7-.7 1.3-.7h.5l.1.2V83H364.3c-.4 0-.7.2-.9.4-.2.2-.3.5-.3.9v3h-.4zM381.2 87.5c-.8 0-1.4-.3-1.8-.7-.5-.5-.7-1-.7-1.8a30.5 30.5 0 010-1.8c0-.7.2-1.3.7-1.8.4-.4 1-.6 1.8-.6.5 0 1 0 1.3.3l.8.7c.2.2.3.5.3.7v.1h-.4-.2v-.1c-.1-.3-.3-.6-.6-.8a2 2 0 00-1.2-.4 2 2 0 00-1.4.5c-.3.3-.5.8-.5 1.5a28.3 28.3 0 000 1.7c0 .6.2 1.1.5 1.4.3.3.8.5 1.4.5.5 0 1-.2 1.3-.5.4-.3.6-.8.6-1.4v-.5h-1.8V84 84H383.6v1c0 .4 0 .9-.2 1.3-.2.3-.5.6-.9.8-.4.3-.8.4-1.3.4zM385.2 87.4h-.1V82.7v-.2h.4l.1.2v.4c.2-.4.7-.7 1.3-.7h.5v.5H386.8c-.4 0-.7.2-.9.4-.2.2-.3.5-.3.9v3h-.4zM390 87.5a2 2 0 01-1.4-.6c-.4-.4-.6-1-.6-1.6v-.7c0-.7.2-1.2.6-1.6a2 2 0 011.5-.6c.6 0 1.1.2 1.5.6.3.4.5 1 .5 1.6a5.2 5.2 0 010 .7c0 .7-.2 1.2-.5 1.6a2 2 0 01-1.5.6zm0-.6c.5 0 .9-.1 1.1-.4.3-.3.4-.7.5-1.2a3.7 3.7 0 000-.7c0-.5-.2-1-.5-1.2-.2-.3-.6-.4-1-.4-.5 0-.8.1-1.1.4-.3.3-.4.7-.4 1.2v.7c0 .5.1 1 .4 1.2.3.3.6.4 1 .4zM394.6 87.4h-.2V87l-1.4-4.3v-.2h.5l1.2 4 1.2-3.9.1-.1h.5l.1.1 1.2 3.8 1.2-3.8v-.1h.5v.2l-1.3 4.3-.1.2h-.4c-.1 0-.2 0-.3-.2l-1.1-3.6L395 87c0 .2-.2.3-.3.3h-.2zM402.4 87.4c-.5 0-.8-.2-1-.4a2 2 0 01-.3-1.2v-2.7h-.7-.2v-.4-.1H401.1V81v-.2h.5v1.7h1.4v.5h-1.3v2.8l.1.8.6.2h.7v.5h-.7zM404.4 87.4h-.2V81v-.2h.5V83.2l.7-.6a2 2 0 01.9-.2c.6 0 1 .2 1.4.6.3.4.5 1 .5 1.5V87.3h-.4-.1v-2.7c0-.5-.2-1-.5-1.2-.2-.3-.6-.4-1-.4-.5 0-.8.1-1 .4-.3.3-.5.7-.5 1.2v2.7H404.4zM412.5 87.4h-.2V81v-.2H414.7c.6 0 1.2.1 1.5.4.4.4.6.8.6 1.4 0 .5-.1 1-.4 1.2-.2.3-.6.5-1 .6l1.5 2.6v.2h-.5l-.1-.2-1.5-2.5h-2v2.7H412.5zm2.1-3.3c.6 0 1-.1 1.2-.4.3-.2.4-.5.4-1 0-.4-.1-.7-.4-1-.2-.2-.6-.3-1.2-.3H413v2.7h1.7zM419.5 87.5l-.8-.2-.7-.5-.2-.7c0-.4.2-.8.5-1 .3-.3.8-.5 1.4-.5l1.4-.2V84c0-.3 0-.6-.3-.7-.2-.2-.5-.3-1-.3-.3 0-.5 0-.7.2-.2 0-.3.2-.4.4v.2h-.5v-.2l.1-.5.6-.5a2 2 0 011-.2c.6 0 1.1.2 1.4.5.3.3.4.7.4 1.2v3.2h-.4-.1v-.6l-.7.5c-.2.2-.6.3-1 .3zm0-.6c.5 0 .9-.1 1.2-.4.3-.3.4-.7.4-1.3v-.3l-1.2.1c-.5.1-.9.2-1.1.4-.3.2-.4.4-.4.6 0 .3.1.5.3.7l.9.2zM424.8 87.4c-.4 0-.8-.2-1-.4a2 2 0 01-.3-1.2v-2.7h-.7-.1v-.4-.1h.9V81v-.2h.5v1.7h1.3v.5h-1.3v2.8c0 .3 0 .6.2.8l.6.2h.6v.5h-.7zM428.4 87.5c-.6 0-1-.2-1.4-.6-.4-.4-.6-1-.6-1.6v-.7c0-.7.2-1.2.6-1.6.3-.4.8-.6 1.4-.6.6 0 1.1.3 1.5.7.4.4.5 1 .5 1.7V85.1h-3.5v.2l.2.8.5.6.8.2c.3 0 .6 0 .8-.2l.5-.4.1-.1h.4l.1.1c0 .1 0 .3-.2.5a2 2 0 01-.7.5l-1 .2zm1.5-2.8c0-.5-.2-1-.4-1.3-.3-.3-.7-.4-1.1-.4-.5 0-.8.1-1 .4-.3.4-.5.8-.5 1.2h3z" fill="#183B56"></path>
  <path d="M100.6 71.4c-.9 0-1.5-.2-2.1-.4-.6-.3-1-.6-1.3-1a2.6 2.6 0 010-2.7c.2-.4.5-.7.9-.9a2 2 0 01-.7-.7c-.2-.3-.3-.6-.3-1 0-.5.1-1 .4-1.3.3-.4.6-.8 1.2-1 .5-.2 1.1-.3 1.9-.3 1 0 2 .2 2.5.7.6.5.9 1 .9 1.9a2 2 0 01-1 1.7c.5.2.8.5 1 .9.2.3.4.8.4 1.2 0 .6-.2 1-.5 1.5-.3.4-.7.7-1.3 1-.5.2-1.2.4-2 .4zm0-5.6c.3 0 .7-.1.9-.3.2-.2.4-.4.4-.7 0-.3-.2-.6-.4-.8-.2-.2-.6-.3-1-.3l-.9.3c-.2.2-.3.5-.3.8 0 .3.1.5.3.7.3.2.6.3 1 .3zm0 4c.4 0 .7-.2 1-.4.3-.2.4-.5.4-.9a1 1 0 00-.4-.8c-.3-.2-.6-.3-1-.3s-.8 0-1 .3a1 1 0 00-.5.8c0 .4.1.7.4.9.3.2.7.3 1 .3zM106 71.2h-.3V69.2 69h2.1l.1.3V71l-.3.1H106zM109.5 71.2h-.2l-.1-.3v-1c0-.2 0-.4.3-.5l1.3-1.4a66.2 66.2 0 002.7-2.3c.2-.2.3-.5.3-.8 0-.6-.3-1-1-1-.3 0-.6.1-.8.4-.2.2-.3.4-.3.7 0 .2-.2.3-.5.3h-1.6-.2V65a3 3 0 011.6-2.6 4 4 0 011.8-.4c.8 0 1.4 0 1.9.3.5.2.9.6 1.2 1 .2.4.4.9.4 1.4 0 .6-.2 1.2-.6 1.7L114 68l-1.2 1.2H116.4v1.8l-.3.1h-6.6zM119.3 71.2h-.2a.3.3 0 010-.4l1.8-2.5h-.3c-.6 0-1-.2-1.5-.4-.5-.3-.9-.6-1.2-1-.3-.5-.4-1-.4-1.6a3.1 3.1 0 011.6-2.8c.6-.3 1.3-.4 2-.4.8 0 1.5.1 2 .4.7.3 1 .7 1.4 1.1.3.5.4 1 .4 1.6 0 .5 0 1-.3 1.3a9.6 9.6 0 01-1 1.6l-2 2.9-.6.2h-1.7zm1.9-4.6c.4 0 .7 0 1-.3.2-.3.3-.6.3-1s0-.7-.4-1c-.2-.2-.5-.4-1-.4-.3 0-.6.2-1 .4-.2.3-.3.6-.3 1a1.3 1.3 0 001.4 1.3zM127.9 66.8a2 2 0 01-1.4-.5c-.4-.3-.6-.7-.6-1.2a9.4 9.4 0 010-1.2c0-.6.2-1 .5-1.3a2 2 0 011.5-.4c.6 0 1 .1 1.4.4.3.3.5.7.5 1.3a18 18 0 010 1.2c0 .5-.2.9-.5 1.2a2 2 0 01-1.4.5zm-1 4.4h-.3V71v-.2l6.4-8.3.1-.2H134.5l.1.2v.1l-6.4 8.4-.2.2h-1.2zm1-5.6c.3 0 .5-.2.6-.6a11.5 11.5 0 000-1l-.2-.5-.4-.2c-.2 0-.4 0-.5.2l-.1.4a8.6 8.6 0 000 1.1c0 .4.2.6.6.6zm5.4 5.7a2 2 0 01-1.4-.5c-.3-.3-.5-.7-.6-1.2a10.2 10.2 0 010-1.2c0-.6.3-1 .6-1.3a2 2 0 011.4-.4c.6 0 1 .1 1.4.4.4.3.6.7.6 1.3a16 16 0 010 1.2c0 .5-.2 1-.6 1.2a2 2 0 01-1.4.5zm0-1.1l.4-.2.2-.5a8.8 8.8 0 000-1c0-.2 0-.4-.2-.5l-.4-.2c-.2 0-.3 0-.4.2l-.2.4a7.7 7.7 0 000 1.1c0 .2 0 .4.2.5l.4.2z" fill="#1565D8"></path>
  <path d="M236 71.2h-.3v-.3l3-6.7h-4l-.1-.1-.1-.3v-1.3-.2h6.5l.1.2v1.2l-.1.6-3 6.6c0 .2-.2.3-.4.3h-1.7zM245.7 71.4a5 5 0 01-2-.4 3 3 0 01-1.3-1c-.3-.4-.4-.8-.4-1.3a.3.3 0 01.2-.3h1.8c.2 0 .3 0 .4.3.2.5.6.8 1.3.8.3 0 .7-.1 1-.3.2-.3.3-.6.3-1s-.1-.7-.4-1c-.2-.2-.5-.3-1-.3a1.4 1.4 0 00-.9.3l-.3.2h-1.7l-.2-.1v-.2l.4-4.5.1-.3h5.7l.1.2v1.3l-.1.2h-4l-.1 1.7.7-.3a3.6 3.6 0 012.5.3 2.8 2.8 0 011.6 2.5 3 3 0 01-.5 1.7 3 3 0 01-1.3 1c-.5.3-1.2.5-2 .5zM254.3 71.4c-1.2 0-2-.4-2.7-1-.6-.6-1-1.4-1-2.4a34.1 34.1 0 010-2.6c0-.6.2-1.2.5-1.7a3 3 0 011.2-1.2 4 4 0 012-.4c1.1 0 2 .3 2.7 1 .6.5 1 1.4 1 2.3a36.6 36.6 0 010 2.6c0 1-.4 1.8-1 2.4-.6.6-1.5 1-2.7 1zm0-2c.4 0 .7 0 1-.3.1-.3.3-.7.3-1.2a19.6 19.6 0 000-2.4 2 2 0 00-.4-1.1c-.2-.3-.5-.5-1-.5-.3 0-.6.2-.9.5a2 2 0 00-.3 1.1 38.9 38.9 0 000 2.4c0 1 .5 1.6 1.3 1.6zM297.7 71.2h-.3V64.7l-1.8 1.3-.2.1-.3-.1-.7-1v-.2-.3l3-2.3h2.2V71.1l-.3.1h-1.6zM301.2 72.2l-.1-.1-.1-.2.4-2.5.1-.3.4-.2h1.5l.1.1.1.2v.1l-1 2.5c0 .1 0 .2-.2.3h-1.2zM308.3 71.4a5 5 0 01-2-.4 3 3 0 01-1.2-1c-.3-.4-.4-.8-.5-1.3l.1-.2h1.9c.2 0 .4 0 .5.2.2.5.6.8 1.3.8l.9-.3c.3-.3.4-.6.4-1s-.1-.7-.4-1c-.2-.2-.6-.3-1-.3a1.4 1.4 0 00-.9.3l-.3.2h-1.7l-.2-.1-.1-.2.5-4.5v-.3h5.8V64h-4l-.2 1.7.8-.3a3.6 3.6 0 012.5.3 2.8 2.8 0 011.6 2.5 3 3 0 01-.5 1.7 3 3 0 01-1.3 1c-.5.3-1.2.5-2 .5zM317 71.4c-1.2 0-2.1-.4-2.7-1-.6-.6-1-1.4-1-2.4a34 34 0 010-2.6c0-.6.2-1.2.5-1.7a3 3 0 011.2-1.2 4 4 0 012-.4c1.1 0 2 .3 2.6 1 .7.5 1 1.4 1 2.3a36.3 36.3 0 010 2.6c0 1-.3 1.8-1 2.4-.6.6-1.4 1-2.6 1zm0-2c.4 0 .7 0 1-.3l.3-1.2a19.6 19.6 0 000-2.4 2 2 0 00-.4-1.1c-.2-.3-.5-.5-1-.5-.4 0-.7.2-.9.5a2 2 0 00-.3 1.1 38 38 0 000 2.4c0 1 .5 1.6 1.3 1.6zM325.8 71.4c-1.2 0-2.1-.4-2.7-1-.6-.6-1-1.4-1-2.4a34.1 34.1 0 010-2.6c0-.6.2-1.2.5-1.7a3 3 0 011.2-1.2 4 4 0 012-.4c1.1 0 2 .3 2.7 1 .6.5 1 1.4 1 2.3a36.6 36.6 0 010 2.6c0 1-.4 1.8-1 2.4-.6.6-1.5 1-2.7 1zm0-2c.4 0 .7 0 1-.3l.3-1.2a18.8 18.8 0 000-2.4 2 2 0 00-.4-1.1c-.2-.3-.5-.5-1-.5-.3 0-.7.2-.9.5a2 2 0 00-.3 1.1 35 35 0 000 2.4c0 1 .5 1.6 1.3 1.6zM382.4 71.4c-.8 0-1.5-.2-2-.4-.7-.3-1-.6-1.4-1a2.6 2.6 0 010-2.7c.2-.4.5-.7.9-.9a2 2 0 01-.7-.7c-.2-.3-.3-.6-.3-1 0-.5.2-1 .4-1.3.3-.4.7-.8 1.2-1 .5-.2 1.1-.3 1.9-.3 1.1 0 2 .2 2.5.7.6.5 1 1 1 1.9a2 2 0 01-1 1.7c.4.2.7.5 1 .9.2.3.3.8.3 1.2 0 .6-.2 1-.4 1.5-.3.4-.8.7-1.3 1-.6.2-1.3.4-2.1.4zm0-5.6c.4 0 .7-.1 1-.3.2-.2.3-.4.3-.7 0-.3-.1-.6-.4-.8-.2-.2-.5-.3-.9-.3s-.7.1-1 .3c-.2.2-.3.5-.3.8 0 .3.1.5.4.7.2.2.5.3.9.3zm0 4c.4 0 .8-.2 1-.4.3-.2.5-.5.5-.9a1 1 0 00-.5-.8c-.2-.2-.6-.3-1-.3s-.8 0-1 .3a1 1 0 00-.5.8c0 .4.2.7.4.9.3.2.7.3 1.1.3zM387.8 71.2h-.3V69.2 69h2.1l.1.3V71l-.3.1h-1.6zM391.3 71.2h-.2v-1.3c0-.2 0-.4.2-.5l1.4-1.4a66.5 66.5 0 002.7-2.3c.2-.2.3-.5.3-.8 0-.6-.4-1-1-1-.4 0-.7.1-.8.4-.2.2-.4.4-.4.7 0 .2-.2.3-.5.3h-1.6-.2V65a3 3 0 011.6-2.6 4 4 0 011.9-.4c.7 0 1.3 0 1.8.3.5.2 1 .6 1.2 1 .3.4.4.9.4 1.4 0 .6-.2 1.2-.6 1.7-.3.5-1 1-1.7 1.6l-1.2 1.2H398.2v1.8l-.3.1h-6.6zM401.2 71.2h-.2a.3.3 0 010-.4l1.8-2.5h-.4c-.6 0-1-.2-1.5-.4-.5-.3-.9-.6-1.2-1-.3-.5-.4-1-.4-1.6a3.1 3.1 0 011.7-2.8c.5-.3 1.2-.4 2-.4s1.4.1 2 .4c.6.3 1 .7 1.3 1.1.3.5.4 1 .4 1.6 0 .5 0 1-.3 1.3a9.7 9.7 0 01-1 1.6l-2 2.9-.5.2h-1.7zm1.8-4.6c.4 0 .7 0 1-.3.2-.3.4-.6.4-1s-.2-.7-.4-1c-.3-.2-.6-.4-1-.4s-.7.2-1 .4c-.2.3-.4.6-.4 1s.2.7.4 1c.3.2.6.3 1 .3zM409.7 66.8a2 2 0 01-1.4-.5c-.4-.3-.5-.7-.6-1.2a9.7 9.7 0 010-1.2c0-.6.2-1 .6-1.3a2 2 0 011.4-.4c.6 0 1 .1 1.4.4.4.3.5.7.6 1.3a18 18 0 010 1.2c0 .5-.3.9-.6 1.2a2 2 0 01-1.4.5zm-1 4.4h-.2l-.1-.2v-.2l6.4-8.3.2-.2h1.3l.1.2v.1L410 71l-.2.2h-1.2zm1-5.6c.4 0 .6-.2.6-.6a10.2 10.2 0 000-1c0-.2 0-.4-.2-.5l-.4-.2c-.2 0-.3 0-.4.2l-.2.4a7.7 7.7 0 000 1.1c0 .4.2.6.6.6zm5.4 5.7a2 2 0 01-1.4-.5c-.3-.3-.5-.7-.5-1.2a10.2 10.2 0 010-1.2c0-.6.2-1 .5-1.3a2 2 0 011.4-.4c.6 0 1.1.1 1.5.4.3.3.5.7.5 1.3a17.3 17.3 0 010 1.2c0 .5-.2 1-.6 1.2a2 2 0 01-1.4.5zm0-1.1l.5-.2.1-.5a9.4 9.4 0 000-1l-.1-.5-.5-.2c-.2 0-.3 0-.4.2l-.2.4a7.7 7.7 0 000 1.1l.2.5.4.2z" fill="#183B56"></path>
  <path d="M347.3 23.2c0-1.8 1.5-3.2 3.2-3.2h78.3c1.7 0 3.2 1.4 3.2 3.2v17.9c0 1.8-1.5 3.2-3.2 3.2h-78.3a3.2 3.2 0 01-3.2-3.2V23.2z" fill="#fff"></path>
  <path d="M376.1 36c-.8 0-1.4-.2-1.8-.7-.4-.4-.6-1-.6-1.8a22.4 22.4 0 010-1.6c0-.8.2-1.4.6-1.9.4-.4 1-.7 1.8-.7.6 0 1 .1 1.4.3.4.2.6.5.8.8.2.3.3.6.3 1l-.2.1h-.2s-.2 0-.2-.2c-.1-.5-.3-.9-.6-1-.3-.3-.7-.4-1.3-.4-.6 0-1 .2-1.3.5-.4.3-.5.8-.6 1.5a20.6 20.6 0 000 1.6c0 .6.2 1.1.6 1.5.3.3.7.5 1.3.5.6 0 1-.1 1.3-.4.3-.2.5-.5.6-1 0-.2.1-.3.2-.3H378.5l.1.2a2.1 2.1 0 01-1.1 1.7c-.4.2-.8.3-1.4.3zM381.7 36c-.6 0-1-.2-1.3-.6-.4-.3-.5-.8-.5-1.5v-2.6-.1l.2-.1H380.4V34c0 1 .5 1.6 1.4 1.6.5 0 .8-.2 1-.4.4-.3.5-.7.5-1.2v-2.6-.1l.2-.1H383.8V36H383.5h-.2V35.3a2 2 0 01-.7.5 2 2 0 01-.9.2zM387 36c-.4 0-.8 0-1-.2l-.7-.4-.2-.5.2-.1h.4c.1.3.3.4.5.5l.8.2c.3 0 .7 0 .9-.2.2-.2.3-.4.3-.7l-.1-.4a1 1 0 00-.5-.2 8 8 0 00-1-.3c-.5-.1-.8-.3-1-.5-.3-.2-.3-.5-.3-.8l.1-.7.6-.5a2 2 0 011-.2c.3 0 .6 0 .9.2l.5.4.2.4v.2h-.5c-.1-.3-.3-.4-.5-.5l-.7-.2c-.3 0-.6.1-.8.3-.2.1-.3.3-.3.6l.1.3.4.3 1 .3c.5 0 1 .3 1.2.5.2.2.3.5.3.8 0 .3 0 .5-.2.7l-.6.5c-.3.2-.6.2-1 .2zM391.7 36c-.5 0-.8-.2-1-.5a2 2 0 01-.3-1.1v-2.8h-.7-.1l-.1-.2v-.2l.2-.1h.7v-1.6-.1h.5l.1.1v1.6h1.3v.5H391v2.7c0 .4 0 .7.2.8 0 .2.3.3.5.3h.7v.5h-.7zM395.3 36a2 2 0 01-1.5-.6c-.3-.4-.5-.9-.5-1.5v-.8c0-.6.2-1.1.5-1.5a2 2 0 011.5-.6c.7 0 1.2.2 1.5.6.4.4.6.9.6 1.5a5.2 5.2 0 010 .8c0 .6-.2 1.1-.6 1.5a2 2 0 01-1.5.6zm0-.5c.5 0 .8-.2 1-.4.3-.3.5-.7.5-1.2a4.3 4.3 0 000-.7c0-.5-.2-1-.4-1.2-.3-.3-.6-.5-1-.5-.5 0-.9.2-1.1.5-.3.3-.5.7-.5 1.2v.7c0 .5.2.9.4 1.2.3.2.7.4 1.1.4zM399 36l-.2-.1V31.3v-.1l.1-.1H399.2l.1.2v.3l.6-.4.7-.2c.7 0 1.2.3 1.5.9l.6-.6c.3-.2.6-.3 1-.3.5 0 1 .2 1.2.5.4.4.5.9.5 1.5V36h-.5V33c0-.5-.2-1-.4-1.2-.2-.2-.5-.4-.9-.4-.3 0-.6.2-.9.4-.2.3-.3.7-.3 1.2V36h-.4-.2V33c0-.5-.1-1-.4-1.2-.2-.2-.5-.4-.9-.4-.3 0-.6.2-.8.4-.3.3-.4.7-.4 1.2V36h-.4zM408.7 36c-.5 0-1-.2-1.4-.6-.3-.3-.5-.9-.6-1.5V33c0-.6.3-1.1.6-1.5.4-.4.9-.6 1.4-.6.7 0 1.2.2 1.6.7.3.4.5 1 .5 1.7V33.7h-3.5v.1c0 .3 0 .6.2.9l.5.6.7.2c.4 0 .7 0 .9-.2l.4-.4.2-.2h.4v.2c0 .1 0 .3-.2.5a2 2 0 01-.7.4c-.3.2-.6.2-1 .2zm1.5-2.8c0-.5-.1-.9-.4-1.2-.2-.3-.6-.5-1-.5-.5 0-.9.2-1.1.5-.3.3-.4.7-.4 1.2h3zM412.3 36l-.1-.1-.1-.2v-4.4-.1l.2-.1H412.6V31.8c.3-.4.7-.6 1.3-.6h.5v.5h-.5c-.4 0-.7.1-1 .4l-.2.8v3h-.1l-.2.1h-.1zM417 36c-.5 0-.8 0-1-.2-.4-.1-.6-.3-.7-.4-.2-.2-.2-.4-.2-.5l.2-.1H415.6l.5.5.8.2c.4 0 .7 0 1-.2.2-.2.3-.4.3-.7l-.1-.4a1 1 0 00-.5-.2l-1-.3c-.5-.1-.9-.3-1-.5-.3-.2-.4-.5-.4-.8 0-.3 0-.5.2-.7.1-.2.3-.4.6-.5a2 2 0 01.9-.2c.4 0 .7 0 1 .2l.5.4.2.4v.2h-.4-.2c0-.3-.2-.4-.4-.5l-.7-.2c-.4 0-.6.1-.8.3-.2.1-.3.3-.3.6l.1.3.4.3 1 .3c.5 0 .9.3 1.1.5.3.2.4.5.4.8l-.2.7-.7.5c-.2.2-.6.2-1 .2z" fill="#183B56"></path>
  <path d="M355.5 26.4H368v11.8h-12.5V26.4z" fill="#00B8D9"></path>
  <path d="M86.6 71l2.9-3.8 3.2 3.9h-6.2zM130.9 142.9h5v62.8h-5V143zM166.2 128.2h5v77.5h-5v-77.5zM201.6 132.9h5v72.8h-5V133zM237 132.9h5v72.8h-5V133zM272.3 128.2h5v77.5h-5v-77.5zM307.7 125.7h5v80h-5v-80zM378.4 132.9h5v72.8h-5V133zM413.8 120.7h5v85h-5v-85zM343 164.7h5v41h-5v-41z" fill="#1565D8"></path>
  <g filter="url(#filter0_d)">
    <path d="M23 186.5c0-2 1.6-3.6 3.6-3.6h186c2 0 3.6 1.6 3.6 3.6v126.4c0 2-1.6 3.6-3.5 3.6H26.6c-2 0-3.6-1.6-3.6-3.6V186.5z" fill="#fff"></path>
  </g>
  <path d="M154.4 244.7a2.1 2.1 0 010 4.3H71a2.1 2.1 0 010-4.3h83.5z" fill="#1565D8"></path>
  <path d="M141.2 251.8a2.1 2.1 0 010 4.3H71a2.1 2.1 0 010-4.3h70.3z" fill="#00B7D8"></path>
  <path d="M154.4 261.8a2.1 2.1 0 010 4.3H71a2.1 2.1 0 110-4.3h83.5z" fill="#1565D8"></path>
  <path d="M141.2 269a2.1 2.1 0 010 4.3H71a2.1 2.1 0 110-4.3h70.3z" fill="#00B7D8"></path>
  <path d="M154.4 278.6a2.1 2.1 0 010 4.3H71a2.1 2.1 0 110-4.3h83.5z" fill="#1565D8"></path>
  <path d="M141.2 285.8a2.1 2.1 0 010 4.2H71a2.1 2.1 0 110-4.2h70.3z" fill="#00B7D8"></path>
  <path d="M43.4 252.1l-.1-.1v-3.2l-1 .7h-.1l-.1-.1v-.1l1.2-1H43.6V252.2h-.2zM45.7 252.2c-.3 0-.5 0-.7-.2a1 1 0 01-.4-.3.8.8 0 01-.2-.5H44.7c0 .3.2.4.4.5l.6.1c.3 0 .5 0 .7-.2l.2-.6c0-.4-.3-.7-.9-.7h-.4-.1v-.1-.2l1-1.3h-1.5-.1v-.2-.1h2.2v.2l-1.2 1.4h.1c.4 0 .7 0 1 .3l.2.7-.1.6a1 1 0 01-.5.4l-.6.2zM47.8 250.7l-.1-.2v-.1H49.5v.2H47.8zM51.2 252.1V248.8l-1 .7H50 50v-.1-.1l1.1-1H51.4V252.2h-.2zM52.8 252.1h-.1v-.1l1.4-3.3h-1.9v-.2-.1h2.2v.4L53 252l-.1.1h-.1zM43.4 269.1l-.1-.1v-3.2l-1 .7h-.1l-.1-.1v-.1l1.2-1H43.6V269.2h-.2zM45.8 269.2c-.3 0-.5 0-.7-.2-.2 0-.3-.2-.5-.4a1 1 0 01-.1-.6 1 1 0 01.6-.9.9.9 0 01-.4-.3 1 1 0 01-.1-.5c0-.3.1-.6.3-.7.3-.2.5-.3.9-.3.3 0 .6 0 .8.3.3.1.4.4.4.7a1 1 0 01-.5.8c.2 0 .4.2.5.4l.1.6a1 1 0 01-.6 1h-.7zm0-2.3l.6-.1c.2-.2.3-.3.3-.5s-.1-.4-.3-.5a1 1 0 00-.6-.2 1 1 0 00-.6.2c-.2.1-.3.3-.3.5s.1.4.3.5l.6.1zm0 2c.3 0 .5-.1.7-.3.2-.1.3-.3.3-.6 0-.2-.1-.4-.3-.5-.2-.2-.4-.2-.7-.2-.3 0-.5 0-.7.2-.2.1-.3.3-.3.6 0 .2 0 .4.3.5.2.2.4.2.7.2zM48 267.7v-.2-.1H49.7v.2H48zM50.4 269.1h-.1v-.1-.3l1.5-1.4.4-.5v-.4l-.1-.6-.6-.2c-.3 0-.5 0-.6.2a1 1 0 00-.3.6v.1H50.2l.1-.6.4-.4.7-.2c.3 0 .6.1.8.3.2.2.3.5.3.8l-.1.6-.5.5-1.2 1.3h1.8V269.1h-2.2zM55.1 269.1v-1h-1.8-.1v-.2-.1l1.6-2.4h.5v2.4h.6V268.2h-.5v.9l-.2.1zm-1.5-1.3H55v-2l-1.4 2zM43.5 287.2c-.3 0-.5 0-.7-.2a1 1 0 01-.5-.3.8.8 0 01-.1-.5H42.6c0 .3.2.4.4.5l.6.1c.2 0 .5 0 .6-.2.2-.1.3-.3.3-.6 0-.4-.3-.7-.9-.7H43v-.1-.2l1-1.3h-1.5-.1v-.2-.1h2.2v.2l-1.2 1.4h.1c.4 0 .7 0 1 .3l.2.7-.1.6a1 1 0 01-.5.4l-.6.2zM46.6 287.2c-.3 0-.5 0-.7-.2l-.4-.4a1 1 0 01-.1-.4v-.1H45.8c0 .3.2.5.3.6l.6.1c.3 0 .5 0 .7-.2.2-.2.2-.4.2-.7a.8.8 0 00-.4-.8 1 1 0 00-.9 0l-.2.1-.2.1h-.2v-1.8l.1-.1H47.6v.2H46L46 285l.7-.2.6.1.5.5.2.6c0 .3 0 .5-.2.7l-.5.4-.6.2zM48.7 285.7v-.2-.1H50.4v.2h-1.7zM53 287.1v-1H51v-.2-.1l1.7-2.4h.5v2.4h.5l.1.1v.2h-.6v.9l-.1.1H53zm-1.5-1.3H53v-2l-1.5 2zM56.3 287.1v-1h-1.8-.1v-.2-.1l1.6-2.4h.5v2.4h.6V286.2h-.5v.9l-.2.1zm-1.5-1.3h1.4v-2l-1.4 2zM70.9 305l-.1-.1v-.1l.1-.3 1.4-1.3.4-.5.1-.4c0-.3 0-.5-.2-.6l-.6-.2c-.2 0-.4 0-.6.2a1 1 0 00-.2.6H71h-.1v-.5l.5-.5.6-.1c.4 0 .7 0 .9.3l.2.8-.1.5c0 .2-.2.4-.4.6l-1.3 1.2h1.8l.1.2v.1H70.9zM75.2 305c-.4 0-.7-.1-1-.4l-.3-1v-1c0-.4.2-.8.4-1 .2-.3.5-.4 1-.4.4 0 .7.1.9.4.2.2.3.6.3 1a13.9 13.9 0 010 1c0 .4-.1.7-.3 1-.2.3-.5.4-1 .4zm0-.3c.3 0 .6-.1.7-.3.2-.2.3-.5.3-.9a13 13 0 000-.8c0-.4-.1-.7-.3-.9-.1-.2-.4-.3-.7-.3-.3 0-.5 0-.7.3l-.2.9v.8c0 .4 0 .7.2.9.2.2.4.3.7.3zM99.1 305l-.1-.1v-.9h-1.8v-.2-.2l1.6-2.3h.5v2.4h.6V304h-.6v.9H99zm-1.6-1.3H99v-2.1l-1.5 2zM101.8 305c-.4 0-.7-.1-1-.4l-.2-1v-1c0-.4 0-.8.3-1 .2-.3.5-.4 1-.4.4 0 .7.1 1 .4l.2 1a13 13 0 010 1c0 .4 0 .7-.3 1-.2.3-.5.4-1 .4zm0-.3c.4 0 .6-.1.7-.3.2-.2.3-.5.3-.9a11.7 11.7 0 000-.8c0-.4-.1-.7-.3-.9-.1-.2-.3-.3-.7-.3-.3 0-.5 0-.7.3l-.2.9v.8c0 .4 0 .7.2.9.2.2.4.3.7.3zM125 305c-.3 0-.5 0-.7-.2-.2 0-.4-.2-.5-.4l-.1-.6c0-.4 0-.7.3-1l1-1.5a.2.2 0 01.2 0h.2v.1l-.8 1.1h.4c.2 0 .5 0 .7.2.2 0 .3.2.4.4l.2.7c0 .2 0 .4-.2.6 0 .2-.2.3-.4.4-.2.2-.5.2-.7.2zm0-.3l.4-.1c.2 0 .3-.2.4-.3l.1-.5-.1-.5c0-.2-.2-.3-.4-.4a1 1 0 00-.4 0 1 1 0 00-.5 0l-.4.4-.1.5.1.5.4.3.5.1zM128.2 305c-.4 0-.8-.1-1-.4-.2-.3-.3-.6-.3-1v-1c0-.4.1-.8.3-1 .2-.3.6-.4 1-.4.5 0 .8.1 1 .4.2.2.3.6.3 1a12.5 12.5 0 010 1c0 .4-.1.7-.3 1-.2.3-.5.4-1 .4zm0-.3c.3 0 .6-.1.7-.3.2-.2.3-.5.3-.9a15.3 15.3 0 000-.8c0-.4-.1-.7-.3-.9-.1-.2-.4-.3-.7-.3-.3 0-.5 0-.7.3l-.2.9v.8c0 .4 0 .7.2.9.2.2.4.3.7.3zM151.5 305l-.7-.1a1 1 0 01-.7-1 1 1 0 01.6-1 1 1 0 01-.3-.3 1 1 0 01-.1-.4c0-.4 0-.6.3-.8l.9-.2c.3 0 .6 0 .8.2.2.2.4.4.4.8 0 .1 0 .3-.2.4 0 .2-.2.3-.3.4.2 0 .3.2.4.3l.2.6a1 1 0 01-.7 1l-.6.1zm0-2.2c.2 0 .4 0 .6-.2l.2-.4c0-.3 0-.4-.2-.5a1 1 0 00-.6-.2 1 1 0 00-.7.2c-.1 0-.2.2-.2.5 0 .2 0 .3.2.4.2.2.4.2.7.2zm0 1.9c.2 0 .5 0 .7-.2.2-.2.3-.3.3-.6l-.3-.6-.7-.2-.8.2-.2.6c0 .3 0 .4.2.6l.8.2zM154.8 305c-.4 0-.7-.1-1-.4l-.2-1v-1c0-.4 0-.8.3-1 .2-.3.5-.4 1-.4.4 0 .7.1 1 .4l.2 1a12.5 12.5 0 010 1c0 .4 0 .7-.3 1-.2.3-.5.4-1 .4zm0-.3c.3 0 .6-.1.7-.3.2-.2.3-.5.3-.9a15.3 15.3 0 000-.8c0-.4-.1-.7-.3-.9-.1-.2-.4-.3-.7-.3-.3 0-.5 0-.7.3l-.2.9v.8c0 .4 0 .7.2.9.2.2.4.3.7.3zM177.7 305l-.1-.1v-3.2l-1 .7h-.1v-.1h-.1v-.2l1.2-.8H177.9v3.6h-.2zM180 305c-.4 0-.7-.1-.9-.4-.2-.3-.3-.6-.3-1v-1c0-.4.1-.8.3-1 .2-.3.5-.4 1-.4.4 0 .8.1 1 .4.2.2.3.6.3 1a13 13 0 010 1c0 .4-.1.7-.3 1-.2.3-.6.4-1 .4zm0-.3c.4 0 .6-.1.8-.3l.2-.9a15.3 15.3 0 000-.8c0-.4 0-.7-.2-.9-.2-.2-.4-.3-.7-.3-.3 0-.5 0-.7.3-.2.2-.3.5-.3.9v.8c0 .4.1.7.3.9.2.2.4.3.7.3zM183.5 305c-.5 0-.8-.1-1-.4-.2-.3-.3-.6-.3-1v-1c0-.4 0-.8.3-1 .2-.3.5-.4 1-.4.4 0 .7.1 1 .4l.3 1a13 13 0 010 1c0 .4-.2.7-.4 1-.2.3-.5.4-1 .4zm0-.3c.3 0 .5-.1.7-.3l.2-.9a15.3 15.3 0 000-.8c0-.4 0-.7-.2-.9-.2-.2-.4-.3-.7-.3-.3 0-.6 0-.7.3-.2.2-.3.5-.3.9v.8c0 .4.1.7.3.9.1.2.4.3.7.3z" fill="#183B56"></path>
  <path d="M164.4 205.4c0-1.8 1.5-3.2 3.3-3.2H199c1.8 0 3.2 1.4 3.2 3.2v14c0 1.7-1.4 3.1-3.2 3.1h-31.4a3.2 3.2 0 01-3.3-3.2v-14z" fill="#fff"></path>
  <path d="M195.5 211.3l-2.9 4-3.1-4h6.1zM173 216v-.1l-.1-.1v-.1l2.4-6c0-.2 0-.2.2-.2h.3l.3.1 2.4 6V216h-.4-.1-.1l-.6-1.6H174l-.5 1.5-.1.1H173zm1.3-2.2h2.8l-1.4-3.7-1.4 3.7zM179.7 216l-.1-.1v-6.3-.2h.4l.1.2v6.3h-.4zM181.9 216l-.2-.1v-6.3-.2h.5v6.5H182zM42.3 213h-.2v-.2-.2l3-8.2.1-.3H47.8l.2.3 3 8.2v.4h-1.8c-.2 0-.4 0-.5-.2l-.5-1.4h-3.4l-.5 1.4-.4.2h-1.6zm5.4-3.4l-1.2-3.4-1.2 3.4h2.4zM55.2 215.9c-.9 0-1.5-.2-2-.4-.5-.3-.9-.6-1.1-1l-.3-.8v-.2l.3-.1h1.8l.2.2c0 .2.2.4.3.5l.7.2c.4 0 .7-.1.9-.3.2-.2.3-.5.3-1v-.8c-.5.4-1.1.7-2 .7-.8 0-1.5-.3-2-.8-.4-.5-.6-1.2-.7-2.2v-.3c0-1 .3-1.9.7-2.5.5-.6 1.2-.9 2-.9a2.5 2.5 0 012 1v-.5l.2-.3h1.9l.1.3v6.1c0 1-.3 1.8-.9 2.3-.5.5-1.4.8-2.4.8zm-.1-4.7c.4 0 .6-.1.8-.3l.4-1a3.7 3.7 0 000-.7c0-.4-.2-.7-.4-.9-.2-.2-.4-.4-.8-.4s-.7.2-1 .4l-.2 1v.3c0 .5 0 .9.2 1.2.2.3.5.4 1 .4zM63.2 213.2c-1 0-1.9-.3-2.4-.9-.6-.5-1-1.3-1-2.4v-.5c0-1 .4-1.8 1-2.3.6-.6 1.4-.9 2.4-.9.7 0 1.3.2 1.8.5s.9.7 1.1 1.2c.3.5.4 1 .4 1.7V210.2H62v.2c0 .4.1.7.3 1 .2.2.4.3.8.3l.5-.1.4-.3.2-.2h2v.2c0 .2 0 .5-.3.8a3 3 0 01-1.1.7c-.5.3-1 .4-1.7.4zm1-4.2c0-.4 0-.8-.2-1a1 1 0 00-.8-.4 1 1 0 00-.8.4c-.2.2-.3.6-.3 1h2.2zM73.8 213.2c-1 0-1.9-.3-2.5-.8a3 3 0 01-1-2.1 8.8 8.8 0 010-1.2c.1-.9.5-1.6 1-2.1.6-.5 1.4-.8 2.5-.8 1 0 1.8.3 2.4.8.6.5 1 1.2 1 2.1a8.9 8.9 0 010 1.2 3 3 0 01-1 2.1c-.5.5-1.4.8-2.4.8zm0-1.6c.4 0 .6-.1.8-.3.2-.3.3-.6.3-1.1a6.5 6.5 0 000-1c0-.5-.1-.8-.3-1-.2-.3-.5-.4-.8-.4-.7 0-1.1.4-1.2 1.4v1c0 .5.2.8.3 1 .2.3.5.4.9.4zM79.6 213h-.3v-5H78v-1.3-.3h1.3v-.5c0-.8.2-1.4.7-1.8.5-.4 1.2-.6 2-.6h1l.3.1v1.5l-.2.1h-1c-.2 0-.4 0-.5.2-.2.1-.2.3-.2.6v.3h1.5l.3.1v1.5l-.3.1h-1.5v4.7l-.1.2-.2.1h-1.5zM89.9 213.2c-1 0-1.8-.3-2.4-.8a3 3 0 01-1-2.2v-1c.1-1 .4-1.7 1-2.2.6-.5 1.4-.8 2.4-.8.7 0 1.3.1 1.8.4.5.3 1 .6 1.1 1 .3.3.4.6.4 1v.2H91l-.2-.2c0-.3-.2-.4-.4-.6a1 1 0 00-.6-.1c-.7 0-1 .4-1 1.3v.9c0 .5 0 .9.2 1 .2.3.5.4.8.4.3 0 .5 0 .7-.2l.3-.5.2-.2h2l.1.2c0 .3 0 .6-.3 1a3 3 0 01-1.1 1 4 4 0 01-2 .4zM97 213.2c-.8 0-1.4-.3-1.9-.8a3 3 0 01-.7-2.1v-3.6l.1-.3h2.1v3.8c0 .8.4 1.2 1.2 1.2.3 0 .6 0 .8-.3.2-.2.3-.5.3-1v-3.4l.1-.3h2.1l.1.3v6.2l-.3.1h-1.7l-.1-.3v-.5c-.5.6-1.2 1-2.2 1zM105.5 213.2c-.7 0-1.2-.1-1.7-.3-.5-.2-.8-.5-1-.7-.3-.3-.4-.6-.4-.8l.1-.2h1.8l.3.2c.2 0 .3.2.5.3h1.1c.2-.2.2-.3.2-.5l-.1-.4-.5-.2-1-.3c-.7-.1-1.3-.4-1.7-.7-.3-.3-.5-.8-.5-1.3 0-.4 0-.7.3-1 .2-.3.6-.6 1-.8.4-.2 1-.3 1.6-.3.6 0 1.1.1 1.6.3.4.2.8.4 1 .7l.4.7-.1.2-.2.1h-1.4-.1a2 2 0 01-.3-.2l-.5-.3h-1l-.2.5.1.3.5.2 1 .3c.9.1 1.5.4 1.9.8.4.3.5.8.5 1.3 0 .6-.2 1.1-.8 1.5-.6.4-1.4.6-2.4.6zM113.3 213c-1.7 0-2.6-.8-2.6-2.5V208h-1.3v-1.3-.3h1.3v-2.2-.2l.3-.1h1.7l.1.3v2.1h1.6l.3.1v1.5l-.3.1h-1.6v2.3c0 .6.3 1 .7 1h1.3v1.6l-.3.1h-1.2zM119.2 213.2c-1.1 0-2-.3-2.5-.8a3 3 0 01-1-2.1 9.2 9.2 0 010-1.2c.1-.9.4-1.6 1-2.1s1.4-.8 2.5-.8c1 0 1.8.3 2.4.8.6.5 1 1.2 1 2.1a9.4 9.4 0 010 1.2 3 3 0 01-1 2.1c-.5.5-1.4.8-2.4.8zm0-1.6c.3 0 .6-.1.8-.3.2-.3.3-.6.3-1.1a6.2 6.2 0 000-1c0-.5-.1-.8-.3-1-.2-.3-.5-.4-.8-.4-.8 0-1.1.4-1.2 1.4v1c0 .5.1.8.3 1 .2.3.5.4.9.4zM124.3 213h-.3v-6.3-.3h1.9v.7c.3-.3.5-.5.9-.6.3-.2.7-.3 1-.3 1 0 1.7.4 2 1.1.2-.3.5-.6.9-.8l1.2-.3c.7 0 1.2.3 1.7.7.4.5.7 1.2.7 2.2v3.6l-.1.2-.3.1h-1.5-.2V209c0-.4-.2-.7-.4-.9a1 1 0 00-.7-.3c-.2 0-.5.1-.7.3l-.2 1v3.5l-.1.2-.2.1H128V209c0-.4-.2-.7-.3-.9a.9.9 0 00-.7-.3 1 1 0 00-.7.3c-.2.2-.3.5-.3 1v3.7l-.3.1h-1.5zM138.9 213.2c-1 0-1.9-.3-2.5-.9-.6-.5-.9-1.3-.9-2.4v-.5c0-1 .4-1.8 1-2.3.5-.6 1.3-.9 2.4-.9.7 0 1.3.2 1.8.5s.9.7 1.1 1.2c.3.5.4 1 .4 1.7V210.2H137.7v.2c0 .4 0 .7.3 1 .1.2.4.3.8.3l.5-.1.4-.3.1-.2h2.1v.2c0 .2 0 .5-.3.8a3 3 0 01-1.1.7c-.5.3-1 .4-1.7.4zm1-4.2c0-.4 0-.8-.3-1a1 1 0 00-.7-.4 1 1 0 00-.8.4c-.2.2-.3.6-.3 1h2.1zM143.8 213h-.2l-.1-.3v-6-.3h2l.1.3v.5c.5-.6 1.1-.9 2-.9h.5l.2.1.1.3v1.5l-.3.1h-1.3c-.3 0-.6.1-.8.3-.2.2-.3.5-.3.8v3.5l-.3.1h-1.6zM152.1 213.2c-.6 0-1.2-.1-1.7-.3-.5-.2-.8-.5-1-.7-.3-.3-.4-.6-.4-.8l.1-.2h1.9l.2.2c.2 0 .3.2.5.3h1.1c.2-.2.2-.3.2-.5v-.4l-.5-.2-1.1-.3c-.7-.1-1.3-.4-1.6-.7-.4-.3-.6-.8-.6-1.3 0-.4.1-.7.3-1 .2-.3.6-.6 1-.8.5-.2 1-.3 1.6-.3.6 0 1.1.1 1.6.3.4.2.8.4 1 .7.3.3.4.5.4.7l-.1.2-.2.1h-1.5a2 2 0 01-.3-.2l-.4-.3h-1.1l-.2.5c0 .1 0 .2.2.3l.4.2 1 .3c.9.1 1.5.4 1.9.8.4.3.6.8.6 1.3 0 .6-.3 1.1-.9 1.5-.6.4-1.3.6-2.4.6zM42.5 226h-.1v-5.5-.2h.5l1.9 3.7 1.9-3.6.1-.1h.4v5.7H46.9h-.2V221.4l-1.6 3c0 .2-.1.3-.2.3h-.2l-.3-.2-1.5-3.1V226h-.4zM49.9 226.1c-.3 0-.5 0-.8-.2-.2 0-.4-.2-.5-.4a1 1 0 01-.2-.6c0-.4.1-.7.4-.9.3-.2.7-.4 1.2-.4l1.3-.2v-.3c0-.3 0-.5-.3-.7-.1-.2-.4-.2-.8-.2l-.7.1c-.2.1-.3.3-.3.4l-.1.2h-.2-.2v-.2c0-.1 0-.3.2-.4 0-.2.2-.3.5-.4.2-.2.5-.2.8-.2.6 0 1 .1 1.3.4.2.3.3.6.3 1v2.8l-.2.1h-.2v-.5l-.6.4a2 2 0 01-1 .2zm0-.5c.5 0 .8 0 1-.4.3-.2.4-.6.4-1v-.4l-1 .2c-.5 0-.8.1-1 .3-.3.1-.4.3-.4.5 0 .3.1.5.3.6.2.2.5.2.8.2zM53.4 226h-.2v-4.1l.2-.1h.2l.1.1v.4c.2-.4.6-.5 1.1-.5h.5V222.1l-.2.1h-.3a1 1 0 00-.8.3 1 1 0 00-.3.8v2.7H53.3zM58 226l-.1-.2c0-.2 0-.3.2-.4l2.1-2.1.6-.8.2-.6c0-.4-.1-.7-.3-.9-.3-.2-.6-.3-1-.3-.3 0-.6.1-.8.3-.2.2-.4.5-.4.9v.1H58 58c0-.4 0-.6.2-.9.1-.3.3-.5.6-.6.2-.2.6-.3 1-.3.5 0 1 .2 1.3.5.2.3.4.7.4 1.2 0 .3 0 .6-.2.9l-.7.8-2 2h3V225.9l-.2.1h-3.3zM64.6 226.1a2 2 0 01-1.1-.3c-.3-.1-.5-.4-.7-.7a2 2 0 01-.2-1c0-.4.1-.9.5-1.4l1.6-2.3h.1l.2-.1h.2v.2l-1.2 1.8h.6c.4 0 .7 0 1 .2.4.2.6.4.7.7.2.3.3.6.3 1l-.3 1c-.1.2-.3.5-.7.6a2 2 0 01-1 .3zm0-.5l.7-.1a1.4 1.4 0 00.7-1.3c0-.3 0-.6-.2-.8l-.5-.5-.7-.2c-.3 0-.5 0-.8.2l-.5.5-.2.8c0 .3 0 .5.2.8l.5.5.8.1zM70 223.8h-.2v-.2-.2h2.7v.4h-2.6zM75.6 226h-.2v-.2l2-5.4.3-.1h.3l.2.1 2.1 5.4v.2H80 80l-.6-1.4h-2.9l-.5 1.3-.2.1h-.1zm3.5-1.9l-1.2-3.2-1.3 3.2h2.5zM81.5 227.6h-.2v-5.7l.2-.1h.2v.5c.4-.4.9-.6 1.5-.6s1 .2 1.3.5c.3.4.4.9.4 1.4a3 3 0 010 .6c0 .5-.1 1-.4 1.4-.3.3-.7.5-1.3.5-.6 0-1-.2-1.4-.6v2H81.4zm1.6-2c.5 0 .8-.1 1-.4.2-.3.3-.6.3-1v-.3c0-.5 0-1-.3-1.3-.2-.3-.5-.4-1-.4-.4 0-.7.1-1 .4-.2.3-.3.6-.3 1v.6l.1.7.5.5c.2.2.4.2.7.2zM86.3 226h-.1v-4.1l.1-.1H86.6v.5c.2-.4.6-.5 1.1-.5h.5V222.1l-.2.1h-.3a1 1 0 00-.8.3 1 1 0 00-.3.8v2.7H86.3zM93 226.1c-.8 0-1.3-.2-1.6-.6-.3-.4-.5-1-.5-1.7V222.5c0-.7.2-1.3.5-1.7.3-.4.8-.6 1.5-.6s1.2.2 1.5.6c.3.4.5 1 .5 1.7a21.4 21.4 0 010 1.3c0 .7-.2 1.3-.5 1.7-.3.4-.8.6-1.5.6zm0-.5c.4 0 .7-.1 1-.4l.4-1.4a20.2 20.2 0 000-1.3c0-.6-.2-1-.4-1.3-.3-.3-.6-.5-1-.5-.6 0-1 .2-1.2.5-.2.3-.3.7-.3 1.3V223.8c0 .6 0 1 .3 1.4.3.3.6.4 1.1.4zM97.8 226h-.2v-5l-1.5 1v.1h-.2l-.1-.2v-.2l1.8-1.4h.5v5.7H97.8z" fill="#183B56"></path>
  <g filter="url(#filter1_d)">
    <path d="M418.8 30c0-2 1.6-3.6 3.5-3.6h101.1c2 0 3.6 1.6 3.6 3.6v97.2c0 2-1.6 3.5-3.6 3.5h-101c-2 0-3.6-1.6-3.6-3.5V30z" fill="#fff"></path>
  </g>
  <path d="M447 80.9c-1.3 0-2.3-.3-3.2-.7-1-.4-1.7-1-2.2-1.8-.5-.8-.7-1.6-.7-2.6 0-1.2.5-2.6 1.7-4.2l3.6-4.8.3-.3.4-.1h2.7l.3.1.1.3v.3l-2.8 3.8.6-.1c.8 0 1.6.3 2.4.7a5 5 0 012 1.7 4.8 4.8 0 010 5c-.6.9-1.3 1.5-2.2 2-.9.4-1.9.7-3 .7zm-.1-3c.6 0 1.2-.2 1.6-.5.4-.4.6-1 .6-1.7a2 2 0 00-.6-1.5c-.4-.4-1-.6-1.6-.6-.6 0-1.2.2-1.6.6a2 2 0 00-.7 1.5c0 .7.3 1.3.7 1.7.4.3 1 .5 1.6.5zM460 80.9c-1.2 0-2.2-.2-3-.6-1-.4-1.6-1-2-1.6a4 4 0 01-.8-2 .4.4 0 01.4-.5h2.8c.3 0 .5.1.6.4.4.9 1 1.3 2 1.3.7 0 1.2-.1 1.6-.5.4-.4.6-1 .6-1.6 0-.6-.2-1-.6-1.4-.4-.4-.9-.6-1.5-.6a2.2 2.2 0 00-1.5.5l-.6.3h-2.6c-.2 0-.3 0-.4-.2v-.3l.7-7c0-.3 0-.4.2-.5l.4-.2h8.2l.4.1.1.4v2l-.1.3-.4.1h-6l-.2 2.7 1.1-.6a5.7 5.7 0 014 .5 4.5 4.5 0 012.6 4c0 1-.3 1.8-.8 2.6-.4.7-1.1 1.3-2 1.7-.9.5-2 .7-3.1.7zM468.3 80.7l-.4-.2-.1-.4v-2.5l.1-.4.4-.2h2.6l.4.2v3.3l-.4.2h-2.6zM479.2 80.9c-1.2 0-2.3-.3-3.2-.7a4.8 4.8 0 01-2.9-4.5c0-1.1.6-2.5 1.7-4l3.6-4.9.3-.3.4-.1h2.8l.3.1v.6l-2.7 3.8.6-.1c.8 0 1.6.3 2.4.7a5 5 0 011.9 1.7c.5.7.7 1.6.7 2.5 0 1-.2 1.8-.7 2.6-.5.8-1.2 1.4-2.1 1.9-1 .4-2 .7-3.1.7zm0-3c.6 0 1.1-.2 1.5-.5.5-.4.7-1 .7-1.7a2 2 0 00-.7-1.5c-.4-.4-1-.6-1.6-.6-.6 0-1.1.2-1.6.6a2 2 0 00-.6 1.5c0 .7.2 1.3.6 1.7.5.3 1 .5 1.6.5zM489.7 73.6c-1 0-1.7-.3-2.2-.7-.6-.5-.9-1.2-1-2a15.3 15.3 0 010-1.9c.1-.8.4-1.5 1-2 .5-.5 1.2-.7 2.2-.7 1 0 1.7.2 2.2.7.6.5.9 1.2 1 2a28.3 28.3 0 010 2c-.1.7-.5 1.4-1 1.9-.6.4-1.3.7-2.2.7zm-1.6 7h-.4l-.1-.4V80l10.1-13.2.3-.3.4-.1h1.5l.3.1.2.3-.1.2-10 13.3-.4.3H488.1zm1.6-8.8c.6 0 .9-.3 1-1a17.5 17.5 0 000-1.7c0-.3-.2-.5-.3-.7-.2-.2-.4-.3-.7-.3-.3 0-.6.1-.7.3l-.3.7a13.2 13.2 0 000 1.7c0 .7.4 1 1 1zm8.6 9c-1 0-1.7-.3-2.2-.8-.6-.4-.9-1.1-1-2a16.5 16.5 0 010-1.8c.1-.9.4-1.6 1-2 .5-.5 1.2-.8 2.2-.8 1 0 1.7.3 2.2.8.6.4.9 1.1 1 2a28.3 28.3 0 010 1.9c-.1.8-.4 1.4-1 2-.5.4-1.3.7-2.2.7zm0-1.8c.3 0 .5-.1.7-.3l.3-.8a15.3 15.3 0 000-1.6c0-.3-.2-.6-.3-.8-.2-.2-.4-.3-.7-.3-.3 0-.5.1-.7.3l-.2.8a12.3 12.3 0 000 1.6c0 .3 0 .6.2.8.2.2.4.3.7.3zM444 94.5l-.1-.2v-6-.2H444.7v5.6H448v.8h-3.9zM450.9 94.6a2 2 0 01-1.5-.6c-.4-.4-.6-1-.7-1.6v-.6c0-.7.3-1.2.7-1.6a2 2 0 011.5-.6 2 2 0 011.6.6c.3.5.5 1 .5 1.8V92.3H449.6v.2c0 .4.1.7.4 1 .2.3.5.4.9.4a1.3 1.3 0 001-.5l.2-.1h.8v.1c0 .1 0 .3-.3.5a2 2 0 01-.7.5l-1 .2zm1.3-2.9c0-.4-.2-.8-.4-1-.2-.3-.5-.4-1-.4-.3 0-.6.1-.9.4-.2.2-.3.6-.3 1h2.6zM455.6 94.6a2 2 0 01-.9-.2l-.6-.5c-.2-.2-.2-.4-.2-.7 0-.4.1-.7.5-1 .3-.3.8-.4 1.4-.5l1.3-.2v-.3c0-.6-.3-1-1-1a1.2 1.2 0 00-1.1.6v.2H454.3h-.1l-.1-.2c0-.2 0-.3.2-.5.1-.2.3-.4.6-.5l1-.2c.8 0 1.3.2 1.6.5.3.3.4.7.4 1.2v3.2H457.3h-.2V93.9l-.6.5-1 .2zm.2-.7c.4 0 .7-.1 1-.4.2-.2.3-.6.3-1.1V92l-1 .2c-.5 0-.8.1-1 .3-.3.1-.4.3-.4.5 0 .3.1.5.3.6l.8.2zM461.2 94.6c-.7 0-1.1-.2-1.5-.6-.3-.4-.5-1-.5-1.6v-.6c0-.6.2-1.1.5-1.6.4-.4.8-.6 1.5-.6.6 0 1.1.2 1.5.7V88 88h.8v6.5H462.9h-.1V93.9c-.4.5-1 .7-1.6.7zm.2-.7c.4 0 .7-.2 1-.5.1-.3.3-.6.3-1a4.7 4.7 0 000-.7c0-.4-.1-.7-.4-1-.2-.2-.5-.4-1-.4-.4 0-.7.2-.9.5a2 2 0 00-.3 1v.3c0 1.2.4 1.8 1.3 1.8zM469 94.5c-1 0-1.4-.5-1.4-1.6v-2.5H466.7v-.5-.2H467.6V88 88h.8V89.7h1.3l.1.2v.5h-1.4v2.4c0 .3 0 .6.2.7.1.2.3.3.5.3h.7l.1.2v.5H469zM472.8 94.6c-.6 0-1.2-.2-1.6-.6-.3-.4-.5-.9-.5-1.5v-.8c0-.6.2-1.1.6-1.5a2 2 0 011.5-.6c.7 0 1.2.2 1.6.6.4.4.6.9.6 1.5a5.6 5.6 0 010 .8c0 .6-.2 1.1-.6 1.5-.4.4-.9.6-1.6.6zm0-.7c.4 0 .7-.1 1-.4.2-.2.3-.6.3-1a4.4 4.4 0 000-.8c0-.4-.1-.8-.3-1-.3-.3-.6-.4-1-.4s-.7.1-.9.4c-.2.2-.3.6-.4 1v.8c0 .4.2.8.4 1 .2.3.5.4 1 .4zM480.6 94.6c-.7 0-1.2-.2-1.6-.6-.4-.3-.6-.9-.6-1.5v-.8c0-.6.2-1.2.6-1.5.4-.4.9-.6 1.6-.6.4 0 .8 0 1 .2l.8.6.2.7v.2H482h-.2v-.2l-.5-.6-.7-.2c-.4 0-.7.1-1 .4-.2.2-.3.6-.3 1v.7c0 .5.1.9.3 1.1.3.3.6.4 1 .4.3 0 .5 0 .7-.2.2-.1.3-.4.4-.7l.1-.1h.8v.2c0 .2 0 .4-.2.7l-.7.6-1.1.2zM484 94.5h-.1V88 88h.7v6.5h-.6zM486.3 88.8h-.2V88v-.2h.9V88.7h-.7zm0 5.7h-.1V89.9v-.2h.7l.1.2V94.5h-.7zM490.4 94.6c-.7 0-1.2-.2-1.6-.6-.3-.3-.5-.9-.5-1.5v-.8c0-.6.2-1.2.5-1.5.4-.4 1-.6 1.6-.6.5 0 .8 0 1.1.2l.7.6.3.7v.2h-.7-.1l-.1-.2-.5-.6-.7-.2c-.4 0-.7.1-.9.4-.2.2-.3.6-.4 1v.7c0 .5.2.9.4 1.1.2.3.5.4 1 .4.2 0 .4 0 .6-.2.2-.1.4-.4.5-.7V93H492.5v.2c0 .2 0 .4-.2.7l-.7.6-1.1.2zM493.9 94.5h-.2V88 88h.8v3.4l1.9-1.6.2-.1h.8v.2l-.1.2-2.1 1.7 2.3 2.3.1.2a.2.2 0 01-.2.2H496.8l-.2-.1-2-2v1.9l-.1.2H493.9z" fill="#183B56"></path>
  <path d="M478.8 50a8.6 8.6 0 11-17.2 0 8.6 8.6 0 0117.2 0z" fill="#E7F0FC"></path>
  <path d="M459.4 112.4h-.1v-.5c0-.2 0-.3.2-.4l2-2 1-1 .2-.8c0-.4-.1-.6-.3-.8-.2-.3-.5-.4-.9-.4s-.7.1-.9.4l-.4.8v.2h-.7a.2.2 0 01-.2-.1c0-.4.1-.7.3-1l.7-.7c.3-.2.7-.3 1.2-.3.7 0 1.2.2 1.6.5.3.4.5.8.5 1.4 0 .4-.1.7-.3 1-.2.4-.5.7-.9 1l-1.8 1.9h3l.1.2v.5h-4.2zM467.1 112.5c-.5 0-.9-.1-1.3-.3a2.1 2.1 0 01-1-2c0-.5.1-1 .6-1.7l1.7-2.4v-.1h.2l.1-.1h.6V106.2l-1.3 1.9h.5a2.3 2.3 0 012 1c.2.4.3.7.3 1.1 0 .4-.1.8-.3 1.1a2 2 0 01-.8.9c-.4.2-.8.3-1.3.3zm0-.8c.3 0 .5 0 .8-.2.2 0 .4-.2.5-.5.2-.2.2-.5.2-.8a1.4 1.4 0 00-.7-1.2c-.3-.2-.5-.2-.8-.2-.3 0-.5 0-.7.2-.3 0-.4.2-.6.5l-.2.7c0 .3 0 .6.2.8.2.3.3.4.6.5l.7.2zM470.8 112.4h-.2V111.4v-.1l.2-.1h.7l.1.2V112.3h-.8zM475.2 112.5c-.5 0-1-.1-1.3-.3a2 2 0 01-.9-.7c-.2-.3-.3-.6-.3-1a1.7 1.7 0 011-1.6c-.2-.1-.4-.3-.5-.6-.2-.2-.2-.5-.2-.8 0-.5.2-1 .6-1.2.4-.4.9-.5 1.6-.5.6 0 1.1.1 1.5.4.4.4.6.8.6 1.3 0 .3 0 .6-.2.8-.1.3-.3.5-.5.6a1.8 1.8 0 011 1.6 1.8 1.8 0 01-1.2 1.7l-1.2.3zm0-4c.3 0 .7 0 1-.2.2-.2.3-.4.3-.8 0-.3-.1-.5-.4-.7-.2-.2-.6-.3-1-.3-.3 0-.7.1-1 .3-.2.2-.3.4-.3.7 0 .4.1.6.4.8.2.2.6.3 1 .3zm0 3.2c.4 0 .8 0 1-.3.4-.2.5-.5.5-.9a1 1 0 00-.4-.9c-.3-.2-.7-.3-1.1-.3-.5 0-.9.1-1.2.3a1 1 0 00-.4 1c0 .3.2.6.4.8.3.2.7.3 1.2.3zM482 112.4h-.3V110.7h-3-.2V110.1v-.2l2.9-4h.1l.2-.1h.8v4.2h1l.1.1v.5l-.2.1h-.9v1.5H481.9zm-2.6-2.4h2.3v-3.2l-2.3 3.2zM485.8 109.1c-.4 0-.7 0-1-.3-.2-.2-.3-.5-.4-.9a7.4 7.4 0 010-.8c0-.4.2-.7.4-1 .2-.2.6-.3 1-.3s.7.1 1 .4c.2.2.3.5.3.9a9.4 9.4 0 010 .8c0 .4-.1.7-.4 1l-1 .2zm-.8 3.3h-.1l-.1-.2v-.1l4.6-6 .2-.2H490.2v.2l-4.6 6-.1.2h-.5zm.8-3.8l.5-.2.2-.5v-.4-.4l-.2-.5-.5-.2-.5.2-.2.5a6.5 6.5 0 000 .8c0 .2 0 .3.2.5l.5.2zm3.4 3.8c-.4 0-.7 0-1-.3-.2-.2-.3-.5-.3-1a6.5 6.5 0 010-.8c0-.3.1-.6.4-.9.2-.2.5-.3 1-.3.4 0 .7.1.9.3.2.3.4.6.4 1a9.6 9.6 0 010 .8c0 .4-.2.7-.4.9-.2.2-.6.3-1 .3zm0-.6c.3 0 .4 0 .5-.2l.2-.5a12 12 0 000-.7c0-.2 0-.4-.2-.5 0-.1-.2-.2-.5-.2-.2 0-.4 0-.5.2l-.1.5a6.3 6.3 0 000 .7l.1.5c.1.2.3.2.5.2zM456.6 109.3a3.6 3.6 0 11-7.1 0 3.6 3.6 0 017.1 0z" fill="#45B854"></path>
  <g filter="url(#filter2_d)">
    <path d="M327.7 165.7c0-2 1.6-3.5 3.6-3.5h149.3c2 0 3.5 1.6 3.5 3.5V314c0 2-1.6 3.5-3.5 3.5H331.3c-2 0-3.6-1.6-3.6-3.5V165.7z" fill="#fff"></path>
  </g>
  <path d="M342.5 181.8c-.6 0-1.2-.1-1.6-.3-.5-.2-.9-.5-1.1-.8-.2-.3-.4-.6-.4-1v-.2h1.7c.1 0 .2 0 .2.2l.4.4.8.2c.4 0 .7 0 1-.2.2-.1.3-.3.3-.5l-.2-.4-.5-.2-1-.3c-.9-.2-1.5-.4-1.9-.8-.4-.3-.6-.8-.6-1.4 0-.4.1-.8.4-1.1.2-.4.5-.6 1-.8.4-.2.9-.3 1.5-.3s1.1.1 1.5.3c.5.2.8.5 1 .8.3.3.4.6.4 1a.2.2 0 01-.2.2h-1.4-.2l-.1-.2c0-.2-.2-.3-.3-.4l-.7-.2c-.3 0-.6 0-.7.2-.2 0-.3.2-.3.5 0 .1 0 .2.2.3l.4.3 1 .2 1.5.5c.3.1.6.4.8.7.2.2.3.6.3 1 0 .5-.2.9-.4 1.2-.3.4-.7.6-1.1.8-.5.2-1 .3-1.7.3zM349.2 181.8c-.9 0-1.5-.3-2-.7-.5-.5-.7-1.1-.8-2v-.3c0-.8.3-1.5.8-2 .5-.4 1.1-.6 2-.6.5 0 1 .1 1.4.3l1 1 .2 1.4v.5h-3.5v.1c0 .3 0 .6.2.8l.6.3h.5c0-.2.2-.3.3-.4l.1-.1h1.6l.1.2c0 .2 0 .4-.3.6l-.9.6c-.4.2-.8.3-1.3.3zm.8-3.4c0-.3 0-.6-.2-.8a.8.8 0 00-.7-.3l-.6.3c-.2.2-.2.5-.2.8h1.7zM355.1 181.8c-.6 0-1-.1-1.4-.3-.4-.1-.7-.3-.8-.5l-.3-.6v-.2h1.5l.2.1.4.3h.9l.2-.4v-.3l-.4-.2a6 6 0 00-.9-.2 3 3 0 01-1.3-.6c-.3-.2-.5-.6-.5-1l.3-.9.8-.6 1.3-.2c.5 0 .9 0 1.2.2.4.2.7.3.9.6l.3.6-.1.1h-1.2-.2l-.2-.1-.4-.2h-.8l-.1.4v.2l.4.2.9.2c.6.1 1.1.3 1.4.6.3.3.5.7.5 1 0 .6-.2 1-.7 1.3-.4.3-1 .5-1.9.5zM360.9 181.8c-.6 0-1-.1-1.4-.3-.4-.1-.7-.3-.8-.5l-.3-.6v-.2h1.5l.2.1.4.3h.9l.2-.4v-.3l-.4-.2a6 6 0 00-.9-.2 3 3 0 01-1.3-.6c-.3-.2-.5-.6-.5-1l.3-.9.8-.6 1.3-.2c.5 0 .9 0 1.2.2.4.2.7.3.9.6l.3.6-.1.1h-1.4l-.2-.1-.4-.2h-.8l-.1.4v.2l.4.2.9.2c.6.1 1.1.3 1.4.6.3.3.5.7.5 1 0 .6-.2 1-.7 1.3-.4.3-1 .5-1.9.5zM364.7 175.5a.2.2 0 01-.2-.3v-.9-.2h1.7v1.3l-.2.1h-1.3zm0 6.2l-.1-.1-.1-.2v-4.9-.1l.2-.1H366.1l.1.2v5l-.2.2h-1.3zM370 181.8c-.8 0-1.4-.2-2-.6-.4-.4-.6-1-.7-1.8a6.9 6.9 0 010-.9c0-.7.3-1.3.8-1.7.5-.4 1.1-.6 2-.6.8 0 1.5.2 2 .6.4.4.7 1 .7 1.7a6.8 6.8 0 010 1c0 .7-.3 1.3-.7 1.7-.5.4-1.2.6-2 .6zm0-1.3c.4 0 .6 0 .7-.3.2-.1.3-.4.3-.8a5 5 0 000-.8c0-.4-.1-.7-.3-.9-.1-.2-.3-.3-.6-.3-.6 0-1 .4-1 1.2v.8c0 .4.1.7.3.8.1.2.4.3.7.3zM374.2 181.7l-.2-.1V176.5v-.1l.2-.1h1.4V177l.8-.5c.3-.2.6-.2 1-.2a2 2 0 011.4.6c.4.4.6 1 .6 1.7v3l-.2.2h-1.4l-.1-.1-.1-.2v-2.8c0-.3 0-.6-.2-.8l-.7-.2c-.3 0-.6 0-.7.2-.2.2-.3.5-.3.8v3h-1.5zM382.9 181.8c-.6 0-1-.1-1.4-.3-.4-.1-.7-.3-.9-.5l-.2-.6v-.2h1.5l.2.1.4.3h.9l.2-.4-.1-.3-.4-.2a6 6 0 00-.8-.2 3 3 0 01-1.4-.6c-.3-.2-.4-.6-.4-1 0-.3 0-.6.3-.9.1-.2.4-.4.8-.6l1.2-.2c.5 0 1 0 1.3.2.4.2.7.3.8.6l.3.6v.1h-1.4l-.3-.1-.3-.2h-.8l-.2.4.1.2.4.2.8.2c.7.1 1.2.3 1.5.6.3.3.5.7.5 1 0 .6-.3 1-.7 1.3-.5.3-1.1.5-2 .5zM392 181.8a2 2 0 01-1.6-.7v.5H389h-.2v-7-.2H390.4l.1.2v2.2a2 2 0 011.5-.6 2 2 0 011.6.6c.4.5.6 1 .6 1.8a5.1 5.1 0 010 .7c0 .8-.2 1.4-.6 1.8a2 2 0 01-1.6.7zm-.5-1.4c.3 0 .5-.1.7-.3l.2-.8a3.3 3.3 0 000-.6l-.2-.8c-.2-.2-.4-.3-.7-.3-.3 0-.6 0-.7.2-.2.2-.3.5-.3.7v.8c0 .3.1.6.3.8.1.2.3.3.7.3zM396.1 183.6h-.2v-.2-.1l.8-2-2-4.7v-.2l.2-.1h1.2c.2 0 .3 0 .3.2l1.2 3 1.2-3 .3-.2h1.3l.1.2v.1l-3 6.8c0 .2-.1.2-.3.2h-1.1zM405.4 181.8a2 2 0 01-1.6-.7c-.4-.4-.6-1-.6-1.8v-.7c0-.7.2-1.3.6-1.8a2 2 0 011.6-.6 2 2 0 011.5.6v-2.2a.2.2 0 01.3-.3h1.4v7.3h-1.4-.1l-.1-.2v-.3a2 2 0 01-1.6.7zm.5-1.4c.4 0 .6-.1.7-.3.2-.2.3-.5.3-.8a5.4 5.4 0 000-.8c0-.2-.1-.5-.3-.7l-.7-.2c-.3 0-.5 0-.7.3l-.2.8a3.5 3.5 0 000 .6l.2.8c.2.2.4.3.7.3zM412.5 181.8c-.9 0-1.5-.3-2-.7-.5-.5-.7-1.1-.7-2v-.3c0-.8.2-1.5.7-2 .5-.4 1.1-.6 2-.6.5 0 1 .1 1.4.3l1 1 .2 1.4v.5h-3.5v.1c0 .3 0 .6.2.8l.6.3h.5c0-.2.2-.3.3-.4l.1-.1h1.6l.1.2c0 .2 0 .4-.3.6l-.9.6c-.4.2-.8.3-1.3.3zm.8-3.4c0-.3 0-.6-.2-.8a.8.8 0 00-.7-.3l-.6.3-.2.8h1.7zM417.9 181.7h-.2l-.1-.3-2-4.8v-.2l.2-.1h1.2c.1 0 .2 0 .3.2l1.2 3.2 1.1-3.2.3-.2h1.4V176.7l-2 4.8v.2H417.8zM422.5 175.5a.2.2 0 01-.3-.3v-.9a.2.2 0 01.3-.2h1.4v1.3l-.2.1h-1.2zm0 6.2l-.2-.1V176.5v-.1l.2-.1h1.4v5.2l-.2.2h-1.2zM427.7 181.8c-.7 0-1.4-.2-1.9-.7-.4-.4-.7-1-.7-1.7v-.8c0-.8.2-1.4.7-1.8.5-.4 1.2-.6 2-.6.5 0 1 0 1.4.3l1 .8.2.8v.1l-.2.1h-1.5l-.1-.2a1 1 0 00-.4-.5.8.8 0 00-.4 0c-.6 0-.9.3-1 1v.7l.3.9.7.2.5-.1.3-.5v-.1h1.8v.2c0 .2 0 .5-.3.8-.1.2-.4.5-.8.7-.5.3-1 .4-1.6.4zM434 181.8c-.9 0-1.6-.3-2-.7-.5-.5-.8-1.1-.8-2v-.3c0-.8.3-1.5.8-2 .5-.4 1.1-.6 2-.6.5 0 1 .1 1.4.3l1 1 .2 1.4v.5H433v.1c0 .3.1.6.3.8.1.2.3.3.6.3h.4l.3-.4.2-.1h1.6v.2c0 .2 0 .4-.2.6l-1 .6c-.3.2-.8.3-1.3.3zm.8-3.4c0-.3 0-.6-.2-.8a.8.8 0 00-.7-.3c-.3 0-.5.1-.6.3-.2.2-.3.5-.3.8h1.8zM340.2 192.1h-.1V188v-.1h.4l1.3 2.7 1.4-2.7h.4v4.2h-.2-.1v-3.4L342 191h-.5l-1.2-2.3v3.3l-.1.1h-.1zM345.6 192.2c-.2 0-.4 0-.5-.2a1 1 0 01-.4-.3.8.8 0 01-.2-.4c0-.3.1-.5.4-.7.2-.2.5-.3.8-.3l1-.2v-.2c0-.2 0-.4-.2-.5l-.6-.2a1 1 0 00-.5.2c-.2 0-.3.1-.3.2v.1h-.2-.1v-.4c.2 0 .3-.2.4-.3l.7-.1c.4 0 .7 0 .9.3.2.2.3.4.3.7v2.2h-.4v-.4l-.4.3-.7.2zm0-.4c.4 0 .6 0 .8-.3.2-.2.3-.5.3-.8v-.2h-.8l-.7.3c-.2.1-.3.3-.3.4 0 .2 0 .4.2.5l.6.1zM348.2 192.1l-.1-.1v-3H348.4v.4c.2-.3.5-.5.9-.5H349.6v.4h-.3c-.3 0-.5 0-.6.2-.2.1-.2.3-.2.6v1.9l-.2.1zM351.7 192.1l-.1-.1v-.1l.1-.3 1.6-1.6.5-.5v-.5c0-.3 0-.5-.2-.6-.1-.2-.3-.3-.6-.3s-.5.1-.7.3a1 1 0 00-.3.6v.1h-.2-.1l.1-.6.5-.5c.2-.2.4-.2.7-.2.4 0 .7.1 1 .3.2.3.3.6.3 1 0 .2 0 .4-.2.6l-.5.6-1.4 1.4h2.1v.4h-2.6zM356.6 192.2l-.8-.2c-.3-.2-.4-.4-.5-.6-.2-.2-.2-.4-.2-.7 0-.3.1-.7.4-1l1.2-1.7v-.1h.4v.2l-1 1.2h.5c.3 0 .5 0 .8.2l.5.5.1.7-.1.7-.5.6-.8.2zm0-.4l.5-.1a1 1 0 00.6-1l-.2-.5a1 1 0 00-.4-.4l-.5-.1h-.6a1 1 0 00-.4.5 1 1 0 00-.1.5l.1.6.4.4h.6zM359 190.5h-.2v-.2-.2h2V190.4h-1.9zM361.5 192.1l-.1-.1 1.5-4 .2-.2h.2s.2 0 .2.2l1.5 4v.1h-.2-.1l-.4-1H362l-.3 1H361.5zm.8-1.4h1.8l-.9-2.4-1 2.4zM365.9 193.3h-.1V189v-.1H366.2v.4c.3-.4.6-.5 1-.5.5 0 .8.1 1 .4.2.3.3.6.3 1a2.3 2.3 0 010 .4c0 .4 0 .8-.3 1-.2.3-.5.5-1 .5-.4 0-.7-.2-1-.5v1.5h-.2zm1.2-1.5c.3 0 .6-.1.7-.3.2-.2.3-.5.3-.8v-.2l-.2-1c-.2-.1-.4-.3-.8-.3-.3 0-.6.1-.7.4-.2.2-.3.4-.3.7v.5l.1.5.4.4.5.1zM369.5 192.1h-.1V189H369.8v.4c.2-.3.4-.5.8-.5h.3l.1.2v.2h-.4c-.2 0-.4 0-.6.2l-.2.6v1.9l-.1.1h-.1zM374.4 192.2c-.5 0-.9-.2-1.1-.5-.2-.3-.4-.7-.4-1.2v-1c0-.5.2-1 .4-1.3.2-.3.6-.4 1-.4.6 0 1 .1 1.2.4l.4 1.3a16 16 0 010 1c0 .5-.2.9-.4 1.2-.2.3-.6.5-1.1.5zm0-.4c.3 0 .6-.1.8-.4.2-.2.3-.5.3-1a15 15 0 000-1c0-.3-.1-.7-.3-.9-.2-.2-.5-.3-.8-.3-.4 0-.6 0-.8.3-.2.2-.3.6-.3 1v1c0 .4.1.7.3 1 .2.2.4.3.8.3zM378 192.1l-.1-.1v-3.7l-1.1.9h-.2v-.1-.1-.1l1.3-1H378.2v4.2h-.2z" fill="#183B56"></path>
  <path d="M458.8 247.4a51.6 51.6 0 11-103.3 0 51.6 51.6 0 01103.3 0z" fill="#1563D3"></path>
  <path d="M407.2 195.7a51.6 51.6 0 00-51 43l51 8.7v-51.7z" fill="#00B8D9"></path>
  <path d="M438 247.4a30.8 30.8 0 11-61.6 0 30.8 30.8 0 0161.6 0z" fill="#fff"></path>
  <g filter="url(#filter3_d)">
    <path d="M456.6 270.8a19.3 19.3 0 11-38.5 0 19.3 19.3 0 0138.5 0z" fill="#fff"></path>
  </g>
  <g filter="url(#filter4_d)">
    <path d="M403 215.7a19.3 19.3 0 11-38.5 0 19.3 19.3 0 0138.6 0z" fill="#fff"></path>
  </g>
  <path d="M430.2 279.6h-.1v-3.9H430.5l1.3 2.5 1.3-2.5h.4v3.8l-.1.1h-.1-.1v-3.2l-1.1 2.1-.2.1H431.5l-1.1-2.2v3.2h-.2zM435.6 279.7c-.4 0-.7-.2-1-.4l-.3-1v-.4c0-.4.2-.7.4-1 .2-.2.5-.3 1-.3.3 0 .6.1.8.3.3.3.4.6.4 1a3 3 0 010 .5c0 .3-.1.7-.4 1-.2.1-.5.3-.9.3zm0-.4c.3 0 .5 0 .7-.2l.2-.8a3.1 3.1 0 000-.4 1 1 0 00-.2-.7.9.9 0 00-.7-.3c-.3 0-.5.1-.6.3a1 1 0 00-.3.7v.4c0 .4 0 .6.3.8l.6.2zM439 279.7c-.4 0-.7-.2-1-.5v.4h-.1-.1v-3.9-.1h.2v1.4c.3-.3.6-.4 1-.4.5 0 .8.1 1 .4.2.3.3.6.3 1a1.7 1.7 0 010 .3c0 .4-.1.7-.3 1-.2.2-.5.4-1 .4zm0-.4c.3 0 .6 0 .7-.3l.2-.7v-.2c0-.3 0-.6-.2-.8-.1-.3-.3-.4-.7-.4a.9.9 0 00-.8.5l-.1.5v.4c0 .3 0 .5.2.7.2.2.4.3.7.3zM441.2 276h-.1V275.7v-.1h.4v.3l-.1.1h-.2zm0 3.6V276.8v-.1h.2v2.9h-.1zM442.6 279.6l-.1-.1v-3.8-.1H442.8v3.9l-.1.1h-.1zM445 279.7c-.4 0-.7-.2-1-.4-.2-.2-.3-.5-.3-1v-.4c0-.4.1-.7.3-1 .3-.2.6-.3 1-.3.3 0 .6.1.9.4.2.2.3.6.3 1v.2H444v.6l.4.4.4.1h.5l.3-.3.1-.1H446.2l-.2.4-.4.2-.6.2zm.8-1.8c0-.3 0-.5-.2-.7a.8.8 0 00-.7-.3c-.3 0-.5.1-.6.3a1 1 0 00-.3.7h1.8zM373.4 224.2h-.1v-3.8-.1h1.3l1 .1.4.5.2.9a13.5 13.5 0 010 .9l-.2.9a1 1 0 01-.5.5l-.9.1h-1.2zm1.2-.3l.7-.1.4-.4.1-.7a12.6 12.6 0 000-.9c0-.4-.1-.7-.3-1l-1-.2h-1v3.3h1zM378.2 224.3c-.4 0-.7-.1-.9-.4-.2-.2-.3-.5-.4-1v-.4c0-.4.2-.7.4-1 .2-.2.5-.3.9-.3s.7.1 1 .4c.1.3.3.6.3 1v.2l-.2.1h-2l.1.6.3.3.5.2a1 1 0 00.8-.4l.2-.1h.1v.4l-.5.3-.6.1zm1-1.7c0-.3-.2-.6-.3-.8a.8.8 0 00-.7-.3c-.3 0-.5.1-.7.3a1 1 0 00-.2.8h1.8zM381.2 224.3l-.6-.1-.4-.3-.1-.3H380.4l.3.3h1.1l.2-.5v-.2l-.4-.2-.5-.1-.7-.3a.7.7 0 01-.2-.6v-.4c.2 0 .3-.2.4-.3h1.2l.3.3.2.3h-.4l-.2-.3h-1l-.2.4.1.3.3.1.5.2c.4 0 .6.2.8.3l.2.5c0 .2 0 .3-.2.5l-.4.3-.6.1zM383.3 224.2h-.1v-3.9l.1-.1h.1l.1.1v2l1.3-1h.4v.2l-1.5 1.1 1.6 1.4.1.1v.1h-.2-.1-.1l-1.5-1.3v1.3h-.2zM387 224.2c-.3 0-.5 0-.6-.2l-.1-.7v-1.7h-.5l-.1-.1v-.1l.1-.1h.4v-1l.2-.1h.2v1.1H387.4V221.6h-.8v1.7l.1.5.4.1h.3V224.2h-.4zM389.3 224.3c-.4 0-.7-.1-1-.4-.2-.2-.3-.5-.3-.9v-.5c0-.4.1-.7.4-1 .2-.2.5-.3.9-.3s.7.1.9.4c.2.2.3.5.4 1a3 3 0 010 .4c0 .4-.2.7-.4 1-.2.2-.5.3-1 .3zm0-.3c.3 0 .5-.1.6-.3.2-.2.3-.4.3-.7a2.4 2.4 0 000-.5 1 1 0 00-.3-.7.9.9 0 00-.6-.3c-.3 0-.5.1-.7.3a1 1 0 00-.2.7v.5c0 .3 0 .5.2.7.2.2.4.3.7.3zM391.5 225.3v-3.9-.1h.2v.4c.3-.3.6-.5 1-.5s.7.1 1 .4l.2 1a2 2 0 010 .3c0 .4 0 .8-.3 1-.2.3-.5.4-.9.4s-.7-.1-1-.5v1.5h-.2zm1.2-1.3c.3 0 .5-.1.7-.3l.2-.8v-.1c0-.4 0-.7-.2-1-.1-.1-.4-.3-.7-.3-.3 0-.5.1-.7.3l-.2.8v.9l.4.3.5.2z" fill="#183B56"></path>
  <path d="M374.1 216l-.2-.1v-.7c0-.2 0-.3.2-.5l1.6-1.5a20 20 0 001.6-1.6c.2-.2.2-.4.2-.6 0-.3 0-.5-.2-.7-.2-.2-.4-.3-.8-.3a1 1 0 00-.8.3c-.2.2-.3.5-.3.8l-.1.1-.2.1h-1a.2.2 0 01-.1-.2c0-.4 0-.8.3-1.1.2-.4.5-.6.9-.8.3-.3.8-.4 1.3-.4s1 .1 1.4.3c.3.2.6.4.8.8.2.3.3.7.3 1 0 .5-.1 1-.4 1.3-.2.3-.6.7-1.2 1.1l-1.3 1.4h2.8l.2.1V216h-5zM382.8 216c-.6 0-1 0-1.5-.2-.4-.2-.7-.4-.9-.8-.2-.3-.3-.6-.3-1l.2-.2h1l.2.2c.1.3.3.6.5.7l.8.2.9-.3c.2-.3.3-.6.3-1 0-.3 0-.6-.3-.8-.3-.3-.6-.4-1-.4l-.4.1-.4.2h-.1l-.1.1h-1.1-.1l-.1-.2.3-3.4.1-.2h4.2V210l-.2.1h-2.9l-.1 1.6.5-.2.8-.1c.4 0 .8 0 1.2.3l.9.8c.2.3.3.7.3 1.2 0 .4-.1.9-.3 1.2-.3.4-.6.7-1 .9-.4.2-.9.3-1.4.3zM387.9 212.5c-.5 0-.8-.1-1-.4-.3-.2-.5-.5-.5-1a7.7 7.7 0 010-.9c0-.4.2-.7.4-1 .3-.2.6-.3 1-.3.5 0 .9.1 1.2.4.2.2.4.5.4 1a11.4 11.4 0 010 .9c0 .4-.2.7-.5 1-.2.2-.6.3-1 .3zm-.8 3.5h-.2v-.2-.2l5-6.5.3-.1h.7v.2l-5 6.6-.1.1h-.7zm.8-4.3l.4-.1.2-.5a9.3 9.3 0 000-.8c0-.2 0-.3-.2-.4 0-.2-.2-.2-.4-.2s-.3 0-.4.2l-.2.4a7 7 0 000 .8c0 .2 0 .3.2.5l.4.1zm4 4.3c-.5 0-.8-.1-1-.3-.3-.3-.5-.6-.5-1a7.7 7.7 0 010-1c0-.4.2-.7.4-1 .3-.2.6-.3 1-.3.6 0 1 .1 1.2.4.2.2.4.5.4 1a11.6 11.6 0 010 .9c0 .4-.2.7-.5 1-.2.2-.6.3-1 .3zm0-.8l.4-.1.2-.5a10.7 10.7 0 000-.8c0-.2 0-.3-.2-.4l-.4-.2c-.2 0-.3 0-.4.2l-.2.4a6 6 0 000 .8c0 .2 0 .3.2.5l.4.1zM429.9 271.3h-.2v-.2l2.4-5.6h-3.2-.1l-.1-.2v-.7-.2H433.6l.1.2v.6l-.1.4-2.4 5.5-.1.2h-1.2zM437 271.4c-.5 0-1 0-1.4-.2l-1-.8c-.2-.3-.3-.6-.3-1v-.1h1.2l.3.1c0 .3.2.5.4.7l.8.2c.4 0 .7-.1 1-.4.2-.2.3-.5.3-1 0-.3-.1-.6-.4-.8-.2-.2-.5-.3-.9-.3h-.5l-.4.3-.2.1h-1-.2v-.2l.3-3.4v-.2H439.3l.1.2v.8H436v1.7l.4-.2.8-.1c.4 0 .8 0 1.2.2l1 .8.2 1.2c0 .5 0 1-.3 1.3-.2.4-.5.6-1 .8-.4.2-.8.3-1.4.3zM442.1 267.8c-.4 0-.8 0-1-.3-.3-.2-.4-.6-.5-1a7.7 7.7 0 010-.9c0-.4.2-.7.5-1 .2-.2.6-.3 1-.3.5 0 .9 0 1.1.3.3.3.4.6.4 1a9.8 9.8 0 010 1c0 .3-.1.7-.4.9-.3.2-.6.3-1 .3zm-.8 3.5h-.1v-.2l4.9-6.6.1-.1h.9v.2l-4.9 6.5-.1.2h-.8zm.8-4.2c.2 0 .4 0 .5-.2l.1-.4a11.3 11.3 0 000-.8l-.1-.5-.5-.1-.4.1-.1.5a6.3 6.3 0 000 .8l.1.4.4.2zm4 4.3c-.4 0-.8-.1-1-.4-.3-.2-.4-.6-.5-1a8.7 8.7 0 010-.9c0-.4.2-.7.5-1 .2-.2.6-.3 1-.3.5 0 .9.1 1.1.3.3.3.4.6.4 1a11.6 11.6 0 010 1c0 .3-.1.7-.4 1-.3.2-.6.3-1 .3zm0-.8c.2 0 .4 0 .5-.2l.1-.4a10.7 10.7 0 000-.8l-.1-.5-.5-.1-.4.1-.1.5a6.9 6.9 0 000 .8l.1.4.4.2z" fill="#00B8D9"></path>
  <defs>
    <filter id="filter0_d" x=".1" y="172.2" width="224.7" height="165" filterUnits="userSpaceOnUse" color-interpolation-filters="sRGB">
      <feFlood flood-opacity="0" result="BackgroundImageFix"></feFlood>
      <feColorMatrix in="SourceAlpha" values="0 0 0 0 0 0 0 0 0 0 0 0 0 0 0 0 0 0 127 0"></feColorMatrix>
      <feOffset dx="-7.1" dy="5"></feOffset>
      <feGaussianBlur stdDeviation="7.9"></feGaussianBlur>
      <feColorMatrix values="0 0 0 0 0 0 0 0 0 0 0 0 0 0 0 0 0 0 0.05 0"></feColorMatrix>
      <feBlend in2="BackgroundImageFix" result="effect1_dropShadow"></feBlend>
      <feBlend in="SourceGraphic" in2="effect1_dropShadow" result="shape"></feBlend>
    </filter>
    <filter id="filter1_d" x="395.9" y="15.7" width="139.7" height="135.7" filterUnits="userSpaceOnUse" color-interpolation-filters="sRGB">
      <feFlood flood-opacity="0" result="BackgroundImageFix"></feFlood>
      <feColorMatrix in="SourceAlpha" values="0 0 0 0 0 0 0 0 0 0 0 0 0 0 0 0 0 0 127 0"></feColorMatrix>
      <feOffset dx="-7.1" dy="5"></feOffset>
      <feGaussianBlur stdDeviation="7.9"></feGaussianBlur>
      <feColorMatrix values="0 0 0 0 0 0 0 0 0 0 0 0 0 0 0 0 0 0 0.05 0"></feColorMatrix>
      <feBlend in2="BackgroundImageFix" result="effect1_dropShadow"></feBlend>
      <feBlend in="SourceGraphic" in2="effect1_dropShadow" result="shape"></feBlend>
    </filter>
    <filter id="filter2_d" x="304.8" y="151.4" width="187.9" height="186.8" filterUnits="userSpaceOnUse" color-interpolation-filters="sRGB">
      <feFlood flood-opacity="0" result="BackgroundImageFix"></feFlood>
      <feColorMatrix in="SourceAlpha" values="0 0 0 0 0 0 0 0 0 0 0 0 0 0 0 0 0 0 127 0"></feColorMatrix>
      <feOffset dx="-7.1" dy="5"></feOffset>
      <feGaussianBlur stdDeviation="7.9"></feGaussianBlur>
      <feColorMatrix values="0 0 0 0 0 0 0 0 0 0 0 0 0 0 0 0 0 0 0.05 0"></feColorMatrix>
      <feBlend in2="BackgroundImageFix" result="effect1_dropShadow"></feBlend>
      <feBlend in="SourceGraphic" in2="effect1_dropShadow" result="shape"></feBlend>
    </filter>
    <filter id="filter3_d" x="416.6" y="251.5" width="41.4" height="41.4" filterUnits="userSpaceOnUse" color-interpolation-filters="sRGB">
      <feFlood flood-opacity="0" result="BackgroundImageFix"></feFlood>
      <feColorMatrix in="SourceAlpha" values="0 0 0 0 0 0 0 0 0 0 0 0 0 0 0 0 0 0 127 0"></feColorMatrix>
      <feOffset dy="1.4"></feOffset>
      <feGaussianBlur stdDeviation=".7"></feGaussianBlur>
      <feColorMatrix values="0 0 0 0 0 0 0 0 0 0 0 0 0 0 0 0 0 0 0.25 0"></feColorMatrix>
      <feBlend in2="BackgroundImageFix" result="effect1_dropShadow"></feBlend>
      <feBlend in="SourceGraphic" in2="effect1_dropShadow" result="shape"></feBlend>
    </filter>
    <filter id="filter4_d" x="363" y="196.5" width="41.4" height="41.4" filterUnits="userSpaceOnUse" color-interpolation-filters="sRGB">
      <feFlood flood-opacity="0" result="BackgroundImageFix"></feFlood>
      <feColorMatrix in="SourceAlpha" values="0 0 0 0 0 0 0 0 0 0 0 0 0 0 0 0 0 0 127 0"></feColorMatrix>
      <feOffset dy="1.4"></feOffset>
      <feGaussianBlur stdDeviation=".7"></feGaussianBlur>
      <feColorMatrix values="0 0 0 0 0 0 0 0 0 0 0 0 0 0 0 0 0 0 0.25 0"></feColorMatrix>
      <feBlend in2="BackgroundImageFix" result="effect1_dropShadow"></feBlend>
      <feBlend in="SourceGraphic" in2="effect1_dropShadow" result="shape"></feBlend>
    </filter>
  </defs>
</svg>
