<svg width="102" height="32" viewBox="0 0 102 32" fill="none" xmlns="http://www.w3.org/2000/svg">
<path fill-rule="evenodd" clip-rule="evenodd" d="M28.9216 22.0424L28.9217 22.0426L28.9217 22.0426C28.9826 22.201 29.0435 22.3594 29.1045 22.5016C29.5108 23.6698 29.6124 24.7365 29.2569 25.854C28.9013 28.1905 27.3775 30.2222 25.1426 31.0857C24.3807 31.4413 23.4664 31.5937 22.6029 31.5937C22.3489 31.5937 22.0442 31.5937 21.7902 31.5429C20.7743 31.4413 19.7076 31.0857 18.641 30.4762C17.3711 29.7143 16.1013 28.6984 14.7299 27.1746C13.3584 28.6984 12.1394 29.7651 10.8188 30.4762C9.80288 31.0857 8.73622 31.4413 7.66955 31.5429C7.54257 31.5429 7.40288 31.5556 7.2632 31.5683C7.12352 31.581 6.98384 31.5937 6.85685 31.5937C5.99336 31.5937 5.12987 31.4413 4.31717 31.0857C2.13304 30.2222 0.558439 28.2413 0.202884 25.854C-0.000290975 24.7365 0.15209 23.619 0.558439 22.4508C0.710814 22.0445 0.86319 21.6889 1.01556 21.3334L1.01558 21.3333L1.0156 21.3333L1.01561 21.3333L1.01562 21.3332C1.26958 20.7745 1.52353 20.2158 1.72669 19.7079L1.77749 19.6571C3.96161 14.8825 6.34892 10.0571 8.78701 5.33333L8.8886 5.13016C9.14257 4.67302 9.39653 4.16508 9.6505 3.65714C9.95526 3.04762 10.3108 2.48889 10.8188 1.87937C11.8854 0.711111 13.3076 0 14.8822 0C16.4061 0 17.8791 0.711111 18.8949 1.98095C19.3489 2.48027 19.6405 3.02015 19.9149 3.5281C19.9476 3.58854 19.98 3.64852 20.0124 3.70794L20.0125 3.70804C20.2664 4.21594 20.5204 4.72384 20.7743 5.18095L20.8759 5.38413C23.3648 10.1587 25.7013 14.9841 27.8854 19.7079L27.9362 19.7587C28.1394 20.2667 28.3934 20.8254 28.6473 21.3841C28.7388 21.567 28.8302 21.8047 28.9216 22.0424ZM53.5362 7.92381C53.5362 9.04127 52.6219 10.0063 51.4537 10.0063C50.2854 10.0063 49.3711 9.09206 49.3711 7.92381C49.3711 6.75556 50.2346 5.84127 51.4537 5.84127C52.6727 5.94286 53.5362 6.85714 53.5362 7.92381ZM45.0537 12.0889V12.5968C45.0537 12.5968 44.0886 11.327 42.0061 11.327C38.5521 11.327 35.86 13.9683 35.86 17.5746C35.86 21.181 38.5013 23.8222 42.0061 23.8222C44.1394 23.8222 45.0537 22.5016 45.0537 22.5016V23.0603C45.0537 23.3143 45.2569 23.5175 45.5108 23.5175H48.0505V11.6317H45.5108C45.2569 11.6317 45.0537 11.8857 45.0537 12.0889ZM42.514 21.0286C43.6315 21.0286 44.5965 20.419 45.0537 19.7079V15.5429C44.6473 14.8317 43.6315 14.2222 42.514 14.2222C40.533 14.2222 38.9584 15.4921 38.9584 17.6254C38.9584 19.7587 40.4822 21.0286 42.514 21.0286ZM49.9807 11.6317H53.0283V23.5175H49.9807V11.6317ZM92.2918 12.5968C92.2918 12.5968 93.2569 11.327 95.3394 11.327C98.7934 11.327 101.485 13.9683 101.435 17.6254C101.435 21.2317 98.7426 23.873 95.2886 23.873C93.2061 23.873 92.241 22.5524 92.241 22.5524V23.1111C92.241 23.3651 92.0378 23.5683 91.7838 23.5683H89.2442V5.94286H92.2918V12.5968ZM94.8315 20.9778C93.6632 20.9778 92.7489 20.3683 92.2918 19.6571V15.3905C92.7489 14.781 93.7648 14.0698 94.8315 14.0698C96.8632 14.0698 98.387 15.3397 98.387 17.473C98.387 19.6063 96.8632 20.9778 94.8315 20.9778ZM87.6696 23.619V16.5079C87.6696 14.4762 87.2632 13.3587 86.1457 12.4444C85.2822 11.6825 84.1648 11.327 82.8442 11.327C81.6759 11.327 80.4569 11.6825 79.5934 12.5968V12.0889C79.5934 11.8349 79.3902 11.6317 79.1362 11.6317H76.7489V23.5683H79.7965V15.2889C80.4061 14.5778 81.3711 14.1206 82.2854 14.1206C84.0124 14.1206 84.6219 14.8825 84.6219 16.8635V23.619H87.6696ZM69.3838 11.327C67.3013 11.327 66.3362 12.5968 66.3362 12.5968V5.94286H63.2886V23.5683H65.8283C66.0822 23.5683 66.2854 23.3651 66.2854 23.1111V22.5524C66.2854 22.5524 67.2505 23.873 69.333 23.873C72.787 23.873 75.4791 21.2317 75.4791 17.6254C75.5299 13.9683 72.8378 11.327 69.3838 11.327ZM66.3362 19.6571C66.7934 20.3683 67.7076 20.9778 68.8759 20.9778C70.9076 20.9778 72.4315 19.6063 72.4315 17.473C72.4315 15.3397 70.9076 14.0698 68.8759 14.0698C67.8092 14.0698 66.7934 14.781 66.3362 15.3905V19.6571ZM60.6473 11.327C61.5616 11.327 62.0188 11.4794 62.0188 11.4794V14.273C62.0188 14.273 59.4791 13.4095 57.9045 15.2381V23.5683H54.8569V11.6317H57.3965C57.6505 11.6317 57.8537 11.8349 57.8537 12.0889V12.5968C58.4632 11.9365 59.733 11.327 60.6473 11.327ZM14.8315 24.127C13.1045 21.9937 12.0378 19.9619 11.6315 18.2349C11.4791 17.5238 11.4283 16.8635 11.5299 16.3048C11.5807 15.7968 11.7838 15.3397 12.0378 14.9841C12.6473 14.1206 13.6632 13.6127 14.8315 13.6127C15.9997 13.6127 17.0664 14.1206 17.6251 14.9841C17.8791 15.3397 18.0822 15.7968 18.133 16.3048C18.2346 16.8635 18.1838 17.5238 18.0315 18.2349C17.6251 19.9111 16.5076 21.9429 14.8315 24.127ZM24.533 29.3079C26.1076 28.6476 27.2251 27.2254 27.4283 25.6C27.5807 24.7873 27.4791 23.9746 27.1235 23.1111C27.0219 22.8063 26.8696 22.4508 26.7172 22.0952C26.5902 21.8413 26.4759 21.5746 26.3616 21.3079C26.2473 21.0413 26.133 20.7746 26.0061 20.5206V20.4698C23.8219 15.7968 21.4854 10.9714 19.0981 6.24762L18.9965 6.04445C18.7426 5.53651 18.4886 5.02857 18.2346 4.57143C17.9807 4.06349 17.7267 3.60635 17.3711 3.2C16.7108 2.4381 15.7965 2.03175 14.8315 2.03175C13.8664 2.03175 12.9521 2.4381 12.2918 3.2C11.987 3.60635 11.6822 4.06349 11.4283 4.57143L11.4283 4.57149C11.1743 5.0794 10.9203 5.58732 10.6664 6.04445L10.5648 6.24762C8.12669 10.9206 5.79019 15.746 3.60606 20.4698L3.55526 20.5206C3.3013 21.0286 3.04733 21.5873 2.84415 22.0952C2.77427 22.2816 2.70438 22.4466 2.6394 22.6C2.56269 22.7811 2.4928 22.9461 2.4378 23.1111C2.08225 24.0254 2.03146 24.7873 2.13304 25.6C2.38701 27.2254 3.45368 28.6984 5.02828 29.3079C5.73939 29.5619 6.55209 29.7143 7.41558 29.6127C8.17749 29.5111 8.99018 29.2571 9.80288 28.8C10.9203 28.1905 12.0886 27.2254 13.4092 25.7524C11.3775 23.2127 10.0569 20.8254 9.59971 18.7429C9.34574 17.7778 9.34574 16.8635 9.44733 16.0508C9.59971 15.2889 9.85368 14.527 10.3108 13.9175C11.2759 12.546 12.9521 11.6825 14.7807 11.6825C16.6092 11.6825 18.2854 12.4952 19.2505 13.9175C19.7076 14.527 20.0124 15.2381 20.114 16.0508C20.2156 16.8635 20.1648 17.7778 19.9616 18.7429C19.5045 20.8254 18.2346 23.2127 16.1521 25.7524C17.4727 27.1746 18.641 28.1905 19.7584 28.8C20.5711 29.2571 21.333 29.5111 22.1457 29.6127C22.9584 29.7143 23.7711 29.6127 24.533 29.3079Z" fill="#FF5A5F"/>
</svg>
