<svg width="106" height="32" viewBox="0 0 106 32" fill="none" xmlns="http://www.w3.org/2000/svg">
<path d="M64.3668 23.3967C57.5471 26.282 50.0979 27.6984 43.3307 27.6984C33.311 27.6984 23.6061 24.9705 15.7373 20.4066C15.0553 19.9869 14.5307 20.7213 15.1077 21.2459C22.3996 27.8033 31.9996 31.7377 42.6487 31.7377C50.2553 31.7377 59.1209 29.3246 65.2061 24.8656C66.2553 24.0263 65.4159 22.9246 64.3668 23.3967Z" fill="#FF9900"/>
<path d="M60.5374 20.8265C60.0128 21.1937 60.0652 21.7183 60.6947 21.6658C62.6357 21.456 67.0423 20.9314 67.8292 21.9281C68.6161 22.9248 66.9374 27.0691 66.2029 28.9051C65.9931 29.4822 66.4652 29.692 66.9374 29.2724C70.1898 26.5445 71.0816 20.774 70.3997 19.9871C69.7701 19.0953 63.9997 18.3609 60.5374 20.8265Z" fill="#FF9900"/>
<path d="M72.4983 13.9015C70.6098 12.8523 68.459 12.5375 66.4131 12.59L71.9738 4.66868C72.4983 3.93425 72.7606 3.51458 72.7606 3.14736V1.10146C72.7606 0.73425 72.4983 0.524414 72.1311 0.524414H61.4295C61.1147 0.524414 60.8524 0.786709 60.8524 1.10146V3.46212C60.8524 3.82933 61.1147 4.03917 61.4819 4.03917H67.0426L60.6426 13.2195C60.2754 13.7965 60.2754 14.4785 60.2754 14.8457V17.2588C60.2754 17.6261 60.6426 17.9933 61.0098 17.7834C64.6295 15.8424 68.9836 16.0523 72.2885 17.7834C72.7082 17.9933 73.0754 17.5736 73.0754 17.2588V14.6883C73.0229 14.4785 72.918 14.1113 72.4983 13.9015Z" fill="#221F1F"/>
<path d="M18.6227 18.4132H21.8751C22.2423 18.4132 22.5046 18.1509 22.5046 17.8362V8.97062C22.5046 7.02963 22.3997 4.35422 24.7604 4.35422C27.0686 4.35422 26.7538 7.08209 26.7538 8.97062V17.8362C26.7538 18.1509 27.0161 18.4132 27.3309 18.4132H30.5833C30.9505 18.4132 31.2128 18.1509 31.2128 17.8362V8.97062C31.2128 8.02635 31.1604 6.60996 31.5276 5.77062C31.8423 4.93127 32.6817 4.40668 33.4686 4.40668C34.4128 4.40668 35.1473 4.72144 35.3571 5.82308C35.5145 6.50504 35.462 8.23619 35.462 8.97062V17.8362C35.462 18.1509 35.7243 18.4132 36.0391 18.4132H39.2915C39.6587 18.4132 39.921 18.1509 39.921 17.8362V7.29193C39.921 5.50832 40.1309 3.46242 39.0817 2.04603C38.1899 0.78701 36.6686 0.209961 35.3046 0.209961C33.3637 0.209961 31.58 1.20668 30.7932 3.30504C29.9014 1.20668 28.5899 0.209961 26.5964 0.209961C24.603 0.209961 23.1341 1.20668 22.2948 3.30504H22.2423V1.10176C22.2423 0.78701 21.98 0.577174 21.6653 0.524715H18.6227C18.2555 0.524715 17.9932 0.78701 17.9932 1.10176V17.8362C18.0456 18.1509 18.3079 18.3608 18.6227 18.4132Z" fill="#221F1F"/>
<path fill-rule="evenodd" clip-rule="evenodd" d="M74.6494 9.44275C74.6494 4.24931 77.2199 0.209961 81.9412 0.209961C86.7674 0.209961 89.3379 4.35422 89.3904 9.60013C89.3904 14.6887 86.5052 18.728 81.9412 18.728C77.2199 18.728 74.6494 14.5837 74.6494 9.44275ZM79.4231 9.0386C79.4221 11.1298 79.4201 15.3182 81.9412 15.3182C84.4592 15.3182 84.5642 11.8034 84.6166 9.65258C84.6166 8.28865 84.5642 6.5575 84.1445 5.24603C83.7773 4.09193 83.0429 3.6198 81.9937 3.6198C79.5806 3.6198 79.4232 6.87226 79.4232 8.91816C79.4232 8.95747 79.4232 8.99763 79.4231 9.0386Z" fill="#221F1F"/>
<path d="M100.512 0.209961C98.2562 0.209961 96.9972 1.3116 96.1054 3.56734H96.0004V1.04931C95.948 0.78701 95.6857 0.577174 95.4234 0.577174H92.4332C92.1185 0.577174 91.8562 0.839469 91.8037 1.10176V17.7837C91.8037 18.0985 92.066 18.3608 92.3808 18.3608H95.6332C96.0004 18.3608 96.2627 18.0985 96.2627 17.7837V8.81324C96.2627 7.7116 96.3152 6.66242 96.7873 5.6657C97.1545 4.87881 97.889 4.35422 98.6758 4.35422C100.932 4.35422 100.722 7.02963 100.722 8.8657V17.9411C100.774 18.2034 100.984 18.4657 101.299 18.4657H104.551C104.866 18.4657 105.128 18.2559 105.181 17.9411V7.44931C105.181 5.82308 105.181 3.56734 104.341 2.25586C103.345 0.734551 101.928 0.209961 100.512 0.209961Z" fill="#221F1F"/>
<path fill-rule="evenodd" clip-rule="evenodd" d="M51.4965 7.2195C51.7734 7.19098 52.0428 7.16323 52.3014 7.13449L52.4064 6.76728C52.4064 6.69636 52.4068 6.62459 52.4072 6.5522C52.4116 5.82135 52.4163 5.02713 51.9867 4.40662C51.567 3.82957 50.8326 3.56728 50.1506 3.56728C48.8916 3.56728 47.79 4.19678 47.5277 5.50826C47.4752 5.77055 47.2654 6.08531 46.9506 6.08531L43.8031 5.77055C43.5408 5.71809 43.2785 5.50826 43.331 5.08859C44.0654 1.25908 47.5277 0.10498 50.6228 0.10498C52.1965 0.10498 54.2424 0.524653 55.5014 1.73121C56.9429 3.12461 56.9321 4.87007 56.9201 6.80637C56.919 6.98412 56.9178 7.16348 56.9178 7.34432V12.4328C56.9178 13.7442 57.3856 14.3929 57.8843 15.0846C57.9641 15.1953 58.0448 15.3072 58.1244 15.423C58.3342 15.6853 58.3867 16.0525 58.1244 16.2624C57.4949 16.7869 56.2883 17.8361 55.6588 18.4132C55.449 18.5706 55.1342 18.5706 54.8719 18.4656C53.9112 17.6879 53.6287 17.2692 53.1894 16.6181C53.125 16.5226 53.0572 16.4222 52.9834 16.3148C51.1998 18.1509 49.9408 18.6755 47.6326 18.6755C44.9047 18.6755 42.7539 16.9443 42.7539 13.5869C42.7539 10.964 44.1703 9.18039 46.2162 8.28859C47.7103 7.60946 49.7514 7.39924 51.4965 7.2195ZM49.4687 15.3706C50.3605 15.3706 51.1998 14.7935 51.7244 13.9017C52.3085 12.8309 52.3055 11.8505 52.302 10.709C52.3017 10.6201 52.3014 10.5303 52.3014 10.4394V9.75744C49.9408 9.75744 47.4752 10.2296 47.4752 13.0099C47.4752 14.4263 48.2096 15.3706 49.4687 15.3706Z" fill="#221F1F"/>
<path fill-rule="evenodd" clip-rule="evenodd" d="M15.2348 14.9796C15.3147 15.0903 15.3953 15.2022 15.475 15.318C15.6848 15.6328 15.7373 16 15.475 16.2623C14.8455 16.7869 13.6389 17.8361 13.0094 18.4131C12.7996 18.5705 12.4848 18.5705 12.2225 18.4656C11.2618 17.6878 10.9793 17.2692 10.54 16.6181C10.4756 16.5226 10.4078 16.4221 10.334 16.3148C8.55039 18.1508 7.29138 18.6754 4.98318 18.6754C2.25531 18.6754 0.104492 16.9443 0.104492 13.5869C0.104492 10.9115 1.57334 9.12787 3.61925 8.23607C5.11332 7.55694 7.15443 7.34671 8.8995 7.16698C9.17641 7.13846 9.44586 7.1107 9.70449 7.08197V6.66229C9.70449 6.54254 9.70692 6.42036 9.70938 6.29686C9.72306 5.60883 9.73756 4.87982 9.33728 4.30164C8.91761 3.72459 8.18318 3.4623 7.50121 3.4623C6.2422 3.4623 5.14056 4.0918 4.87826 5.40328C4.8258 5.66557 4.61597 5.98033 4.30121 5.98033L1.15367 5.66557C0.891377 5.61311 0.629082 5.40328 0.681541 4.98361C1.41597 1.1541 4.87826 0 7.97334 0C9.54712 0 11.593 0.419672 12.852 1.62623C14.2935 3.01963 14.2827 4.76509 14.2706 6.70139C14.2695 6.87914 14.2684 7.0585 14.2684 7.23934V12.3279C14.2684 13.6392 14.7362 14.2879 15.2348 14.9796ZM6.81925 15.3705C7.76351 15.3705 8.55039 14.7934 9.07498 13.9016C9.74896 12.7611 9.70562 11.723 9.65388 10.4835L9.65203 10.4393V9.75738C7.29138 9.75738 4.8258 10.2295 4.8258 13.0098C4.8258 14.4262 5.56023 15.3705 6.81925 15.3705Z" fill="#221F1F"/>
</svg>
