<svg width="28" height="28" viewBox="0 0 28 28" fill="none" xmlns="http://www.w3.org/2000/svg">
<path fill-rule="evenodd" clip-rule="evenodd" d="M3.92023 2.23999H17.3602C18.2881 2.23999 19.0402 2.99215 19.0402 3.91999V17.36C19.0402 18.2878 18.2881 19.04 17.3602 19.04H3.92023C2.9924 19.04 2.24023 18.2878 2.24023 17.36V3.91999C2.24023 2.99215 2.9924 2.23999 3.92023 2.23999ZM23.5202 8.95999H24.0802C25.0081 8.95999 25.7602 9.71215 25.7602 10.64V24.08C25.7602 25.0078 25.0081 25.76 24.0802 25.76H10.6402C9.7124 25.76 8.96023 25.0078 8.96023 24.08V23.52H20.7202C22.2666 23.52 23.5202 22.2664 23.5202 20.72V8.95999Z" fill="#1565D8"/>
<path opacity="0.3" fill-rule="evenodd" clip-rule="evenodd" d="M20.1596 5.6001H20.7196C21.6474 5.6001 22.3996 6.35226 22.3996 7.2801V20.7201C22.3996 21.6479 21.6474 22.4001 20.7196 22.4001H7.27961C6.35177 22.4001 5.59961 21.6479 5.59961 20.7201V20.1601H17.3596C18.906 20.1601 20.1596 18.9065 20.1596 17.3601V5.6001Z" fill="#1565D8"/>
</svg>
