<svg width="24" height="24" viewBox="0 0 24 24" fill="none" xmlns="http://www.w3.org/2000/svg">
<path fill-rule="evenodd" clip-rule="evenodd" d="M15.9202 23.0682V19.3788C15.9202 17.4686 14.174 15.92 12.2638 15.92H11.7367C9.82645 15.92 8.08023 17.4686 8.08023 19.3788V23.0682C8.08023 23.3108 8.12185 23.5436 8.19832 23.76H6.46612C4.55587 23.76 3.0073 22.2114 3.0073 20.3012V9.71977L1.38754 11.1371C1.10002 11.3886 0.662985 11.3595 0.411402 11.072C0.15982 10.7845 0.188956 10.3474 0.476478 10.0959L11.5447 0.411149C11.8055 0.182937 12.195 0.182937 12.4558 0.411149L23.524 10.0959C23.8115 10.3474 23.8406 10.7845 23.5891 11.072C23.3375 11.3595 22.9005 11.3886 22.6129 11.1371L20.9932 9.71977V20.3012C20.9932 22.2114 19.4446 23.76 17.5343 23.76H15.8021C15.8786 23.5436 15.9202 23.3108 15.9202 23.0682Z" fill="#1565D8"/>
</svg>
