<svg width="15" height="15" viewBox="0 0 15 15" fill="none" xmlns="http://www.w3.org/2000/svg">
<path d="M7.33301 3.73975C5.33301 3.73975 3.73926 5.36475 3.73926 7.3335C3.73926 9.3335 5.33301 10.9272 7.33301 10.9272C9.30176 10.9272 10.9268 9.3335 10.9268 7.3335C10.9268 5.36475 9.30176 3.73975 7.33301 3.73975ZM7.33301 9.67725C6.05176 9.67725 4.98926 8.646 4.98926 7.3335C4.98926 6.05225 6.02051 5.021 7.33301 5.021C8.61426 5.021 9.64551 6.05225 9.64551 7.3335C9.64551 8.646 8.61426 9.67725 7.33301 9.67725ZM11.8955 3.61475C11.8955 3.146 11.5205 2.771 11.0518 2.771C10.583 2.771 10.208 3.146 10.208 3.61475C10.208 4.0835 10.583 4.4585 11.0518 4.4585C11.5205 4.4585 11.8955 4.0835 11.8955 3.61475ZM14.2705 4.4585C14.208 3.3335 13.958 2.3335 13.1455 1.521C12.333 0.708496 11.333 0.458496 10.208 0.395996C9.05176 0.333496 5.58301 0.333496 4.42676 0.395996C3.30176 0.458496 2.33301 0.708496 1.48926 1.521C0.676758 2.3335 0.426758 3.3335 0.364258 4.4585C0.301758 5.61475 0.301758 9.0835 0.364258 10.2397C0.426758 11.3647 0.676758 12.3335 1.48926 13.1772C2.33301 13.9897 3.30176 14.2397 4.42676 14.3022C5.58301 14.3647 9.05176 14.3647 10.208 14.3022C11.333 14.2397 12.333 13.9897 13.1455 13.1772C13.958 12.3335 14.208 11.3647 14.2705 10.2397C14.333 9.0835 14.333 5.61475 14.2705 4.4585ZM12.7705 11.4585C12.5518 12.0835 12.0518 12.5522 11.458 12.8022C10.5205 13.1772 8.33301 13.0835 7.33301 13.0835C6.30176 13.0835 4.11426 13.1772 3.20801 12.8022C2.58301 12.5522 2.11426 12.0835 1.86426 11.4585C1.48926 10.5522 1.58301 8.36475 1.58301 7.3335C1.58301 6.3335 1.48926 4.146 1.86426 3.2085C2.11426 2.61475 2.58301 2.146 3.20801 1.896C4.11426 1.521 6.30176 1.61475 7.33301 1.61475C8.33301 1.61475 10.5205 1.521 11.458 1.896C12.0518 2.11475 12.5205 2.61475 12.7705 3.2085C13.1455 4.146 13.0518 6.3335 13.0518 7.3335C13.0518 8.36475 13.1455 10.5522 12.7705 11.4585Z" fill="#5A7184"/>
</svg>
