<svg width="28" height="28" viewBox="0 0 28 28" fill="none" xmlns="http://www.w3.org/2000/svg">
<path fill-rule="evenodd" clip-rule="evenodd" d="M8.04492 10.9915C9.51682 8.8998 10.4356 6.49962 10.8042 3.78238C10.8393 3.52354 11.0225 3.3083 11.274 3.23047C13.8088 2.44603 15.2499 3.69257 15.2261 6.53496C15.2215 7.0867 15.196 7.57711 15.1418 8.32716C15.0207 10.0025 15.0304 10.4597 15.2179 10.7674C15.3983 11.0631 15.9836 11.1641 17.368 10.9012C17.8048 10.8183 18.2431 10.7243 18.7285 10.6114C18.9427 10.5615 20.486 10.1849 20.8805 10.0998C21.633 9.93727 22.173 9.8685 22.6478 9.89762C23.934 9.97651 24.6166 10.8047 24.7345 12.3913C24.9422 15.1855 24.3004 20.798 23.6602 22.8653C23.0059 24.9778 21.8649 25.7752 19.126 25.8233C17.3651 25.8543 14.6568 25.8543 10.9885 25.8232C10.052 25.8015 9.20339 25.6201 8.44852 25.2811C8.66041 24.8424 8.77908 24.3509 8.77908 23.832V13.08C8.77908 12.2907 8.50452 11.5649 8.04492 10.9915Z" fill="#1565D8"/>
<path opacity="0.3" fill-rule="evenodd" clip-rule="evenodd" d="M4.03368 11.064C2.91051 11.064 2 11.9666 2 13.08V23.832C2 24.9454 2.91051 25.848 4.03368 25.848H5.38947C6.51265 25.848 7.42316 24.9454 7.42316 23.832V13.08C7.42316 11.9666 6.51265 11.064 5.38947 11.064H4.03368Z" fill="#1565D8"/>
</svg>
