<svg width="40" height="40" viewBox="0 0 40 40" fill="none" xmlns="http://www.w3.org/2000/svg">
<path fill-rule="evenodd" clip-rule="evenodd" d="M25.4004 12.6353V15.8637L30.8832 10.3809L31.0004 10.0981V6.86963L25.5175 12.3525L25.4004 12.6353ZM9.40039 33.4637V30.2353L9.51755 29.9525L15.0004 24.4696V27.6981L14.8832 27.9809L9.40039 33.4637ZM17.4004 27.6981L17.5175 27.9809L23.0004 33.4637V30.2353L22.8832 29.9525L17.4004 24.4696V27.6981ZM25.4004 30.2353V33.4637L30.8832 27.9809L31.0004 27.6981V24.4696L25.5175 29.9525L25.4004 30.2353ZM17.5175 10.3809L17.4004 10.0981V6.86963L22.8832 12.3525L23.0004 12.6353V15.8637L17.5175 10.3809ZM9.40039 12.6353V15.8637L14.8832 10.3809L15.0004 10.0981V6.86963L9.51755 12.3525L9.40039 12.6353Z" fill="#B4CCEF"/>
<path fill-rule="evenodd" clip-rule="evenodd" d="M16.2 10.5666C14.4327 10.5666 13 9.13394 13 7.36663C13 5.59931 14.4327 4.16663 16.2 4.16663C17.9673 4.16663 19.4 5.59931 19.4 7.36663C19.4 9.13394 17.9673 10.5666 16.2 10.5666ZM13 24.9666C13 26.7339 14.4327 28.1666 16.2 28.1666C17.9673 28.1666 19.4 26.7339 19.4 24.9666C19.4 23.1993 17.9673 21.7666 16.2 21.7666C14.4327 21.7666 13 23.1993 13 24.9666ZM21 32.9666C21 34.7339 22.4327 36.1666 24.2 36.1666C25.9673 36.1666 27.4 34.7339 27.4 32.9666C27.4 31.1993 25.9673 29.7666 24.2 29.7666C22.4327 29.7666 21 31.1993 21 32.9666ZM32.2 28.1666C30.4327 28.1666 29 26.7339 29 24.9666C29 23.1993 30.4327 21.7666 32.2 21.7666C33.9673 21.7666 35.4 23.1993 35.4 24.9666C35.4 26.7339 33.9673 28.1666 32.2 28.1666ZM5 32.9666C5 34.7339 6.43269 36.1666 8.2 36.1666C9.96731 36.1666 11.4 34.7339 11.4 32.9666C11.4 31.1993 9.96731 29.7666 8.2 29.7666C6.43269 29.7666 5 31.1993 5 32.9666ZM21 15.3666C21 17.1339 22.4327 18.5666 24.2 18.5666C25.9673 18.5666 27.4 17.1339 27.4 15.3666C27.4 13.5993 25.9673 12.1666 24.2 12.1666C22.4327 12.1666 21 13.5993 21 15.3666ZM32.2 10.5666C30.4327 10.5666 29 9.13394 29 7.36663C29 5.59931 30.4327 4.16663 32.2 4.16663C33.9673 4.16663 35.4 5.59931 35.4 7.36663C35.4 9.13394 33.9673 10.5666 32.2 10.5666ZM5 15.3666C5 17.1339 6.43269 18.5666 8.2 18.5666C9.96731 18.5666 11.4 17.1339 11.4 15.3666C11.4 13.5993 9.96731 12.1666 8.2 12.1666C6.43269 12.1666 5 13.5993 5 15.3666Z" fill="#1565D8"/>
</svg>
