<svg width="15" height="15" viewBox="0 0 15 15" fill="none" xmlns="http://www.w3.org/2000/svg">
<path d="M13.333 0.333496H1.30176C0.770508 0.333496 0.333008 0.802246 0.333008 1.36475V13.3335C0.333008 13.896 0.770508 14.3335 1.30176 14.3335H13.333C13.8643 14.3335 14.333 13.896 14.333 13.3335V1.36475C14.333 0.802246 13.8643 0.333496 13.333 0.333496ZM4.55176 12.3335H2.48926V5.67725H4.55176V12.3335ZM3.52051 4.73975C2.83301 4.73975 2.30176 4.2085 2.30176 3.55225C2.30176 2.896 2.83301 2.3335 3.52051 2.3335C4.17676 2.3335 4.70801 2.896 4.70801 3.55225C4.70801 4.2085 4.17676 4.73975 3.52051 4.73975ZM12.333 12.3335H10.2393V9.0835C10.2393 8.3335 10.2393 7.3335 9.17676 7.3335C8.08301 7.3335 7.92676 8.17725 7.92676 9.05225V12.3335H5.86426V5.67725H7.83301V6.5835H7.86426C8.14551 6.05225 8.83301 5.48975 9.83301 5.48975C11.9268 5.48975 12.333 6.896 12.333 8.67725V12.3335Z" fill="#5A7184"/>
</svg>
