<svg width="32" height="34" viewBox="0 0 32 34" fill="none" xmlns="http://www.w3.org/2000/svg">
<path fill-rule="evenodd" clip-rule="evenodd" d="M30.6715 5.44751L16.2715 0.247508C16.0959 0.184099 15.9037 0.184099 15.7281 0.247508L1.32809 5.44751C1.01107 5.56199 0.799805 5.86289 0.799805 6.19995V17C0.799805 25.4809 5.86481 31.1087 15.7925 33.7726C15.9301 33.8095 16.0751 33.809 16.2124 33.7712C26.1368 31.0354 31.1998 25.4098 31.1998 17V6.19995C31.1998 5.86289 30.9885 5.56199 30.6715 5.44751ZM10.4769 15.6006C10.797 15.296 11.3034 15.3086 11.6079 15.6287L14.8442 19.0297L21.6402 11.6577C21.9397 11.3329 22.4458 11.3123 22.7706 11.6118C23.0955 11.9112 23.116 12.4173 22.8166 12.7422L15.4416 20.7422C15.1282 21.0822 14.5927 21.0864 14.2739 20.7514L10.4488 16.7316C10.1443 16.4115 10.1568 15.9051 10.4769 15.6006Z" fill="#1565D8"/>
</svg>
