<svg width="40" height="40" viewBox="0 0 40 40" fill="none" xmlns="http://www.w3.org/2000/svg">
<path fill-rule="evenodd" clip-rule="evenodd" d="M20.0332 20.8H33.6332C34.075 20.8 34.4332 21.1582 34.4332 21.6C34.4332 29.9948 27.6279 36.8 19.2332 36.8C10.8385 36.8 4.0332 29.9948 4.0332 21.6C4.0332 13.2053 10.8385 6.40002 19.2332 6.40002C19.675 6.40002 20.0332 6.7582 20.0332 7.20002V20.8Z" fill="#1565D8"/>
<path d="M37.6334 16.8C37.6334 17.2418 37.2752 17.6 36.8334 17.6H24.0334C23.5916 17.6 23.2334 17.2418 23.2334 16.8V3.99995C23.2334 3.55812 23.5916 3.19995 24.0334 3.19995C31.5445 3.19995 37.6334 9.28888 37.6334 16.8Z" fill="#B4CCEF"/>
</svg>
