<svg width="32" height="32" viewBox="0 0 32 32" fill="none" xmlns="http://www.w3.org/2000/svg">
<path d="M6.71889 10.8329H9.84397C10.3675 10.8329 10.792 11.2421 10.792 11.7468C10.792 12.2515 10.3675 12.6607 9.84397 12.6607H4.78786C4.26429 12.6607 3.83984 12.2515 3.83984 11.7468V6.87278C3.83984 6.36805 4.26429 5.9589 4.78786 5.9589C5.31144 5.9589 5.73588 6.36805 5.73588 6.87278V8.90412C8.81761 4.65703 14.5446 2.7305 19.8449 4.4898C24.8313 6.14494 28.1617 10.668 28.1598 15.7265C28.1597 16.2313 27.7351 16.6403 27.2115 16.6401C26.6879 16.6399 26.2636 16.2306 26.2638 15.7259C26.2654 11.4461 23.447 7.61851 19.2276 6.21798C14.3916 4.61277 9.1349 6.6343 6.71889 10.8329Z" fill="#B4CCEF"/>
<path fill-rule="evenodd" clip-rule="evenodd" d="M25.2491 21.1532H22.1647C21.6419 21.1532 21.2181 20.7432 21.2181 20.2375C21.2181 19.7318 21.6419 19.3218 22.1647 19.3218H27.2132C27.736 19.3218 28.1598 19.7318 28.1598 20.2375V25.1211C28.1598 25.6269 27.736 26.0368 27.2132 26.0368C26.6904 26.0368 26.2666 25.6269 26.2666 25.1211V23.0359C23.1964 27.3295 17.4515 29.2776 12.1424 27.5092C7.17311 25.8541 3.84999 21.3362 3.83985 16.2776C3.83883 15.7718 4.26182 15.3611 4.78462 15.3601C5.30741 15.3591 5.73204 15.7683 5.73306 16.274C5.74164 20.5539 8.55388 24.3771 12.7588 25.7777C17.5839 27.3848 22.8352 25.3637 25.2491 21.1532Z" fill="#1565D8"/>
</svg>
