<svg width="17" height="14" viewBox="0 0 17 14" fill="none" xmlns="http://www.w3.org/2000/svg">
<path d="M14.6768 4.0835C15.3018 3.61475 15.8643 3.05225 16.3018 2.396C15.7393 2.646 15.083 2.8335 14.4268 2.896C15.1143 2.48975 15.6143 1.86475 15.8643 1.0835C15.2393 1.4585 14.5205 1.73975 13.8018 1.896C13.1768 1.23975 12.333 0.864746 11.3955 0.864746C9.58301 0.864746 8.11426 2.3335 8.11426 4.146C8.11426 4.396 8.14551 4.646 8.20801 4.896C5.48926 4.73975 3.05176 3.42725 1.42676 1.4585C1.14551 1.92725 0.989258 2.48975 0.989258 3.11475C0.989258 4.23975 1.55176 5.23975 2.45801 5.8335C1.92676 5.80225 1.39551 5.67725 0.958008 5.42725V5.4585C0.958008 7.05225 2.08301 8.36475 3.58301 8.67725C3.33301 8.73975 3.02051 8.80225 2.73926 8.80225C2.52051 8.80225 2.33301 8.771 2.11426 8.73975C2.52051 10.0522 3.73926 10.9897 5.17676 11.021C4.05176 11.896 2.64551 12.4272 1.11426 12.4272C0.833008 12.4272 0.583008 12.396 0.333008 12.3647C1.77051 13.3022 3.48926 13.8335 5.36426 13.8335C11.3955 13.8335 14.6768 8.86475 14.6768 4.521C14.6768 4.36475 14.6768 4.23975 14.6768 4.0835Z" fill="#5A7184"/>
</svg>
